<svg width="240" height="240" viewBox="0 0 240 240" fill="none" xmlns="http://www.w3.org/2000/svg">
<path d="M119.903 132.885C126.892 132.885 132.557 127.219 132.557 120.23C132.557 113.241 126.892 107.575 119.903 107.575C112.914 107.575 107.248 113.241 107.248 120.23C107.248 127.219 112.914 132.885 119.903 132.885Z" fill="#61DAFB"/>
<path fill-rule="evenodd" clip-rule="evenodd" d="M152.603 63.5893C154.878 64.9023 156.599 67.4948 157.48 71.6143C158.361 75.7334 158.33 81.1015 157.318 87.4189C156.901 90.0172 156.323 92.7533 155.586 95.6003C149.545 94.2037 142.922 93.1545 135.902 92.5168C131.84 86.7558 127.62 81.5453 123.39 77.0122C125.487 74.9504 127.567 73.0814 129.609 71.4216C134.574 67.3864 139.207 64.6748 143.215 63.3782C147.223 62.0816 150.329 62.2764 152.603 63.5893ZM116.414 77.0122C114.317 74.9505 112.237 73.0816 110.195 71.4219C105.23 67.3867 100.597 64.6751 96.5889 63.3785C92.5808 62.0819 89.4747 62.2767 87.2006 63.5896C84.9266 64.9026 83.2048 67.4951 82.3237 71.6146C81.4427 75.7337 81.4745 81.1018 82.4866 87.4192C82.9029 90.0175 83.4813 92.7536 84.2183 95.6006C90.259 94.204 96.8814 93.1547 103.902 92.517C107.964 86.7559 112.184 81.5454 116.414 77.0122ZM119.902 73.4296C117.702 71.2679 115.511 69.2993 113.348 67.5418C108.106 63.2813 102.929 60.1744 98.1279 58.6213C93.3275 57.0683 88.6268 56.9927 84.7006 59.2595C80.7745 61.5263 78.4896 65.635 77.4343 70.5688C76.3789 75.5029 76.4809 81.54 77.5496 88.2102C77.9904 90.9616 78.5995 93.8439 79.3717 96.8299C76.3999 97.6541 73.5995 98.5677 70.9965 99.5616C64.6856 101.971 59.4063 104.901 55.6609 108.282C51.9158 111.663 49.5 115.696 49.5 120.23C49.5 124.763 51.9158 128.797 55.6609 132.177C59.4063 135.558 64.6856 138.489 70.9965 140.898C73.5996 141.892 76.4 142.806 79.3719 143.63C78.5996 146.616 77.9906 149.498 77.5497 152.25C76.4811 158.92 76.3791 164.957 77.4345 169.891C78.4897 174.825 80.7746 178.933 84.7008 181.2C88.627 183.467 93.3277 183.391 98.1281 181.838C102.929 180.285 108.106 177.178 113.348 172.918C115.511 171.16 117.702 169.192 119.902 167.03C122.102 169.192 124.293 171.161 126.456 172.918C131.698 177.179 136.875 180.286 141.676 181.839C146.476 183.392 151.177 183.467 155.103 181.201C159.029 178.934 161.314 174.825 162.37 169.891C163.425 164.957 163.323 158.92 162.254 152.25C161.814 149.498 161.204 146.616 160.432 143.63C163.405 142.806 166.205 141.892 168.809 140.898C175.12 138.489 180.399 135.558 184.144 132.177C187.89 128.797 190.305 124.763 190.305 120.23C190.305 115.696 187.89 111.663 184.144 108.282C180.399 104.901 175.12 101.971 168.809 99.5616C166.206 98.5676 163.405 97.6539 160.432 96.8296C161.205 93.8436 161.814 90.9613 162.255 88.2099C163.323 81.5397 163.425 75.5026 162.37 70.5685C161.315 65.6347 159.03 61.526 155.103 59.2592C151.177 56.9924 146.477 57.068 141.676 58.621C136.875 60.1741 131.698 63.281 126.456 67.5415C124.293 69.2991 122.102 71.2678 119.902 73.4296ZM154.22 100.417C149.672 99.3751 144.757 98.5323 139.561 97.9234C141.255 100.531 142.912 103.232 144.52 106.017C146.128 108.802 147.639 111.587 149.05 114.358C151.12 109.554 152.848 104.876 154.22 100.417ZM151.902 120.23C154.86 113.831 157.263 107.571 159.074 101.641C161.908 102.427 164.567 103.294 167.025 104.233C173.003 106.515 177.667 109.171 180.794 111.994C183.921 114.817 185.305 117.604 185.305 120.23C185.305 122.856 183.921 125.643 180.794 128.466C177.667 131.289 173.003 133.945 167.025 136.227C164.567 137.166 161.908 138.033 159.074 138.818C157.263 132.889 154.86 126.629 151.902 120.23ZM146.376 120.23C144.523 116.367 142.459 112.447 140.19 108.517C137.921 104.586 135.558 100.839 133.139 97.3029C128.867 96.9757 124.441 96.8034 119.903 96.8034C115.364 96.8034 110.938 96.9758 106.665 97.303C104.246 100.839 101.883 104.586 99.6142 108.516C97.345 112.447 95.2811 116.366 93.4282 120.23C95.281 124.094 97.3449 128.013 99.6141 131.943C101.883 135.873 104.246 139.621 106.665 143.157C110.938 143.484 115.364 143.656 119.903 143.656C124.441 143.656 128.867 143.484 133.139 143.157C135.558 139.621 137.921 135.873 140.19 131.943C142.459 128.013 144.523 124.093 146.376 120.23ZM139.562 142.536C141.255 139.929 142.912 137.228 144.52 134.443C146.128 131.658 147.639 128.873 149.05 126.103C151.12 130.906 152.847 135.584 154.219 140.043C149.671 141.085 144.757 141.928 139.562 142.536ZM129.39 148.409C126.286 148.572 123.118 148.656 119.903 148.656C116.687 148.656 113.519 148.572 110.414 148.409C113.539 152.604 116.726 156.438 119.902 159.856C123.078 156.438 126.265 152.604 129.39 148.409ZM123.39 163.448C127.62 158.915 131.84 153.704 135.902 147.943C142.923 147.305 149.545 146.256 155.586 144.86C156.323 147.707 156.901 150.443 157.317 153.041C158.329 159.358 158.361 164.726 157.48 168.845C156.599 172.965 154.877 175.557 152.603 176.87C150.329 178.183 147.223 178.378 143.215 177.082C139.207 175.785 134.574 173.073 129.609 169.038C127.567 167.378 125.487 165.509 123.39 163.448ZM116.414 163.448C112.184 158.915 107.964 153.704 103.902 147.943C96.8814 147.305 90.2591 146.256 84.2184 144.859C83.4814 147.706 82.9031 150.442 82.4868 153.041C81.4746 159.358 81.4428 164.726 82.3239 168.845C83.205 172.965 84.9268 175.557 87.2008 176.87C89.4749 178.183 92.581 178.378 96.5891 177.081C100.597 175.785 105.23 173.073 110.195 169.038C112.237 167.378 114.317 165.509 116.414 163.448ZM85.5847 140.043C90.1326 141.084 95.0469 141.927 100.242 142.536C98.5485 139.929 96.8918 137.228 95.2839 134.443C93.676 131.658 92.1652 128.873 90.7543 126.103C88.6839 130.906 86.9567 135.584 85.5847 140.043ZM90.7543 114.358C92.1652 111.587 93.6761 108.802 95.2841 106.016C96.892 103.232 98.5486 100.531 100.242 97.9236C95.0469 98.5325 90.1325 99.3754 85.5845 100.417C86.9566 104.876 88.6838 109.554 90.7543 114.358ZM87.9018 120.23C84.9439 126.629 82.5414 132.888 80.7305 138.818C77.8967 138.033 75.2382 137.166 72.78 136.227C66.8029 133.945 62.1381 131.289 59.0113 128.466C55.8843 125.643 54.5 122.856 54.5 120.23C54.5 117.604 55.8843 114.817 59.0113 111.994C62.1381 109.171 66.8029 106.515 72.78 104.233C75.2382 103.294 77.8966 102.427 80.7304 101.642C82.5413 107.572 84.9438 113.831 87.9018 120.23ZM110.414 92.0511C113.519 91.8877 116.687 91.8034 119.903 91.8034C123.118 91.8034 126.286 91.8876 129.39 92.051C126.265 87.856 123.078 84.0215 119.902 80.6036C116.726 84.0215 113.539 87.856 110.414 92.0511Z" fill="#61DAFB"/>
</svg>
