<svg width="200" height="200" viewBox="0 0 200 200" fill="none" xmlns="http://www.w3.org/2000/svg">
<path d="M99.9188 110.737C105.743 110.737 110.464 106.016 110.464 100.192C110.464 94.3675 105.743 89.6461 99.9188 89.6461C94.0947 89.6461 89.3734 94.3675 89.3734 100.192C89.3734 106.016 94.0947 110.737 99.9188 110.737Z" fill="#61DAFB"/>
<path fill-rule="evenodd" clip-rule="evenodd" d="M126.961 53.3519C128.719 54.3665 130.107 56.4006 130.826 59.7656C131.546 63.1303 131.525 67.548 130.687 72.7831C130.361 74.8155 129.915 76.9507 129.352 79.17C124.46 78.0594 119.124 77.2203 113.481 76.6999C110.209 72.073 106.814 67.8715 103.407 64.1906C105.047 62.5931 106.673 61.1396 108.271 59.8413C112.385 56.4974 116.201 54.2706 119.474 53.2116C122.748 52.1524 125.204 52.3373 126.961 53.3519ZM96.43 64.1906C94.7897 62.5932 93.1634 61.1397 91.5661 59.8416C87.4517 56.4976 83.6363 54.2709 80.3625 53.2118C77.0885 52.1526 74.6329 52.3375 72.8756 53.3521C71.1182 54.3667 69.7303 56.4009 69.0105 59.7659C68.2909 63.1306 68.3116 67.5482 69.1503 72.7833C69.4759 74.8157 69.9215 76.951 70.4847 79.1702C75.3763 78.0596 80.7123 77.2204 86.3555 76.7C89.6277 72.0731 93.0224 67.8715 96.43 64.1906ZM99.9183 60.6084C98.1741 58.9099 96.4363 57.3567 94.7196 55.9614C90.328 52.3922 85.9683 49.7702 81.9015 48.4546C77.8352 47.1391 73.785 47.0535 70.3756 49.022C66.9661 50.9905 65.0151 54.5407 64.1211 58.7201C63.2271 62.8998 63.318 67.9864 64.2133 73.5743C64.5632 75.7587 65.0395 78.0403 65.6383 80.4001C63.2955 81.0613 61.0816 81.7896 59.0151 82.5786C53.7282 84.5973 49.2776 87.0619 46.1049 89.926C42.9325 92.7898 40.8333 96.2546 40.8333 100.192C40.8333 104.128 42.9325 107.593 46.1049 110.457C49.2776 113.321 53.7282 115.786 59.0151 117.804C61.0816 118.593 63.2956 119.322 65.6384 119.983C65.0396 122.343 64.5633 124.624 64.2134 126.809C63.3181 132.397 63.2273 137.483 64.1213 141.663C65.0152 145.842 66.9662 149.393 70.3757 151.361C73.7852 153.329 77.8353 153.244 81.9017 151.928C85.9684 150.613 90.3282 147.991 94.7198 144.422C96.4364 143.026 98.1742 141.473 99.9183 139.775C101.663 141.473 103.4 143.027 105.117 144.422C109.509 147.991 113.868 150.613 117.935 151.929C122.002 153.244 126.052 153.33 129.461 151.361C132.871 149.393 134.822 145.842 135.716 141.663C136.61 137.483 136.519 132.397 135.623 126.809C135.273 124.625 134.797 122.343 134.198 119.983C136.542 119.322 138.756 118.594 140.823 117.804C146.11 115.786 150.56 113.321 153.733 110.457C156.905 107.593 159.004 104.128 159.004 100.192C159.004 96.2546 156.905 92.7898 153.733 89.926C150.56 87.0619 146.11 84.5973 140.823 82.5786C138.756 81.7895 136.542 81.0611 134.198 80.3998C134.797 78.04 135.274 75.7584 135.624 73.5741C136.519 67.9862 136.61 62.8995 135.716 58.7198C134.822 54.5405 132.871 50.9902 129.461 49.0218C126.052 47.0533 122.002 47.1388 117.935 48.4543C113.869 49.7699 109.509 52.392 105.117 55.9612C103.4 57.3565 101.663 58.9098 99.9183 60.6084ZM127.985 83.9872C124.593 83.2267 120.959 82.5981 117.133 82.1228C118.381 84.0695 119.604 86.0768 120.794 88.1389C121.985 90.2009 123.112 92.2635 124.173 94.3177C125.675 90.7667 126.948 87.3051 127.985 83.9872ZM127.044 100.192C129.415 95.0442 131.356 90.0035 132.84 85.2118C135.044 85.8337 137.116 86.5155 139.039 87.2497C143.992 89.1409 147.828 91.3318 150.383 93.6374C152.937 95.9433 154.004 98.1623 154.004 100.192C154.004 102.221 152.937 104.44 150.383 106.746C147.828 109.051 143.992 111.242 139.039 113.133C137.116 113.868 135.044 114.549 132.84 115.171C131.356 110.38 129.415 105.339 127.044 100.192ZM121.518 100.192C120.001 97.0406 118.315 93.8446 116.464 90.6389C114.613 87.4332 112.688 84.375 110.718 81.486C107.231 81.224 103.62 81.0861 99.9189 81.0861C96.2171 81.0861 92.6061 81.2241 89.1187 81.4861C87.1483 84.375 85.2234 87.4331 83.3727 90.6387C81.5219 93.8444 79.8359 97.0405 78.3191 100.192C79.8358 103.343 81.5218 106.539 83.3726 109.744C85.2233 112.95 87.1482 116.008 89.1186 118.897C92.606 119.159 96.2171 119.297 99.9189 119.297C103.62 119.297 107.231 119.159 110.718 118.897C112.688 116.008 114.613 112.95 116.464 109.744C118.315 106.539 120.001 103.343 121.518 100.192ZM117.133 118.26C118.381 116.313 119.604 114.306 120.794 112.244C121.985 110.182 123.112 108.12 124.173 106.066C125.675 109.617 126.948 113.078 127.985 116.396C124.593 117.156 120.959 117.785 117.133 118.26ZM106.959 124.134C104.649 124.242 102.3 124.297 99.9189 124.297C97.5377 124.297 95.1878 124.242 92.8776 124.134C95.2022 127.21 97.5636 130.043 99.9183 132.6C102.273 130.043 104.634 127.21 106.959 124.134ZM103.407 136.193C106.814 132.512 110.209 128.31 113.481 123.683C119.124 123.163 124.46 122.324 129.352 121.213C129.915 123.432 130.361 125.567 130.686 127.6C131.525 132.835 131.546 137.253 130.826 140.617C130.106 143.982 128.718 146.016 126.961 147.031C125.204 148.046 122.748 148.231 119.474 147.171C116.2 146.112 112.385 143.886 108.271 140.542C106.673 139.243 105.047 137.79 103.407 136.193ZM96.4301 136.193C93.0224 132.512 89.6277 128.31 86.3554 123.683C80.7122 123.163 75.3764 122.323 70.4848 121.213C69.9216 123.432 69.476 125.567 69.1504 127.6C68.3117 132.835 68.291 137.252 69.0107 140.617C69.7304 143.982 71.1183 146.016 72.8757 147.031C74.6331 148.045 77.0886 148.23 80.3627 147.171C83.6364 146.112 87.4519 143.885 91.5662 140.541C93.1635 139.243 94.7898 137.79 96.4301 136.193ZM71.852 116.396C75.2438 117.156 78.8779 117.785 82.7037 118.26C81.4556 116.313 80.2329 114.306 79.0425 112.244C77.852 110.182 76.725 108.12 75.6632 106.066C74.1619 109.616 72.8893 113.078 71.852 116.396ZM75.6632 94.3177C76.725 92.2633 77.852 90.2007 79.0426 88.1387C80.233 86.0767 81.4557 84.0696 82.7038 82.123C78.8779 82.5983 75.2438 83.2269 71.8519 83.9874C72.8892 87.3052 74.1619 90.7667 75.6632 94.3177ZM72.7926 100.192C70.4218 105.339 68.4805 110.379 66.9966 115.171C64.7932 114.549 62.7214 113.867 60.7986 113.133C55.8455 111.242 52.0094 109.051 49.4553 106.746C46.901 104.44 45.8333 102.221 45.8333 100.192C45.8333 98.1623 46.901 95.9433 49.4553 93.6374C52.0094 91.3318 55.8455 89.1409 60.7986 87.2497C62.7214 86.5156 64.7931 85.8339 66.9965 85.2121C68.4804 90.0037 70.4217 95.0443 72.7926 100.192ZM92.8777 76.249C95.1879 76.1414 97.5377 76.0861 99.9189 76.0861C102.3 76.0861 104.649 76.1414 106.959 76.249C104.634 73.1733 102.273 70.3404 99.9183 67.7832C97.5637 70.3404 95.2023 73.1734 92.8777 76.249Z" fill="#61DAFB"/>
</svg>
