<svg width="240" height="240" viewBox="0 0 240 240" fill="none" xmlns="http://www.w3.org/2000/svg">
<path d="M119.005 174.209C118.416 174.2 117.84 174.036 117.335 173.732L112.043 170.589C111.248 170.151 111.646 169.992 111.884 169.913C112.724 169.644 113.526 169.269 114.271 168.799C114.335 168.77 114.406 168.758 114.476 168.765C114.545 168.772 114.612 168.797 114.669 168.839L118.727 171.226C118.806 171.271 118.895 171.295 118.986 171.295C119.076 171.295 119.166 171.271 119.244 171.226L135.157 162.076C135.218 162.028 135.267 161.968 135.302 161.899C135.336 161.83 135.355 161.755 135.356 161.678V143.298C135.35 143.218 135.325 143.14 135.284 143.071C135.243 143.002 135.186 142.943 135.118 142.9L119.204 133.75C119.137 133.715 119.062 133.697 118.986 133.697C118.909 133.697 118.834 133.715 118.767 133.75L102.854 142.9C102.786 142.943 102.729 143.002 102.687 143.071C102.646 143.14 102.621 143.218 102.615 143.298V161.638C102.611 161.726 102.63 161.813 102.673 161.89C102.715 161.968 102.777 162.032 102.854 162.076L107.23 164.582C109.617 165.775 111.049 164.383 111.049 162.991V144.889C111.043 144.829 111.051 144.767 111.07 144.71C111.09 144.652 111.121 144.599 111.162 144.554C111.203 144.509 111.253 144.473 111.309 144.449C111.365 144.424 111.426 144.412 111.487 144.412H113.476C113.54 144.406 113.605 144.414 113.665 144.436C113.726 144.457 113.781 144.492 113.827 144.538C113.872 144.584 113.907 144.639 113.929 144.7C113.951 144.76 113.959 144.825 113.953 144.889V162.991C113.953 166.173 112.242 167.963 109.259 167.963C108.344 167.963 107.628 167.963 105.599 166.969L101.421 164.582C100.915 164.285 100.494 163.861 100.201 163.351C99.908 162.842 99.7528 162.265 99.7505 161.678V143.338C99.7488 142.749 99.9023 142.171 100.196 141.661C100.489 141.151 100.912 140.728 101.421 140.434L117.335 131.244C117.843 130.972 118.41 130.83 118.986 130.83C119.562 130.83 120.129 130.972 120.637 131.244L136.55 140.394C137.065 140.691 137.492 141.121 137.786 141.639C138.079 142.156 138.229 142.743 138.221 143.338V161.638C138.223 162.222 138.073 162.796 137.787 163.305C137.502 163.814 137.089 164.24 136.59 164.542L120.676 173.732C120.167 174.022 119.591 174.173 119.005 174.17V174.209Z" fill="#679E63"/>
<path d="M123.899 161.558C116.937 161.558 115.465 158.376 115.465 155.67C115.465 155.609 115.477 155.549 115.501 155.493C115.526 155.437 115.562 155.387 115.607 155.346C115.652 155.305 115.705 155.273 115.762 155.254C115.82 155.234 115.881 155.227 115.942 155.233H118.011C118.12 155.232 118.226 155.273 118.307 155.347C118.388 155.42 118.439 155.522 118.449 155.631C118.767 157.699 119.682 158.773 123.899 158.773C127.241 158.773 128.673 157.978 128.673 156.227C128.673 155.193 128.275 154.437 123.063 153.92C118.687 153.522 116.022 152.528 116.022 149.066C116.022 145.884 118.727 143.934 123.262 143.934C128.354 143.934 130.861 145.725 131.219 149.504C131.229 149.578 131.219 149.654 131.191 149.724C131.163 149.793 131.118 149.855 131.06 149.902C130.972 149.979 130.859 150.022 130.741 150.021H128.673C128.563 150.022 128.458 149.981 128.377 149.907C128.296 149.834 128.245 149.732 128.235 149.623C127.718 147.435 126.524 146.759 123.262 146.759C119.602 146.759 119.165 148.032 119.165 148.987C119.165 150.141 119.682 150.459 124.615 151.135C129.548 151.811 131.816 152.687 131.816 156.108C131.816 159.529 128.951 161.558 123.859 161.558H123.899ZM146.814 142.303C146.814 142.909 146.634 143.501 146.298 144.005C145.961 144.509 145.483 144.902 144.923 145.133C144.363 145.365 143.747 145.426 143.153 145.308C142.559 145.19 142.013 144.898 141.584 144.469C141.156 144.041 140.864 143.495 140.746 142.901C140.628 142.307 140.689 141.691 140.92 141.131C141.152 140.571 141.545 140.093 142.049 139.756C142.552 139.42 143.145 139.24 143.751 139.24C144.563 139.24 145.342 139.563 145.917 140.137C146.491 140.712 146.814 141.491 146.814 142.303V142.303ZM141.165 142.303C141.157 142.816 141.302 143.32 141.581 143.751C141.86 144.181 142.261 144.519 142.733 144.721C143.205 144.922 143.726 144.979 144.23 144.884C144.734 144.789 145.199 144.546 145.564 144.186C145.93 143.826 146.18 143.365 146.283 142.862C146.386 142.36 146.338 141.838 146.143 141.363C145.949 140.888 145.617 140.482 145.191 140.196C144.765 139.91 144.264 139.757 143.751 139.757C143.072 139.757 142.42 140.024 141.936 140.5C141.452 140.977 141.175 141.624 141.165 142.303V142.303ZM142.597 140.593H143.79C144.188 140.593 144.984 140.593 144.984 141.508C144.997 141.7 144.94 141.892 144.823 142.045C144.706 142.199 144.537 142.305 144.347 142.343C144.785 142.343 144.825 142.701 144.904 143.139C144.915 143.45 144.968 143.757 145.063 144.054H144.347L144.228 142.98C144.188 142.781 144.109 142.661 143.83 142.661H143.273V144.054H142.597V140.593ZM143.233 142.104H143.79C143.856 142.11 143.923 142.102 143.985 142.08C144.048 142.059 144.105 142.024 144.154 141.979C144.203 141.935 144.241 141.88 144.268 141.819C144.294 141.759 144.308 141.693 144.307 141.627C144.307 141.15 143.989 141.15 143.79 141.15H143.233V142.104Z" fill="#679E63"/>
<path fill-rule="evenodd" clip-rule="evenodd" d="M69.7939 102.401C69.7908 102.044 69.6935 101.694 69.5118 101.387C69.3302 101.08 69.0707 100.826 68.7596 100.651L51.8916 90.9435C51.6097 90.793 51.2961 90.7112 50.9766 90.7048H50.7777C50.4583 90.7127 50.1452 90.7944 49.8627 90.9435L33.0345 100.651C32.7174 100.829 32.4541 101.089 32.2722 101.404C32.0902 101.719 31.9962 102.077 32.0001 102.441V128.538C32.0034 128.721 32.0572 128.9 32.1554 129.054C32.2537 129.209 32.3927 129.333 32.5571 129.414C32.7083 129.501 32.8798 129.547 33.0544 129.547C33.2289 129.547 33.4005 129.501 33.5517 129.414L43.577 123.685C43.8912 123.503 44.1523 123.243 44.3338 122.928C44.5154 122.614 44.6111 122.258 44.6113 121.895V109.761C44.6105 109.408 44.7017 109.061 44.8762 108.754C45.0506 108.447 45.3021 108.19 45.6059 108.01L49.9025 105.504C50.2044 105.327 50.547 105.231 50.897 105.226C51.2608 105.222 51.6185 105.318 51.9314 105.504L56.1882 107.971C56.4919 108.151 56.7434 108.407 56.9179 108.714C57.0923 109.021 57.1836 109.368 57.1827 109.721V121.895C57.187 122.262 57.2887 122.621 57.4774 122.935C57.6662 123.25 57.9352 123.509 58.2569 123.685L68.2026 129.414C68.3584 129.509 68.5374 129.559 68.7198 129.559C68.9022 129.559 69.0811 129.509 69.237 129.414C69.3912 129.325 69.5199 129.197 69.6105 129.044C69.7011 128.891 69.7506 128.717 69.7542 128.538L69.7939 102.401ZM150.832 66.5168C150.674 66.4349 150.498 66.3948 150.321 66.4006C150.144 66.4063 149.971 66.4576 149.819 66.5495C149.667 66.6414 149.541 66.7708 149.454 66.9254C149.367 67.0799 149.321 67.2543 149.32 67.4318V93.2907C149.312 93.4164 149.271 93.5377 149.201 93.6425C149.131 93.7473 149.035 93.8318 148.922 93.8875C148.818 93.9432 148.702 93.9723 148.584 93.9723C148.466 93.9723 148.35 93.9432 148.246 93.8875L144.029 91.4607C143.725 91.2899 143.383 91.2002 143.034 91.2002C142.686 91.2002 142.343 91.2899 142.04 91.4607L125.092 101.208C124.786 101.384 124.532 101.64 124.357 101.948C124.182 102.255 124.093 102.604 124.098 102.958V122.412C124.101 122.769 124.198 123.119 124.38 123.426C124.561 123.733 124.821 123.987 125.132 124.162L141.96 133.909C142.269 134.087 142.619 134.181 142.975 134.181C143.331 134.181 143.681 134.087 143.989 133.909L160.857 124.162C161.168 123.987 161.428 123.733 161.609 123.426C161.791 123.119 161.888 122.769 161.892 122.412V73.8766C161.884 73.5157 161.781 73.1632 161.592 72.8555C161.403 72.5478 161.136 72.296 160.817 72.1262L150.832 66.5168ZM149.241 116.007C149.241 116.094 149.219 116.18 149.177 116.256C149.136 116.333 149.075 116.397 149.002 116.444L143.233 119.786C143.155 119.832 143.065 119.855 142.975 119.855C142.884 119.855 142.795 119.832 142.716 119.786L136.948 116.444C136.872 116.406 136.807 116.35 136.759 116.28C136.71 116.211 136.679 116.131 136.669 116.047V109.323C136.675 109.243 136.7 109.165 136.741 109.096C136.783 109.027 136.84 108.969 136.908 108.925L142.716 105.544C142.795 105.498 142.884 105.475 142.975 105.475C143.065 105.475 143.155 105.498 143.233 105.544L149.002 108.886C149.083 108.928 149.151 108.99 149.2 109.067C149.249 109.144 149.277 109.232 149.28 109.323L149.241 116.007ZM206.966 109.164C207.277 108.989 207.536 108.735 207.718 108.428C207.899 108.12 207.997 107.771 208 107.414V102.68C207.997 102.323 207.899 101.973 207.718 101.665C207.536 101.358 207.277 101.104 206.966 100.929L190.217 91.1822C189.909 91.0042 189.559 90.9104 189.203 90.9104C188.846 90.9104 188.496 91.0042 188.188 91.1822L171.32 100.929C171.014 101.106 170.76 101.361 170.585 101.669C170.41 101.977 170.321 102.326 170.326 102.68V122.173C170.329 122.53 170.426 122.88 170.608 123.187C170.789 123.495 171.049 123.749 171.36 123.924L188.069 133.472C188.372 133.642 188.715 133.732 189.063 133.732C189.412 133.732 189.754 133.642 190.058 133.472L200.203 127.822C200.359 127.731 200.49 127.601 200.58 127.444C200.671 127.287 200.719 127.109 200.719 126.927C200.719 126.746 200.671 126.568 200.58 126.411C200.49 126.254 200.359 126.123 200.203 126.032L183.255 116.325C183.101 116.236 182.972 116.109 182.881 115.955C182.791 115.802 182.741 115.628 182.738 115.45V109.363C182.737 109.184 182.785 109.008 182.876 108.854C182.967 108.7 183.098 108.574 183.255 108.488L188.546 105.425C188.697 105.337 188.869 105.291 189.043 105.291C189.218 105.291 189.389 105.337 189.541 105.425L194.832 108.488C194.989 108.574 195.12 108.7 195.211 108.854C195.302 109.008 195.349 109.184 195.349 109.363V114.137C195.344 114.316 195.388 114.492 195.475 114.648C195.562 114.804 195.69 114.934 195.845 115.024C196 115.113 196.176 115.159 196.354 115.157C196.533 115.155 196.708 115.105 196.861 115.012L206.966 109.164Z" fill="white"/>
<path fill-rule="evenodd" clip-rule="evenodd" d="M188.944 108.249C189.004 108.214 189.073 108.196 189.143 108.196C189.213 108.196 189.281 108.214 189.342 108.249L192.604 110.119C192.661 110.151 192.709 110.198 192.743 110.253C192.778 110.309 192.798 110.372 192.803 110.437V114.177C192.805 114.249 192.788 114.32 192.753 114.383C192.718 114.446 192.666 114.499 192.604 114.535L189.382 116.405C189.321 116.44 189.252 116.458 189.183 116.458C189.113 116.458 189.044 116.44 188.984 116.405L185.722 114.535C185.666 114.494 185.623 114.439 185.595 114.377C185.567 114.314 185.556 114.245 185.562 114.177V110.437C185.562 110.375 185.577 110.314 185.604 110.259C185.632 110.204 185.672 110.156 185.722 110.119L188.944 108.249Z" fill="#679E63"/>
<path fill-rule="evenodd" clip-rule="evenodd" d="M97.9605 90.9605C97.6581 90.7859 97.3151 90.694 96.9659 90.694C96.6167 90.694 96.2737 90.7859 95.9713 90.9605L79.1431 100.668C78.8366 100.844 78.5829 101.1 78.408 101.408C78.2332 101.715 78.1436 102.064 78.1486 102.418V121.752C78.1436 122.106 78.2332 122.455 78.408 122.763C78.5829 123.071 78.8366 123.326 79.1431 123.503L95.8918 133.17C96.1942 133.345 96.5372 133.437 96.8863 133.437C97.2355 133.437 97.5785 133.345 97.8809 133.17L114.669 123.503C114.983 123.331 115.245 123.078 115.427 122.77C115.609 122.462 115.705 122.11 115.704 121.752V102.378C115.705 102.02 115.609 101.669 115.427 101.361C115.245 101.053 114.983 100.799 114.669 100.628L97.9605 90.9605Z" fill="url(#paint0_linear)"/>
<path d="M115.007 100.949L98.2064 91.1576C98.044 91.0666 97.8695 90.9986 97.6881 90.9556L78.4468 122.925C78.6061 123.112 78.7937 123.274 79.003 123.404L95.8843 133.157C96.3559 133.426 96.9153 133.502 97.4424 133.367L115.433 101.435C115.29 101.296 115.209 101.137 115.035 101.038L115.007 100.949Z" fill="url(#paint1_linear)"/>
<path d="M114.943 123.506C115.184 123.37 115.396 123.187 115.567 122.969C115.737 122.75 115.635 122.183 115.709 121.916L97.5176 90.725C97.027 90.6289 96.4836 90.6274 96.0507 90.8774C95.6178 91.1273 79.4164 100.591 79.4164 100.591L97.438 133.452C97.7058 133.41 97.9626 133.315 98.1939 133.173L114.943 123.506Z" fill="url(#paint2_linear)"/>
<defs>
<linearGradient id="paint0_linear" x1="103.769" y1="98.1612" x2="88.6115" y2="129.073" gradientUnits="userSpaceOnUse">
<stop stop-color="#3F873F"/>
<stop offset="0.3" stop-color="#3F8B3D"/>
<stop offset="0.6" stop-color="#3E9637"/>
<stop offset="0.9" stop-color="#3DA92E"/>
<stop offset="1" stop-color="#3DAE2B"/>
</linearGradient>
<linearGradient id="paint1_linear" x1="94.4689" y1="114.375" x2="131.461" y2="84.7704" gradientUnits="userSpaceOnUse">
<stop offset="0.1" stop-color="#3F873F"/>
<stop offset="0.4" stop-color="#529F44"/>
<stop offset="0.7" stop-color="#63B649"/>
<stop offset="0.9" stop-color="#6ABF4B"/>
</linearGradient>
<linearGradient id="paint2_linear" x1="116.812" y1="116.346" x2="77.6261" y2="94.4658" gradientUnits="userSpaceOnUse">
<stop stop-color="#3F883F"/>
<stop offset="0.647001" stop-color="#58A746"/>
<stop offset="1" stop-color="#65B84A"/>
</linearGradient>
</defs>
</svg>
