<svg width="200" height="200" viewBox="0 0 200 200" fill="none" xmlns="http://www.w3.org/2000/svg">
<path d="M99.1712 145.175C98.6801 145.167 98.1998 145.03 97.7788 144.777L93.3695 142.158C92.7065 141.793 93.038 141.66 93.2369 141.594C93.9364 141.37 94.6048 141.058 95.2261 140.666C95.2794 140.642 95.3381 140.632 95.3963 140.638C95.4545 140.643 95.5102 140.665 95.5576 140.699L98.9392 142.688C99.0047 142.726 99.079 142.746 99.1547 142.746C99.2303 142.746 99.3046 142.726 99.3701 142.688L112.631 135.063C112.682 135.024 112.723 134.973 112.751 134.916C112.78 134.859 112.796 134.796 112.797 134.731V119.415C112.792 119.348 112.771 119.283 112.737 119.226C112.702 119.168 112.655 119.119 112.598 119.083L99.337 111.458C99.2806 111.429 99.2181 111.414 99.1547 111.414C99.0912 111.414 99.0287 111.429 98.9723 111.458L85.7113 119.083C85.6547 119.119 85.6071 119.168 85.5726 119.226C85.5381 119.283 85.5175 119.348 85.5124 119.415V134.698C85.5088 134.772 85.5254 134.844 85.5605 134.909C85.5956 134.973 85.6478 135.026 85.7113 135.063L89.3581 137.152C91.3473 138.146 92.5407 136.986 92.5407 135.825V120.741C92.5361 120.691 92.5421 120.64 92.5584 120.591C92.5746 120.543 92.6007 120.499 92.6351 120.462C92.6694 120.424 92.7112 120.394 92.7578 120.374C92.8043 120.353 92.8546 120.343 92.9054 120.343H94.563C94.6166 120.338 94.6706 120.345 94.7212 120.363C94.7718 120.381 94.8177 120.41 94.8557 120.448C94.8937 120.486 94.9229 120.532 94.9411 120.583C94.9592 120.634 94.966 120.688 94.9609 120.741V135.825C94.9609 138.478 93.5353 139.97 91.0489 139.97C90.2864 139.97 89.6896 139.97 87.9989 139.141L84.5178 137.152C84.0955 136.904 83.745 136.55 83.5008 136.126C83.2567 135.702 83.1273 135.221 83.1254 134.731V119.448C83.124 118.958 83.2519 118.476 83.4964 118.051C83.7409 117.626 84.0933 117.273 84.5178 117.028L97.7788 109.37C98.2021 109.143 98.6747 109.025 99.1547 109.025C99.6346 109.025 100.107 109.143 100.53 109.37L113.791 116.995C114.221 117.243 114.576 117.601 114.821 118.032C115.066 118.463 115.191 118.952 115.184 119.448V134.698C115.185 135.185 115.061 135.663 114.823 136.087C114.585 136.511 114.241 136.867 113.825 137.118L100.564 144.777C100.139 145.018 99.6593 145.144 99.1712 145.141V145.175Z" fill="#679E63"/>
<path d="M103.249 134.632C97.4473 134.632 96.2207 131.98 96.2207 129.725C96.2205 129.674 96.2309 129.624 96.2512 129.578C96.2716 129.531 96.3015 129.489 96.3389 129.455C96.3764 129.421 96.4206 129.394 96.4687 129.378C96.5169 129.362 96.5679 129.356 96.6185 129.361H98.3424C98.4337 129.36 98.5217 129.394 98.5893 129.455C98.6568 129.517 98.6988 129.601 98.7071 129.692C98.9723 131.416 99.7348 132.311 103.249 132.311C106.034 132.311 107.227 131.648 107.227 130.189C107.227 129.327 106.896 128.698 102.553 128.267C98.906 127.935 96.6848 127.106 96.6848 124.222C96.6848 121.57 98.9392 119.945 102.719 119.945C106.962 119.945 109.051 121.437 109.349 124.587C109.357 124.649 109.349 124.712 109.326 124.77C109.303 124.828 109.265 124.879 109.216 124.918C109.143 124.983 109.049 125.018 108.951 125.018H107.227C107.136 125.018 107.048 124.984 106.98 124.923C106.913 124.861 106.871 124.777 106.863 124.686C106.432 122.863 105.437 122.299 102.719 122.299C99.6685 122.299 99.3039 123.36 99.3039 124.156C99.3039 125.117 99.7348 125.382 103.846 125.946C107.957 126.51 109.846 127.239 109.846 130.09C109.846 132.941 107.459 134.632 103.216 134.632H103.249ZM122.345 118.586C122.345 119.091 122.195 119.584 121.915 120.004C121.634 120.424 121.235 120.751 120.769 120.944C120.303 121.138 119.789 121.188 119.294 121.09C118.799 120.991 118.344 120.748 117.987 120.391C117.63 120.034 117.387 119.579 117.288 119.084C117.19 118.589 117.24 118.076 117.434 117.609C117.627 117.143 117.954 116.744 118.374 116.464C118.794 116.183 119.287 116.033 119.792 116.033C120.469 116.033 121.118 116.302 121.597 116.781C122.076 117.26 122.345 117.909 122.345 118.586V118.586ZM117.637 118.586C117.631 119.014 117.751 119.433 117.984 119.792C118.217 120.151 118.551 120.432 118.944 120.6C119.337 120.769 119.772 120.816 120.192 120.737C120.612 120.657 120.999 120.455 121.304 120.155C121.608 119.855 121.817 119.471 121.903 119.052C121.989 118.633 121.948 118.198 121.786 117.802C121.624 117.407 121.348 117.068 120.993 116.83C120.638 116.592 120.22 116.464 119.792 116.464C119.226 116.464 118.683 116.687 118.28 117.084C117.877 117.481 117.646 118.02 117.637 118.586V118.586ZM118.831 117.161H119.825C120.157 117.161 120.82 117.161 120.82 117.923C120.831 118.084 120.783 118.243 120.686 118.371C120.588 118.499 120.447 118.587 120.289 118.619C120.654 118.619 120.687 118.918 120.754 119.282C120.762 119.541 120.807 119.798 120.886 120.045H120.289L120.19 119.15C120.157 118.984 120.09 118.884 119.858 118.884H119.394V120.045H118.831V117.161ZM119.361 118.42H119.825C119.88 118.425 119.936 118.418 119.988 118.4C120.04 118.382 120.088 118.354 120.128 118.316C120.169 118.279 120.201 118.233 120.223 118.183C120.245 118.132 120.256 118.078 120.256 118.022C120.256 117.625 119.991 117.625 119.825 117.625H119.361V118.42Z" fill="#679E63"/>
<path fill-rule="evenodd" clip-rule="evenodd" d="M58.1616 85.3342C58.159 85.0367 58.0779 84.7452 57.9265 84.4891C57.7752 84.233 57.559 84.0213 57.2997 83.8755L43.243 75.7863C43.0081 75.6609 42.7468 75.5927 42.4805 75.5874H42.3147C42.0486 75.5939 41.7876 75.662 41.5522 75.7863L27.5287 83.8755C27.2645 84.0241 27.0451 84.2409 26.8935 84.5034C26.7418 84.7659 26.6635 85.0643 26.6668 85.3674V107.115C26.6695 107.268 26.7143 107.417 26.7962 107.545C26.8781 107.674 26.9939 107.778 27.1309 107.845C27.2569 107.917 27.3998 107.956 27.5453 107.956C27.6908 107.956 27.8337 107.917 27.9597 107.845L36.3141 103.071C36.576 102.92 36.7936 102.702 36.9449 102.44C37.0962 102.178 37.1759 101.881 37.1761 101.579V91.4674C37.1754 91.1732 37.2515 90.8838 37.3968 90.628C37.5422 90.3722 37.7518 90.1587 38.0049 90.0087L41.5854 87.9201C41.837 87.7726 42.1225 87.6926 42.4142 87.688C42.7173 87.6851 43.0155 87.7654 43.2762 87.9201L46.8235 89.9756C47.0766 90.1256 47.2862 90.339 47.4316 90.5949C47.5769 90.8507 47.653 91.14 47.6523 91.4343V101.579C47.6558 101.885 47.7405 102.184 47.8978 102.446C48.0551 102.708 48.2793 102.924 48.5474 103.071L56.8355 107.845C56.9654 107.924 57.1145 107.966 57.2665 107.966C57.4185 107.966 57.5676 107.924 57.6975 107.845C57.826 107.771 57.9333 107.664 58.0088 107.537C58.0843 107.409 58.1255 107.264 58.1285 107.115L58.1616 85.3342ZM125.693 55.4307C125.562 55.3624 125.415 55.329 125.268 55.3338C125.12 55.3386 124.976 55.3813 124.849 55.4579C124.723 55.5345 124.618 55.6424 124.545 55.7712C124.472 55.8999 124.434 56.0453 124.433 56.1932V77.7423C124.427 77.847 124.393 77.9481 124.334 78.0354C124.276 78.1227 124.196 78.1932 124.102 78.2396C124.015 78.286 123.918 78.3103 123.82 78.3103C123.722 78.3103 123.625 78.286 123.538 78.2396L120.024 76.2173C119.771 76.075 119.486 76.0002 119.195 76.0002C118.905 76.0002 118.62 76.075 118.367 76.2173L104.244 84.3396C103.988 84.4871 103.777 84.7 103.631 84.9564C103.485 85.2128 103.411 85.5035 103.415 85.7983V102.01C103.417 102.307 103.498 102.599 103.65 102.855C103.801 103.111 104.017 103.323 104.277 103.469L118.3 111.591C118.557 111.739 118.849 111.817 119.146 111.817C119.442 111.817 119.734 111.739 119.991 111.591L134.048 103.469C134.307 103.323 134.523 103.111 134.675 102.855C134.826 102.599 134.907 102.307 134.91 102.01V61.5639C134.904 61.2631 134.818 60.9693 134.66 60.7129C134.503 60.4565 134.28 60.2467 134.014 60.1052L125.693 55.4307ZM124.367 96.6724C124.367 96.745 124.349 96.8165 124.314 96.8802C124.28 96.944 124.229 96.9979 124.168 97.037L119.361 99.8218C119.296 99.8597 119.221 99.8796 119.146 99.8796C119.07 99.8796 118.996 99.8597 118.93 99.8218L114.123 97.037C114.06 97.005 114.006 96.958 113.966 96.9002C113.925 96.8424 113.9 96.7755 113.891 96.7055V91.1027C113.896 91.0358 113.917 90.971 113.951 90.9134C113.986 90.8559 114.033 90.8072 114.09 90.7712L118.93 87.9533C118.996 87.9154 119.07 87.8955 119.146 87.8955C119.221 87.8955 119.296 87.9154 119.361 87.9533L124.168 90.7381C124.236 90.773 124.293 90.8252 124.333 90.8892C124.374 90.9532 124.397 91.0269 124.4 91.1027L124.367 96.6724ZM172.471 90.9701C172.731 90.8243 172.947 90.6127 173.098 90.3565C173.25 90.1004 173.331 89.8089 173.333 89.5114V85.5663C173.331 85.2688 173.25 84.9773 173.098 84.7212C172.947 84.465 172.731 84.2534 172.471 84.1076L158.514 75.9852C158.257 75.8368 157.966 75.7587 157.669 75.7587C157.372 75.7587 157.08 75.8368 156.823 75.9852L142.767 84.1076C142.511 84.255 142.3 84.4679 142.154 84.7243C142.008 84.9807 141.934 85.2714 141.938 85.5663V101.811C141.941 102.108 142.022 102.4 142.173 102.656C142.324 102.912 142.541 103.124 142.8 103.27L156.724 111.226C156.977 111.369 157.262 111.443 157.553 111.443C157.843 111.443 158.128 111.369 158.382 111.226L166.835 106.519C166.966 106.443 167.075 106.334 167.15 106.203C167.226 106.072 167.265 105.924 167.265 105.773C167.265 105.622 167.226 105.473 167.15 105.342C167.075 105.211 166.966 105.103 166.835 105.027L152.712 96.9376C152.584 96.8634 152.477 96.7573 152.401 96.6295C152.326 96.5017 152.284 96.3566 152.281 96.2082V91.1359C152.281 90.9868 152.321 90.8404 152.397 90.712C152.473 90.5836 152.582 90.4781 152.712 90.4065L157.122 87.8538C157.248 87.7811 157.391 87.7428 157.536 87.7428C157.682 87.7428 157.825 87.7811 157.951 87.8538L162.36 90.4065C162.491 90.4781 162.6 90.5836 162.676 90.712C162.751 90.8404 162.791 90.9868 162.791 91.1359V95.1142C162.787 95.2631 162.823 95.4103 162.896 95.5404C162.969 95.6704 163.075 95.7784 163.204 95.8531C163.333 95.9277 163.48 95.9662 163.629 95.9645C163.778 95.9629 163.923 95.9211 164.051 95.8435L172.471 90.9701Z" fill="white"/>
<path fill-rule="evenodd" clip-rule="evenodd" d="M157.453 90.2076C157.504 90.1785 157.561 90.1632 157.619 90.1632C157.677 90.1632 157.734 90.1785 157.785 90.2076L160.503 91.7658C160.551 91.7929 160.591 91.8314 160.619 91.8776C160.648 91.9239 160.665 91.9766 160.669 92.031V95.1474C160.671 95.2074 160.657 95.267 160.628 95.3195C160.598 95.3721 160.555 95.4157 160.503 95.4457L157.818 97.0039C157.768 97.033 157.71 97.0483 157.652 97.0483C157.594 97.0483 157.537 97.033 157.486 97.0039L154.768 95.4457C154.722 95.4117 154.686 95.3663 154.662 95.314C154.639 95.2617 154.63 95.2043 154.635 95.1474V92.031C154.635 91.9795 154.647 91.9288 154.67 91.8828C154.693 91.8367 154.727 91.7967 154.768 91.7658L157.453 90.2076Z" fill="#679E63"/>
<path fill-rule="evenodd" clip-rule="evenodd" d="M81.6337 75.8004C81.3817 75.655 81.0959 75.5784 80.8049 75.5784C80.5139 75.5784 80.2281 75.655 79.9761 75.8004L65.9526 83.8897C65.6972 84.0371 65.4857 84.25 65.34 84.5064C65.1943 84.7628 65.1197 85.0535 65.1238 85.3484V101.46C65.1197 101.755 65.1943 102.046 65.34 102.302C65.4857 102.559 65.6972 102.772 65.9526 102.919L79.9098 110.975C80.1618 111.121 80.4476 111.197 80.7386 111.197C81.0296 111.197 81.3154 111.121 81.5674 110.975L95.5578 102.919C95.8194 102.776 96.0375 102.565 96.1892 102.308C96.3409 102.052 96.4205 101.759 96.4197 101.46V85.3152C96.4205 85.017 96.3409 84.7241 96.1892 84.4674C96.0375 84.2107 95.8194 83.9996 95.5578 83.8565L81.6337 75.8004Z" fill="url(#paint0_linear)"/>
<path d="M95.8396 84.1246L81.8387 75.9647C81.7033 75.8889 81.5579 75.8322 81.4067 75.7964L65.3723 102.437C65.5051 102.593 65.6614 102.728 65.8358 102.837L79.9036 110.964C80.2966 111.189 80.7627 111.252 81.202 111.139L96.1941 84.5296C96.0747 84.4135 96.0072 84.2812 95.8626 84.1981L95.8396 84.1246Z" fill="url(#paint1_linear)"/>
<path d="M95.7854 102.922C95.9866 102.808 96.1633 102.656 96.3055 102.474C96.4477 102.292 96.3625 101.819 96.4241 101.596L81.2647 75.6042C80.8559 75.5241 80.403 75.5228 80.0423 75.7311C79.6815 75.9395 66.1803 83.826 66.1803 83.826L81.1984 111.21C81.4215 111.175 81.6355 111.096 81.8283 110.978L95.7854 102.922Z" fill="url(#paint2_linear)"/>
<defs>
<linearGradient id="paint0_linear" x1="86.474" y1="81.8011" x2="73.8429" y2="107.561" gradientUnits="userSpaceOnUse">
<stop stop-color="#3F873F"/>
<stop offset="0.3" stop-color="#3F8B3D"/>
<stop offset="0.6" stop-color="#3E9637"/>
<stop offset="0.9" stop-color="#3DA92E"/>
<stop offset="1" stop-color="#3DAE2B"/>
</linearGradient>
<linearGradient id="paint1_linear" x1="78.7241" y1="95.3126" x2="109.55" y2="70.642" gradientUnits="userSpaceOnUse">
<stop offset="0.1" stop-color="#3F873F"/>
<stop offset="0.4" stop-color="#529F44"/>
<stop offset="0.7" stop-color="#63B649"/>
<stop offset="0.9" stop-color="#6ABF4B"/>
</linearGradient>
<linearGradient id="paint2_linear" x1="97.3436" y1="96.9554" x2="64.6884" y2="78.7215" gradientUnits="userSpaceOnUse">
<stop stop-color="#3F883F"/>
<stop offset="0.647001" stop-color="#58A746"/>
<stop offset="1" stop-color="#65B84A"/>
</linearGradient>
</defs>
</svg>
