<svg width="200" height="200" viewBox="0 0 200 200" fill="none" xmlns="http://www.w3.org/2000/svg">
<path d="M50.0261 125.54L64.5246 125.545L64.523 128.4C60.7302 128.4 56.9358 128.389 53.1414 128.405C52.8515 128.501 52.9883 128.864 52.9557 129.087L52.9671 136.766C53.0632 137.054 53.428 136.916 53.6527 136.951L63.3847 136.946V139.798C60.3589 139.796 57.3348 139.796 54.309 139.798C53.8596 139.796 53.4052 139.769 52.9606 139.845L52.9264 150.685C51.9509 150.645 50.9771 150.681 50.0016 150.66L50 126.001L50.0261 125.54V125.54ZM68.0406 125.545H71.0175L71.0191 142.606L70.9865 150.639C70.0176 150.621 69.0486 150.616 68.0813 150.642C68.0064 150.245 68.0373 149.841 68.0373 149.44L68.0406 125.545V125.545ZM97.1778 127.661L100.164 127.662L100.169 132.711C101.63 132.747 103.099 132.646 104.557 132.761C104.516 133.667 104.55 134.572 104.534 135.478C103.081 135.481 101.63 135.492 100.179 135.471L100.168 145.525C100.199 146.457 100.397 147.582 101.303 148.063C102.337 148.651 103.607 148.374 104.586 147.807V150.732C103.508 151.22 102.278 151.279 101.12 151.121C99.4886 150.872 97.9253 149.76 97.4318 148.142C97.1045 147.257 97.1794 146.301 97.1729 145.376L97.1664 135.583L97.0931 135.5C96.0623 135.445 95.0282 135.508 93.9957 135.473C94.0022 134.551 93.9599 133.629 94.0185 132.709C95.0673 132.691 96.1209 132.756 97.168 132.677L97.1778 127.661V127.661ZM109.795 127.651C110.789 127.685 111.782 127.64 112.774 127.674L112.842 127.749C112.88 129.406 112.792 131.069 112.881 132.724C114.297 132.698 115.712 132.719 117.125 132.711L117.135 135.456C115.712 135.51 114.284 135.478 112.86 135.469L112.844 145.698C112.842 146.589 113.1 147.642 113.961 148.081C115.018 148.657 116.3 148.361 117.282 147.771L117.278 150.712C116.231 151.184 115.051 151.276 113.92 151.145C112.453 150.95 111.017 150.121 110.328 148.778C109.996 148.074 109.81 147.296 109.779 146.519V135.481C108.748 135.479 107.719 135.484 106.69 135.481L106.696 132.701C107.711 132.729 108.726 132.693 109.74 132.727C109.848 131.04 109.732 129.341 109.795 127.651V127.651ZM124.292 132.805C126.354 131.95 128.733 131.934 130.839 132.65C133.251 133.483 135.117 135.587 135.801 138.028C136.249 139.381 136.231 140.819 136.167 142.226L121.991 142.241C122.109 143.75 122.56 145.289 123.608 146.423C125.099 148.16 127.663 148.805 129.829 148.123C131.349 147.675 132.534 146.506 133.314 145.162C134.177 145.548 135.016 145.988 135.876 146.384C134.7 148.624 132.562 150.404 130.049 150.886C127.986 151.272 125.729 151.282 123.836 150.263C121.381 149.043 119.69 146.56 119.208 143.889C118.858 141.837 118.967 139.666 119.739 137.718C120.548 135.58 122.185 133.729 124.292 132.805V132.805ZM125.414 135.38C123.68 136.181 122.563 137.961 122.214 139.798L133.086 139.764C132.914 138.564 132.487 137.344 131.608 136.476C130.067 134.825 127.434 134.502 125.414 135.38ZM142.621 135.616C143.756 132.859 147.243 131.411 150 132.566V135.784C148.842 135.328 147.544 135.046 146.321 135.406C144.65 135.903 143.414 137.393 142.94 139.033C142.615 140.14 142.737 141.296 142.75 142.431C142.623 143.9 142.813 145.371 142.717 146.84C142.795 148.108 142.649 149.377 142.756 150.647C141.743 150.696 140.731 150.644 139.719 150.678C139.661 146.849 139.711 143.019 139.695 139.189L139.718 132.742C140.667 132.768 141.618 132.738 142.569 132.761C142.655 133.712 142.463 134.668 142.621 135.616V135.616ZM75.2874 132.706C76.2971 132.748 77.3149 132.646 78.3197 132.76L78.3051 143.433C78.2953 144.737 78.4809 146.162 79.3831 147.175C80.5475 148.465 82.5196 148.701 84.1123 148.191C86.2408 147.429 87.726 145.175 87.6396 142.921L87.6722 132.706L90.7126 132.712L90.6947 150.634C89.7306 150.618 88.7682 150.634 87.8057 150.623L87.7943 148.072C87.1706 148.856 86.516 149.649 85.6219 150.142C83.7915 151.297 81.4692 151.45 79.4189 150.859C78.0966 150.46 76.9452 149.533 76.2824 148.322C75.4959 146.989 75.2972 145.415 75.2516 143.897L75.2874 132.706V132.706Z" fill="white"/>
<path d="M106.37 49.3565L127.326 49.3334L92.1679 84.4733L83.0051 93.5848L72.5799 83.1467L106.37 49.3565ZM106.175 80.7322C106.447 80.373 106.947 80.55 107.327 80.5039L127.308 80.509L109.098 98.7012L98.6186 88.2862L106.175 80.7322Z" fill="#44D1FD"/>
<path d="M88.1729 98.7192L98.6186 88.2863L109.098 98.7012L109.141 98.7474L98.6212 109.17L88.1729 98.7192V98.7192Z" fill="#1FBCFD"/>
<path d="M98.621 109.17L109.141 98.7474L127.315 116.94C120.47 116.955 113.626 116.934 106.783 116.95C106.393 117.037 106.152 116.68 105.903 116.46L98.621 109.17V109.17Z" fill="#08589C"/>
</svg>
