<svg width="200" height="200" viewBox="0 0 200 200" fill="none" xmlns="http://www.w3.org/2000/svg">
<path d="M44.5029 78.6666H23.3333V99.3333H44.5029V78.6666Z" fill="#F25022"/>
<path d="M67.9025 78.6666H46.733V99.3333H67.9025V78.6666Z" fill="#7FBA00"/>
<path d="M44.5029 101.3H23.3333V121.966H44.5029V101.3Z" fill="#00A4EF"/>
<path d="M67.9027 101.3H46.7332V121.966H67.9027V101.3Z" fill="#FFB900"/>
<path d="M110.805 114.211H107.591L104.964 107.264H94.4564L91.985 114.211H88.7533L98.2584 89.429H101.265L110.805 114.211ZM104.013 104.654L100.125 94.0951C99.9981 93.7494 99.8714 93.1964 99.7446 92.436H99.6755C99.5603 93.1388 99.4278 93.6918 99.278 94.0951L95.4241 104.654H104.013ZM126.428 97.3268L115.955 111.792H126.324V114.211H111.79V113.33L122.263 98.934H112.775V96.5146H126.428V97.3268ZM144.401 114.211H141.567V111.412H141.498C140.323 113.555 138.502 114.626 136.037 114.626C131.82 114.626 129.712 112.114 129.712 107.091V96.5146H132.529V106.642C132.529 110.375 133.957 112.241 136.814 112.241C138.197 112.241 139.332 111.734 140.219 110.72C141.118 109.695 141.567 108.358 141.567 106.711V96.5146H144.401V114.211ZM159.368 99.3834C158.872 99.0032 158.158 98.8131 157.224 98.8131C156.015 98.8131 155.001 99.3834 154.183 100.524C153.376 101.665 152.973 103.22 152.973 105.19V114.211H150.139V96.5146H152.973V100.161H153.042C153.446 98.9168 154.062 97.949 154.891 97.2577C155.721 96.5549 156.649 96.2035 157.674 96.2035C158.411 96.2035 158.976 96.2841 159.368 96.4454V99.3834ZM176.667 106.071H164.172C164.218 108.042 164.748 109.562 165.762 110.634C166.776 111.705 168.17 112.241 169.944 112.241C171.937 112.241 173.769 111.585 175.44 110.271V112.932C173.884 114.061 171.828 114.626 169.27 114.626C166.77 114.626 164.806 113.825 163.377 112.224C161.948 110.611 161.234 108.347 161.234 105.432C161.234 102.678 162.012 100.438 163.567 98.7094C165.134 96.9697 167.075 96.0998 169.391 96.0998C171.707 96.0998 173.498 96.8487 174.766 98.3465C176.033 99.8442 176.667 101.924 176.667 104.585V106.071ZM173.763 103.669C173.752 102.033 173.354 100.76 172.571 99.85C171.799 98.9398 170.722 98.4847 169.339 98.4847C168.003 98.4847 166.868 98.9629 165.935 99.9191C165.001 100.875 164.425 102.125 164.206 103.669H173.763Z" fill="white"/>
</svg>
