<svg width="200" height="200" viewBox="0 0 200 200" fill="none" xmlns="http://www.w3.org/2000/svg">
<path d="M75.2718 90.6139C75.2718 92.0085 75.4226 93.1393 75.6865 93.9686C75.988 94.7978 76.365 95.7025 76.8927 96.6825C77.0811 96.9841 77.1565 97.2856 77.1565 97.5495C77.1565 97.9264 76.9304 98.3033 76.4403 98.6803L74.0657 100.263C73.7264 100.49 73.3872 100.603 73.0856 100.603C72.7087 100.603 72.3318 100.414 71.9548 100.075C71.4271 99.5095 70.9748 98.9064 70.5979 98.3033C70.2209 97.6625 69.844 96.9464 69.4294 96.0794C66.4893 99.5472 62.7953 101.281 58.3475 101.281C55.1812 101.281 52.6557 100.376 50.8088 98.5672C48.9618 96.7579 48.0194 94.3455 48.0194 91.33C48.0194 88.1261 49.1502 85.5252 51.4495 83.5652C53.7488 81.6051 56.802 80.6251 60.6845 80.6251C61.966 80.6251 63.2853 80.7382 64.68 80.9266C66.0746 81.1151 67.507 81.4166 69.0147 81.7559V79.0043C69.0147 76.1396 68.4116 74.1418 67.2431 72.9733C66.0369 71.8048 64.0015 71.2394 61.0991 71.2394C59.7798 71.2394 58.4228 71.3902 57.0282 71.7294C55.6335 72.0687 54.2766 72.4833 52.9573 73.011C52.3542 73.2748 51.9019 73.4256 51.638 73.501C51.3742 73.5764 51.1857 73.6141 51.0349 73.6141C50.5072 73.6141 50.2433 73.2372 50.2433 72.4456V70.5986C50.2433 69.9955 50.3187 69.5432 50.5072 69.2793C50.6957 69.0155 51.0349 68.7516 51.5626 68.4878C52.8819 67.8093 54.465 67.2439 56.312 66.7916C58.159 66.3015 60.1191 66.0754 62.1922 66.0754C66.6777 66.0754 69.9571 67.0931 72.0679 69.1286C74.141 71.164 75.1965 74.2549 75.1965 78.4012V90.6139H75.2718ZM59.9683 96.3433C61.2122 96.3433 62.4937 96.1171 63.8507 95.6648C65.2077 95.2125 66.4139 94.3832 67.4316 93.2524C68.0347 92.5362 68.487 91.7447 68.7132 90.84C68.9393 89.9354 69.0901 88.8423 69.0901 87.5607V85.9776C67.997 85.7137 66.8285 85.4875 65.6223 85.3368C64.4161 85.186 63.2476 85.1106 62.0791 85.1106C59.5536 85.1106 57.7067 85.6006 56.4628 86.6183C55.2189 87.6361 54.6158 89.0684 54.6158 90.9531C54.6158 92.7247 55.0681 94.044 56.0105 94.9486C56.9151 95.891 58.2344 96.3433 59.9683 96.3433V96.3433ZM90.2362 100.414C89.5577 100.414 89.1054 100.301 88.8038 100.037C88.5023 99.8111 88.2384 99.2834 88.0123 98.5672L79.1543 69.4301C78.9281 68.6762 78.815 68.1862 78.815 67.9224C78.815 67.3193 79.1166 66.98 79.7197 66.98H83.4136C84.1298 66.98 84.6198 67.0931 84.8837 67.357C85.1852 67.5831 85.4114 68.1108 85.6376 68.827L91.9701 93.7801L97.8503 68.827C98.0387 68.0731 98.2649 67.5831 98.5664 67.357C98.868 67.1308 99.3957 66.98 100.074 66.98H103.09C103.806 66.98 104.296 67.0931 104.597 67.357C104.899 67.5831 105.163 68.1108 105.314 68.827L111.269 94.0817L117.79 68.827C118.016 68.0731 118.28 67.5831 118.544 67.357C118.846 67.1308 119.336 66.98 120.014 66.98H123.52C124.123 66.98 124.462 67.2816 124.462 67.9224C124.462 68.1108 124.424 68.2993 124.386 68.5255C124.349 68.7516 124.273 69.0532 124.123 69.4678L115.039 98.6049C114.812 99.3588 114.548 99.8488 114.247 100.075C113.945 100.301 113.455 100.452 112.815 100.452H109.573C108.857 100.452 108.367 100.339 108.065 100.075C107.764 99.8111 107.5 99.3211 107.349 98.5672L101.507 74.2549L95.7017 98.5295C95.5133 99.2834 95.2871 99.7734 94.9856 100.037C94.684 100.301 94.1563 100.414 93.4778 100.414H90.2362ZM138.672 101.432C136.712 101.432 134.752 101.206 132.868 100.753C130.983 100.301 129.513 99.8111 128.533 99.2457C127.93 98.9064 127.515 98.5295 127.364 98.1903C127.214 97.851 127.138 97.4741 127.138 97.1348V95.2125C127.138 94.4209 127.44 94.044 128.005 94.044C128.231 94.044 128.457 94.0817 128.684 94.1571C128.91 94.2324 129.249 94.3832 129.626 94.534C130.907 95.0994 132.302 95.5517 133.772 95.8533C135.28 96.1548 136.75 96.3056 138.258 96.3056C140.632 96.3056 142.479 95.891 143.761 95.0617C145.043 94.2324 145.721 93.0262 145.721 91.4808C145.721 90.4254 145.382 89.5584 144.703 88.8423C144.025 88.1261 142.743 87.4853 140.896 86.8822L135.431 85.186C132.679 84.319 130.644 83.0375 129.4 81.3413C128.156 79.6827 127.515 77.8358 127.515 75.8757C127.515 74.2926 127.854 72.8979 128.533 71.6917C129.211 70.4855 130.116 69.4301 131.247 68.6009C132.378 67.7339 133.659 67.0931 135.167 66.6408C136.675 66.1885 138.258 66 139.916 66C140.745 66 141.612 66.0377 142.442 66.1508C143.309 66.2639 144.1 66.4146 144.892 66.5654C145.646 66.7539 146.362 66.9423 147.04 67.1685C147.719 67.3947 148.246 67.6208 148.623 67.847C149.151 68.1485 149.528 68.4501 149.754 68.7893C149.98 69.0909 150.093 69.5055 150.093 70.0332V71.8048C150.093 72.5964 149.792 73.011 149.227 73.011C148.925 73.011 148.435 72.8602 147.794 72.5587C145.646 71.5786 143.233 71.0886 140.557 71.0886C138.408 71.0886 136.712 71.4279 135.544 72.144C134.375 72.8602 133.772 73.9533 133.772 75.4988C133.772 76.5542 134.149 77.4588 134.903 78.175C135.657 78.8912 137.052 79.6074 139.049 80.2481L144.402 81.9444C147.116 82.8113 149.076 84.0175 150.244 85.5629C151.413 87.1084 151.978 88.88 151.978 90.84C151.978 92.4608 151.639 93.9309 150.998 95.2125C150.32 96.494 149.415 97.6249 148.246 98.5295C147.078 99.4718 145.683 100.15 144.063 100.64C142.366 101.168 140.595 101.432 138.672 101.432V101.432Z" fill="white"/>
<path fill-rule="evenodd" clip-rule="evenodd" d="M145.796 119.751C133.395 128.911 115.378 133.773 99.8857 133.773C78.1742 133.773 58.6113 125.744 43.8354 112.401C42.6669 111.345 43.7223 109.913 45.117 110.742C61.099 120.015 80.8127 125.631 101.205 125.631C114.963 125.631 130.078 122.767 143.987 116.886C146.06 115.944 147.832 118.243 145.796 119.751V119.751Z" fill="#FF9900"/>
<path fill-rule="evenodd" clip-rule="evenodd" d="M150.96 113.871C149.377 111.835 140.481 112.891 136.448 113.381C135.242 113.532 135.054 112.476 136.147 111.685C143.233 106.709 154.88 108.141 156.237 109.8C157.594 111.496 155.86 123.143 149.226 128.722C148.209 129.589 147.229 129.137 147.681 128.006C149.189 124.274 152.543 115.869 150.96 113.871V113.871Z" fill="#FF9900"/>
</svg>
