<svg width="200" height="200" viewBox="0 0 200 200" fill="none" xmlns="http://www.w3.org/2000/svg">
<path d="M89.317 103.016H99.477L94.1103 94.3496L84.2436 110.003H79.757L91.757 91.223C92.0186 90.8482 92.3662 90.5416 92.7706 90.3288C93.1751 90.1161 93.6247 90.0033 94.0817 90.0001C94.5387 89.9968 94.9898 90.1031 95.3973 90.3101C95.8048 90.5171 96.1567 90.8187 96.4236 91.1896L108.457 110.003H103.97L101.857 106.503H91.577L89.337 103.016H89.317ZM135.957 106.503V90.1896H132.144V108.11C132.143 108.359 132.193 108.605 132.29 108.834C132.388 109.064 132.531 109.271 132.71 109.443C132.891 109.628 133.107 109.774 133.345 109.874C133.583 109.973 133.839 110.024 134.097 110.023H151.43L153.69 106.523H135.937L135.957 106.503ZM72.9103 103.59C74.6873 103.59 76.3914 102.884 77.6479 101.627C78.9044 100.371 79.6103 98.6666 79.6103 96.8896C79.6103 95.1127 78.9044 93.4085 77.6479 92.152C76.3914 90.8955 74.6873 90.1896 72.9103 90.1896H56.2436V110.003H60.0503V93.6963H72.677C73.5274 93.6963 74.3431 94.0341 74.9444 94.6355C75.5458 95.2369 75.8836 96.0525 75.8836 96.903C75.8836 97.7534 75.5458 98.5691 74.9444 99.1704C74.3431 99.7718 73.5274 100.11 72.677 100.11H61.937L73.3103 110.003H78.837L71.197 103.59H72.9103ZM32.8303 110.003H44.3436C46.9257 109.936 49.3795 108.863 51.182 107.013C52.9846 105.163 53.9933 102.683 53.9933 100.1C53.9933 97.5167 52.9846 95.0359 51.182 93.186C49.3795 91.3361 46.9257 90.2633 44.3436 90.1963H32.8303C31.5082 90.162 30.1925 90.3928 28.961 90.875C27.7295 91.3573 26.607 92.0813 25.6597 93.0043C24.7125 93.9273 23.9596 95.0306 23.4456 96.2492C22.9315 97.4678 22.6667 98.777 22.6667 100.1C22.6667 101.422 22.9315 102.731 23.4456 103.95C23.9596 105.169 24.7125 106.272 25.6597 107.195C26.607 108.118 27.7295 108.842 28.961 109.324C30.1925 109.806 31.5082 110.037 32.8303 110.003V110.003ZM44.0836 106.516H33.0836C31.4194 106.463 29.8412 105.764 28.683 104.568C27.5247 103.371 26.8771 101.771 26.8771 100.106C26.8771 98.4412 27.5247 96.8413 28.683 95.6451C29.8412 94.4488 31.4194 93.75 33.0836 93.6963H44.0836C44.9428 93.6686 45.7988 93.8139 46.6007 94.1235C47.4026 94.4332 48.134 94.9009 48.7516 95.4989C49.3692 96.0968 49.8602 96.8128 50.1956 97.6043C50.5309 98.3958 50.7037 99.2467 50.7037 100.106C50.7037 100.966 50.5309 101.817 50.1956 102.608C49.8602 103.4 49.3692 104.116 48.7516 104.714C48.134 105.312 47.4026 105.779 46.6007 106.089C45.7988 106.399 44.9428 106.544 44.0836 106.516V106.516ZM116.41 110.003H128.164L130.39 106.516H116.67C115.811 106.544 114.955 106.399 114.153 106.089C113.351 105.779 112.62 105.312 112.002 104.714C111.385 104.116 110.894 103.4 110.558 102.608C110.223 101.817 110.05 100.966 110.05 100.106C110.05 99.2467 110.223 98.3958 110.558 97.6043C110.894 96.8128 111.385 96.0968 112.002 95.4989C112.62 94.9009 113.351 94.4332 114.153 94.1235C114.955 93.8139 115.811 93.6686 116.67 93.6963H127.837L130.09 90.1963H116.41C115.088 90.162 113.773 90.3928 112.541 90.875C111.309 91.3573 110.187 92.0813 109.24 93.0043C108.292 93.9273 107.54 95.0306 107.026 96.2492C106.511 97.4678 106.247 98.777 106.247 100.1C106.247 101.422 106.511 102.731 107.026 103.95C107.54 105.169 108.292 106.272 109.24 107.195C110.187 108.118 111.309 108.842 112.541 109.324C113.773 109.806 115.088 110.037 116.41 110.003V110.003ZM162.99 106.516C161.593 106.517 160.235 106.061 159.12 105.219C158.006 104.377 157.197 103.194 156.817 101.85H173.097L175.337 98.3563H156.817C157.196 97.0117 158.005 95.828 159.119 94.9856C160.234 94.1431 161.593 93.688 162.99 93.6896H174.164L176.397 90.1896H162.73C160.148 90.2566 157.694 91.3294 155.892 93.1793C154.089 95.0293 153.081 97.5101 153.081 100.093C153.081 102.676 154.089 105.157 155.892 107.007C157.694 108.857 160.148 109.929 162.73 109.996H174.484L176.717 106.51H162.984" fill="#C74634"/>
</svg>
