<svg width="200" height="200" viewBox="0 0 200 200" fill="none" xmlns="http://www.w3.org/2000/svg">
<path d="M34.1527 125.296L58.4907 100.348C58.5658 100.274 58.6124 100.176 58.6223 100.071C58.6323 99.9655 58.6049 99.8601 58.5451 99.7731C57.0651 97.7069 54.334 97.3486 53.322 95.9602C50.3241 91.8476 49.5635 89.5197 48.2752 89.6639C48.1853 89.6769 48.1026 89.7205 48.0412 89.7874L39.2496 98.8001C34.1916 103.981 33.4646 115.4 33.3333 124.962C33.3329 125.058 33.3609 125.151 33.4139 125.23C33.4668 125.309 33.5422 125.37 33.6304 125.406C33.7185 125.442 33.8153 125.451 33.9084 125.431C34.0015 125.411 34.0866 125.364 34.1527 125.296V125.296Z" fill="#017CEE"/>
<path d="M83.9622 124.68L59.0147 100.34C58.9405 100.265 58.842 100.218 58.7367 100.208C58.6314 100.198 58.5259 100.226 58.4388 100.286C56.3726 101.767 56.0143 104.497 54.6258 105.509C50.5132 108.507 48.1854 109.267 48.3296 110.556C48.3427 110.645 48.3863 110.728 48.453 110.789L57.4657 119.58C62.6463 124.638 74.0654 125.365 83.6281 125.497C83.7228 125.497 83.8153 125.469 83.8939 125.416C83.9725 125.363 84.0337 125.288 84.0695 125.2C84.1054 125.113 84.1143 125.017 84.0952 124.924C84.0761 124.831 84.0298 124.746 83.9622 124.68Z" fill="#00AD46"/>
<path d="M57.4659 119.583C54.6338 116.82 53.3213 111.354 58.749 100.084C49.9254 104.027 46.8334 109.21 48.3539 110.695L57.4659 119.583Z" fill="#04D659"/>
<path d="M83.3457 74.8712L59.0087 99.8187C58.9334 99.8928 58.8867 99.9911 58.8768 100.096C58.8668 100.202 58.8943 100.307 58.9543 100.394C60.4351 102.46 63.1644 102.818 64.1773 104.207C67.1751 108.319 67.9367 110.647 69.2241 110.503C69.314 110.49 69.3967 110.446 69.4581 110.379L78.2497 101.367C83.3077 96.1862 84.0348 84.7671 84.1661 75.2045C84.1662 75.1093 84.1379 75.0163 84.0849 74.9373C84.0318 74.8583 83.9564 74.797 83.8683 74.7612C83.7802 74.7254 83.6834 74.7167 83.5903 74.7363C83.4971 74.7559 83.412 74.8029 83.3457 74.8712V74.8712Z" fill="#00C7D4"/>
<path d="M78.254 101.367C75.491 104.199 70.0254 105.511 58.754 100.084C62.6973 108.907 67.8805 111.999 69.3648 110.479L78.254 101.367Z" fill="#11E1EE"/>
<path d="M33.5354 75.4869L58.4829 99.824C58.5571 99.8991 58.6555 99.9457 58.7606 99.9557C58.8658 99.9656 58.971 99.9383 59.058 99.8784C61.1242 98.3976 61.4825 95.6674 62.8709 94.6554C66.9835 91.6575 69.3114 90.8968 69.1672 89.6086C69.154 89.5187 69.1105 89.4361 69.0438 89.3746L60.0311 80.583C54.8504 75.5249 43.4313 74.7979 33.8687 74.6666C33.7733 74.666 33.68 74.694 33.6007 74.747C33.5215 74.8 33.46 74.8755 33.4241 74.9638C33.3882 75.0521 33.3796 75.1492 33.3994 75.2424C33.4193 75.3357 33.4667 75.4209 33.5354 75.4869V75.4869Z" fill="#E43921"/>
<path fill-rule="evenodd" clip-rule="evenodd" d="M60.0355 80.5839C62.8676 83.3469 64.1799 88.8125 58.7523 100.084C67.5759 96.1405 70.6679 90.9564 69.1474 89.473L60.0355 80.5839Z" fill="#FF7557"/>
<path d="M39.2497 98.8007C42.0127 95.9686 47.4783 94.6562 58.7497 100.084C54.8064 91.2603 49.6232 88.1683 48.1389 89.6888L39.2497 98.8007Z" fill="#0CB6FF"/>
<path d="M58.7531 101.167C59.354 101.167 59.8411 100.68 59.8411 100.08C59.8411 99.4787 59.354 98.9916 58.7531 98.9916C58.1523 98.9916 57.6652 99.4787 57.6652 100.08C57.6652 100.68 58.1523 101.167 58.7531 101.167Z" fill="#4A4848"/>
<path d="M90.9459 91.2484C90.8952 91.2471 90.847 91.2264 90.8112 91.1906C90.7753 91.1547 90.7546 91.1065 90.7533 91.0559C90.7516 91.0202 90.7548 90.9844 90.7628 90.9496L93.1512 84.7207C93.1708 84.6556 93.212 84.5992 93.2681 84.5608C93.3241 84.5223 93.3916 84.5041 93.4594 84.5092H94.1139C94.1816 84.5044 94.2489 84.5228 94.3049 84.5612C94.3609 84.5996 94.4022 84.6558 94.4221 84.7207L96.8 90.9496L96.819 91.0559C96.8179 91.1066 96.7973 91.1549 96.7615 91.1908C96.7256 91.2266 96.6772 91.2473 96.6264 91.2484H96.136C96.0773 91.2522 96.0193 91.235 95.972 91.2C95.9378 91.1679 95.9115 91.1283 95.8952 91.0843L95.3658 89.7175H92.2082L91.6789 91.0843C91.661 91.1299 91.6312 91.1699 91.5926 91.2C91.5488 91.234 91.4943 91.2511 91.4389 91.2484H90.9459ZM95.0861 88.8894L93.7866 85.4719L92.4871 88.8894H95.0861ZM97.9545 93.0772C97.9241 93.0777 97.8939 93.0719 97.8659 93.0603C97.8378 93.0487 97.8124 93.0316 97.7912 93.0098C97.7717 92.9895 97.7565 92.9653 97.7465 92.9389C97.7366 92.9125 97.7321 92.8843 97.7334 92.8561V86.4666C97.7321 86.4384 97.7366 86.4103 97.7465 86.3838C97.7565 86.3574 97.7717 86.3333 97.7912 86.3129C97.8124 86.2912 97.8378 86.2739 97.8659 86.2624C97.8939 86.2508 97.9241 86.2451 97.9545 86.2456H98.3974C98.4552 86.2481 98.5099 86.2722 98.5509 86.3131C98.5918 86.354 98.6159 86.4088 98.6184 86.4666V86.8897C98.799 86.6446 99.038 86.4484 99.3136 86.3191C99.5893 86.1897 99.8928 86.1312 100.197 86.1488C100.481 86.128 100.766 86.1747 101.029 86.2851C101.292 86.3956 101.525 86.5667 101.709 86.7844C102.066 87.2564 102.259 87.8327 102.258 88.4249C102.264 88.4952 102.267 88.6042 102.267 88.7522C102.267 88.9001 102.264 89.0092 102.258 89.0794C102.257 89.6713 102.064 90.2469 101.709 90.7199C101.524 90.9366 101.291 91.107 101.028 91.2173C100.766 91.3277 100.481 91.375 100.197 91.3555C99.898 91.3694 99.6003 91.3111 99.3288 91.1854C99.0574 91.0597 98.8201 90.8705 98.6374 90.6336V92.8673C98.6387 92.8955 98.6343 92.9237 98.6243 92.9501C98.6144 92.9765 98.5992 93.0007 98.5796 93.0211C98.5607 93.0433 98.5368 93.0609 98.5101 93.0725C98.4833 93.0842 98.4542 93.0896 98.425 93.0884L97.9545 93.0772ZM99.9956 90.5645C100.183 90.581 100.372 90.5509 100.545 90.4769C100.718 90.403 100.87 90.2875 100.988 90.1406C101.214 89.8123 101.334 89.4228 101.333 89.0241C101.339 88.9602 101.343 88.8673 101.343 88.7452C101.343 87.5324 100.893 86.926 99.9939 86.926C99.8037 86.9134 99.6133 86.9471 99.439 87.0243C99.2647 87.1014 99.1118 87.2197 98.9932 87.3689C98.7712 87.6696 98.6469 88.0314 98.6374 88.4051L98.6271 88.7712L98.6374 89.1468C98.6441 89.5093 98.7731 89.8589 99.0036 90.1389C99.1245 90.2817 99.2771 90.3945 99.4491 90.4684C99.6211 90.5423 99.8087 90.5752 99.9956 90.5645ZM104.855 91.3416C104.552 91.3443 104.253 91.2784 103.979 91.1491C103.724 91.033 103.502 90.8549 103.334 90.631C103.182 90.4136 103.101 90.1545 103.102 89.8893C103.099 89.6878 103.145 89.4884 103.235 89.3081C103.325 89.1278 103.457 88.9718 103.62 88.8532C104.04 88.5514 104.531 88.3655 105.045 88.3144L106.479 88.1124V87.8335C106.479 87.179 106.105 86.8517 105.357 86.8517C105.113 86.8417 104.873 86.9055 104.666 87.0347C104.499 87.1375 104.36 87.2799 104.262 87.4492C104.249 87.4974 104.222 87.5408 104.185 87.5744C104.169 87.5883 104.151 87.599 104.131 87.6057C104.111 87.6123 104.09 87.615 104.069 87.6133H103.655C103.627 87.6152 103.598 87.611 103.572 87.6011C103.545 87.5911 103.521 87.5756 103.501 87.5555C103.481 87.5355 103.466 87.5114 103.456 87.4849C103.446 87.4584 103.441 87.43 103.443 87.4018C103.464 87.2126 103.537 87.033 103.655 86.8837C103.824 86.6624 104.046 86.4869 104.3 86.3734C104.634 86.2161 105 86.1404 105.369 86.1523C105.649 86.1249 105.932 86.1561 106.2 86.244C106.467 86.3318 106.714 86.4744 106.923 86.6626C107.24 87.0012 107.41 87.4513 107.395 87.9146V91.0342C107.396 91.0647 107.39 91.0951 107.379 91.1233C107.367 91.1515 107.35 91.1771 107.328 91.1983C107.308 91.2179 107.284 91.2331 107.257 91.2431C107.231 91.253 107.203 91.2575 107.174 91.2562H106.731C106.701 91.2594 106.671 91.2559 106.643 91.246C106.615 91.2361 106.589 91.2199 106.568 91.1987C106.546 91.1775 106.53 91.1518 106.52 91.1235C106.51 91.0952 106.506 91.065 106.509 91.0351V90.6215C106.35 90.8422 106.138 91.0201 105.893 91.1396C105.568 91.291 105.212 91.3613 104.854 91.3442L104.855 91.3416ZM105.057 90.6198C105.246 90.6267 105.434 90.5943 105.61 90.5246C105.786 90.4549 105.945 90.3494 106.078 90.2149C106.22 90.054 106.329 89.8666 106.398 89.6634C106.468 89.4602 106.496 89.2453 106.482 89.031V88.7616L105.365 88.9257C105.002 88.959 104.651 89.0707 104.335 89.253C104.232 89.3084 104.146 89.3902 104.085 89.4901C104.025 89.59 103.992 89.7042 103.99 89.8211C103.986 89.9396 104.013 90.0572 104.069 90.1619C104.125 90.2667 104.207 90.3549 104.308 90.4178C104.532 90.5568 104.792 90.6278 105.056 90.6224L105.057 90.6198ZM110.793 91.3416C110.498 91.3583 110.204 91.3158 109.926 91.2165C109.648 91.1173 109.393 90.9635 109.176 90.764C108.768 90.3163 108.547 89.7291 108.559 89.1234L108.55 88.7383L108.559 88.3533C108.547 87.7515 108.768 87.1683 109.176 86.7257C109.392 86.5235 109.646 86.3671 109.924 86.2662C110.202 86.1653 110.498 86.1219 110.793 86.1385C111.199 86.1261 111.602 86.212 111.967 86.3889C112.255 86.5272 112.501 86.7401 112.68 87.0054C112.83 87.2218 112.92 87.4747 112.939 87.7376C112.943 87.766 112.939 87.7949 112.929 87.8218C112.919 87.8486 112.903 87.8725 112.881 87.8913C112.835 87.9302 112.777 87.9508 112.717 87.9492H112.255C112.204 87.9529 112.152 87.9392 112.11 87.9103C112.066 87.8672 112.034 87.8145 112.014 87.7566C111.937 87.4931 111.775 87.2628 111.552 87.1021C111.328 86.9602 111.066 86.8897 110.801 86.9C110.625 86.8924 110.45 86.9219 110.286 86.9866C110.122 87.0513 109.974 87.1498 109.851 87.2756C109.594 87.5921 109.461 87.9909 109.475 88.3982L109.466 88.7435L109.475 89.0708C109.459 89.4825 109.592 89.8863 109.851 90.2071C109.975 90.3314 110.123 90.4282 110.287 90.4913C110.451 90.5544 110.626 90.5823 110.801 90.5732C111.065 90.5832 111.326 90.5162 111.552 90.3806C111.773 90.2146 111.935 89.9818 112.014 89.7166C112.034 89.6587 112.066 89.6061 112.11 89.5629C112.129 89.5456 112.153 89.5324 112.177 89.5241C112.202 89.5158 112.229 89.5125 112.255 89.5146H112.717C112.747 89.514 112.778 89.5196 112.806 89.5312C112.834 89.5428 112.86 89.5601 112.881 89.5819C112.903 89.6007 112.919 89.6246 112.929 89.6514C112.939 89.6783 112.943 89.7072 112.939 89.7356C112.918 89.9978 112.828 90.2499 112.68 90.467C112.501 90.7323 112.255 90.9451 111.967 91.0835C111.603 91.2654 111.199 91.355 110.792 91.3442L110.793 91.3416ZM114.314 91.2449C114.284 91.2482 114.254 91.2447 114.226 91.2348C114.197 91.2248 114.172 91.2086 114.15 91.1874C114.129 91.1662 114.113 91.1405 114.103 91.1122C114.093 91.0839 114.089 91.0537 114.092 91.0239V84.6344C114.091 84.6062 114.095 84.578 114.105 84.5516C114.115 84.5252 114.131 84.501 114.15 84.4807C114.171 84.4588 114.197 84.4417 114.225 84.4301C114.253 84.4185 114.284 84.4128 114.314 84.4134H114.795C114.853 84.4155 114.908 84.4394 114.949 84.4804C114.99 84.5214 115.015 84.5764 115.017 84.6344V86.8793C115.191 86.652 115.415 86.4677 115.671 86.3406C115.963 86.2032 116.283 86.1371 116.606 86.148C116.874 86.133 117.143 86.1788 117.391 86.2821C117.64 86.3854 117.861 86.5435 118.04 86.7446C118.403 87.1847 118.588 87.7448 118.558 88.3144V91.0291C118.559 91.0596 118.553 91.0899 118.541 91.1181C118.53 91.1463 118.513 91.1719 118.491 91.1931C118.47 91.2127 118.446 91.228 118.42 91.2379C118.393 91.2479 118.365 91.2523 118.337 91.2509H117.856C117.826 91.2541 117.796 91.2505 117.768 91.2405C117.74 91.2305 117.714 91.2143 117.693 91.1931C117.672 91.172 117.655 91.1463 117.645 91.1181C117.635 91.0899 117.632 91.0597 117.635 91.0299V88.3584C117.659 87.9756 117.539 87.5975 117.298 87.299C117.177 87.1702 117.03 87.0698 116.865 87.0049C116.701 86.9399 116.525 86.9121 116.348 86.9234C116.168 86.9154 115.989 86.9456 115.821 87.012C115.654 87.0783 115.502 87.1794 115.376 87.3085C115.125 87.5983 114.997 87.9748 115.02 88.3576V91.0239C115.021 91.0544 115.015 91.0847 115.004 91.1129C114.992 91.1412 114.975 91.1667 114.953 91.1879C114.933 91.2075 114.909 91.2228 114.882 91.2327C114.856 91.2427 114.828 91.2471 114.799 91.2458L114.314 91.2449ZM121.952 91.3416C121.66 91.3554 121.368 91.3088 121.095 91.2048C120.822 91.1008 120.573 90.9417 120.363 90.7372C119.952 90.2761 119.722 89.6804 119.718 89.0621L119.709 88.7349L119.718 88.4171C119.73 87.8044 119.963 87.2165 120.373 86.7611C120.816 86.3544 121.398 86.1344 121.999 86.147C122.6 86.1595 123.173 86.4036 123.598 86.8284C124.012 87.3452 124.221 87.9966 124.185 88.658V88.8221C124.186 88.8524 124.18 88.8826 124.168 88.9107C124.157 88.9387 124.139 88.9642 124.118 88.9853C124.097 89.0049 124.073 89.0201 124.047 89.03C124.02 89.04 123.992 89.0445 123.964 89.0432H120.633V89.1295C120.641 89.5167 120.773 89.8911 121.008 90.1984C121.12 90.3379 121.262 90.4495 121.424 90.5244C121.586 90.5994 121.763 90.6355 121.942 90.6301C122.194 90.6412 122.444 90.5814 122.664 90.4575C122.828 90.361 122.972 90.2334 123.088 90.0818C123.121 90.0298 123.163 89.9843 123.213 89.9472C123.264 89.9241 123.321 89.9143 123.377 89.9187H123.849C123.902 89.9169 123.953 89.9341 123.993 89.967C124.013 89.9835 124.028 90.0043 124.038 90.0276C124.048 90.051 124.053 90.0763 124.051 90.1017C124.024 90.2982 123.929 90.479 123.782 90.612C123.574 90.835 123.321 91.0115 123.04 91.1301C122.697 91.2779 122.326 91.3509 121.952 91.3442V91.3416ZM123.271 88.3766V88.348C123.288 87.9554 123.157 87.5706 122.905 87.2696C122.782 87.1361 122.633 87.0294 122.468 86.9565C122.302 86.8835 122.123 86.8459 121.942 86.8459C121.761 86.8459 121.582 86.8835 121.416 86.9565C121.25 87.0294 121.101 87.1361 120.979 87.2696C120.738 87.5761 120.616 87.9588 120.634 88.348V88.3766H123.271Z" fill="white"/>
<path d="M90.8077 91.1902L90.7551 91.2429L90.8077 91.1902ZM90.7594 90.9493L90.6903 90.9226L90.7594 90.9493ZM93.1477 84.7204L93.2167 84.7472L93.1477 84.7204ZM94.4186 84.7204L94.3487 84.7455L94.4186 84.7204ZM96.7966 90.9493L96.8691 90.9364C96.8696 90.9321 96.8696 90.9277 96.8691 90.9234L96.7966 90.9493ZM96.8155 91.0555H96.8898V91.0426L96.8155 91.0555ZM96.7577 91.1902L96.8095 91.2429L96.7577 91.1902ZM95.9685 91.1997L95.9158 91.2524L95.921 91.2567L95.9685 91.1997ZM95.8917 91.084L95.9616 91.0607L95.8917 91.084ZM95.3624 89.7172L95.4315 89.6904C95.4261 89.6765 95.4167 89.6645 95.4043 89.656C95.392 89.6475 95.3773 89.643 95.3624 89.6429V89.7172ZM92.2048 89.7172V89.6429C92.1898 89.643 92.1753 89.6475 92.1629 89.656C92.1506 89.6645 92.1411 89.6765 92.1357 89.6904L92.2048 89.7172ZM91.6754 91.084L91.6064 91.0573L91.6754 91.084ZM91.5891 91.1997L91.6367 91.2567L91.5891 91.1997ZM95.0835 88.8892V88.9634C95.0954 88.9633 95.1072 88.9604 95.1177 88.9548C95.1283 88.9492 95.1373 88.9412 95.1441 88.9313C95.1509 88.9215 95.1552 88.9102 95.1566 88.8983C95.1581 88.8865 95.1568 88.8744 95.1526 88.8632L95.0835 88.8892ZM93.784 85.4716L93.8531 85.4457C93.8477 85.4318 93.8382 85.42 93.8258 85.4116C93.8135 85.4032 93.7989 85.3987 93.784 85.3987C93.7691 85.3987 93.7546 85.4032 93.7423 85.4116C93.7299 85.42 93.7204 85.4318 93.715 85.4457L93.784 85.4716ZM92.4845 88.8892L92.4155 88.8632C92.4113 88.8744 92.4099 88.8865 92.4114 88.8983C92.4128 88.9102 92.4171 88.9215 92.4239 88.9313C92.4307 88.9412 92.4397 88.9492 92.4502 88.9548C92.4608 88.9604 92.4726 88.9633 92.4845 88.9634V88.8892ZM90.9442 91.1738C90.928 91.1745 90.9119 91.1716 90.897 91.1653C90.882 91.159 90.8687 91.1496 90.8578 91.1376L90.7524 91.242C90.7767 91.2672 90.8058 91.2873 90.838 91.301C90.8702 91.3146 90.9049 91.3215 90.9399 91.3215L90.9442 91.1738ZM90.8578 91.1376C90.8459 91.1267 90.8364 91.1133 90.8301 91.0984C90.8239 91.0835 90.8209 91.0674 90.8215 91.0512H90.6739C90.6738 91.0862 90.6808 91.1208 90.6945 91.153C90.7081 91.1852 90.7281 91.2144 90.7533 91.2386L90.8578 91.1376ZM90.8215 91.0512C90.8197 91.0223 90.8218 90.9933 90.8276 90.9649L90.6869 90.9182C90.6759 90.9605 90.6712 91.0042 90.673 91.0478L90.8215 91.0512ZM90.8258 90.9718L93.2132 84.7429L93.0752 84.6902L90.6877 90.9191L90.8258 90.9718ZM93.2142 84.7412C93.2293 84.6919 93.2595 84.6487 93.3005 84.6177C93.3454 84.5894 93.3978 84.5755 93.4507 84.5779V84.4294C93.3678 84.4269 93.2862 84.4498 93.2167 84.4951C93.1495 84.5433 93.0993 84.6116 93.0734 84.6902L93.2142 84.7412ZM93.4524 84.5779H94.1069V84.4294H93.4524V84.5779ZM94.1069 84.5779C94.1602 84.5753 94.213 84.5892 94.2581 84.6177C94.2992 84.6487 94.3294 84.6919 94.3444 84.7412L94.4834 84.6902C94.4576 84.6116 94.4074 84.5433 94.3401 84.4951C94.2704 84.4497 94.1884 84.4267 94.1053 84.4294L94.1069 84.5779ZM94.3461 84.742L96.7241 90.9709L96.8622 90.9182L94.4843 84.6893L94.3461 84.742ZM96.7206 90.9588L96.7395 91.065L96.8855 91.0383L96.8666 90.932L96.7206 90.9588ZM96.7387 91.0512C96.7392 91.0674 96.7363 91.0835 96.7301 91.0984C96.7238 91.1133 96.7144 91.1266 96.7024 91.1376L96.8069 91.242C96.8321 91.2178 96.8522 91.1887 96.8658 91.1565C96.8795 91.1243 96.8865 91.0897 96.8864 91.0547L96.7387 91.0512ZM96.7024 91.1376C96.6915 91.1495 96.6781 91.1589 96.6632 91.1651C96.6483 91.1714 96.6323 91.1744 96.6161 91.1738V91.3215C96.6511 91.3215 96.6857 91.3146 96.7179 91.301C96.7501 91.2873 96.7793 91.2672 96.8035 91.242L96.7024 91.1376ZM96.6161 91.1738H96.1257V91.3215H96.6161V91.1738ZM96.1257 91.1738C96.0844 91.1774 96.0432 91.1664 96.0091 91.1427L95.9142 91.2567C95.9747 91.3029 96.0496 91.3262 96.1257 91.3223V91.1738ZM96.0143 91.1471C95.9879 91.1233 95.9675 91.0938 95.9547 91.0607L95.8149 91.1073C95.8348 91.1622 95.8673 91.2116 95.9098 91.2515L96.0143 91.1471ZM95.9539 91.0607L95.4246 89.693L95.2864 89.7465L95.8157 91.1134L95.9539 91.0607ZM95.3555 89.6464H92.1979V89.794H95.3555V89.6464ZM92.1288 89.6939L91.5986 91.0616L91.7368 91.1151L92.2661 89.7483L92.1288 89.6939ZM91.5978 91.0642C91.5844 91.0983 91.562 91.1281 91.533 91.1505L91.6289 91.2627C91.6779 91.224 91.7155 91.1727 91.7376 91.1142L91.5978 91.0642ZM91.5339 91.1505C91.5031 91.1734 91.4651 91.1844 91.4268 91.1816V91.3293C91.4995 91.332 91.5709 91.3088 91.628 91.2636L91.5339 91.1505ZM91.4268 91.1816H90.9355V91.3293H91.4268V91.1816ZM95.1448 88.8701L93.8453 85.4526L93.7072 85.5053L95.0066 88.9228L95.1448 88.8701ZM93.7063 85.4526L92.4068 88.8701L92.545 88.9228L93.8445 85.5053L93.7063 85.4526ZM92.4759 88.9712H95.0748V88.8235H92.4759V88.9712ZM97.7801 93.0181L97.7282 93.0708L97.7801 93.0181ZM97.7801 86.317L97.8328 86.3696L97.7801 86.317ZM98.5407 86.317L98.4846 86.3653L98.4932 86.3731L98.5407 86.317ZM98.6081 86.8946H98.5338C98.5338 86.9102 98.5389 86.9254 98.548 86.938C98.5572 86.9506 98.5701 86.96 98.5849 86.9649C98.5997 86.9697 98.6157 86.9698 98.6305 86.9651C98.6454 86.9604 98.6583 86.9511 98.6676 86.9386L98.6081 86.8946ZM101.698 86.7884L101.64 86.8342L101.698 86.7884ZM102.247 88.4289H102.173H102.247ZM102.247 89.0834L102.174 89.0774L102.247 89.0834ZM101.698 90.724L101.756 90.7706L101.698 90.724ZM98.6271 90.6376L98.6858 90.5927C98.6763 90.5805 98.6634 90.5716 98.6486 90.5671C98.6338 90.5626 98.618 90.5629 98.6034 90.5678C98.5887 90.5728 98.5759 90.5821 98.5669 90.5947C98.5578 90.6072 98.553 90.6222 98.5529 90.6376H98.6271ZM98.5692 93.0251L98.5166 92.9732L98.5692 93.0251ZM100.976 90.1558L100.916 90.1118L100.976 90.1558ZM101.321 89.0394L101.248 89.0325V89.0368L101.321 89.0394ZM98.982 87.3833L98.9232 87.3384L98.982 87.3833ZM98.6254 88.4194H98.5511H98.6254ZM98.6159 88.7847H98.5424H98.6159ZM98.6254 89.1603H98.5511H98.6254ZM98.9914 90.1524L99.0485 90.1058L98.9914 90.1524ZM97.9415 93.0147C97.9208 93.0152 97.9002 93.0114 97.881 93.0035C97.8619 92.9957 97.8445 92.9839 97.8301 92.9689L97.7257 93.0734C97.7539 93.1017 97.7877 93.1239 97.8248 93.1387C97.8619 93.1536 97.9016 93.1607 97.9415 93.1598V93.0147ZM97.8301 92.9689C97.8174 92.9553 97.8076 92.9393 97.8014 92.9218C97.7951 92.9042 97.7926 92.8856 97.7939 92.8671H97.6454C97.6439 92.905 97.6503 92.9429 97.6639 92.9784C97.6776 93.0138 97.6983 93.0462 97.7248 93.0734L97.8301 92.9689ZM97.7939 92.8671V86.4775H97.6454V92.8671H97.7939ZM97.7939 86.4775C97.7926 86.459 97.7951 86.4404 97.8014 86.4228C97.8076 86.4053 97.8174 86.3892 97.8301 86.3757L97.7257 86.2712C97.6991 86.2983 97.6783 86.3307 97.6647 86.3662C97.651 86.4017 97.6447 86.4395 97.6462 86.4775H97.7939ZM97.8301 86.3757C97.8445 86.3607 97.8619 86.3489 97.881 86.341C97.9002 86.3332 97.9208 86.3294 97.9415 86.3299V86.1814C97.9016 86.1804 97.8619 86.1876 97.8248 86.2024C97.7877 86.2173 97.7539 86.2395 97.7257 86.2677L97.8301 86.3757ZM97.9415 86.3299H98.3844V86.1814H97.9415V86.3299ZM98.3844 86.3299C98.4028 86.3288 98.4213 86.3319 98.4382 86.3391C98.4551 86.3463 98.4701 86.3573 98.482 86.3713L98.5943 86.2755C98.5684 86.2452 98.536 86.2211 98.4995 86.205C98.4631 86.1888 98.4234 86.1811 98.3836 86.1822L98.3844 86.3299ZM98.4907 86.38C98.5047 86.3919 98.5157 86.4069 98.5229 86.4239C98.5301 86.4408 98.5333 86.4592 98.5321 86.4775H98.6798C98.6808 86.4378 98.673 86.3984 98.6569 86.3621C98.6408 86.3258 98.6167 86.2936 98.5865 86.2677L98.4907 86.38ZM98.5321 86.4775V86.9006H98.6798V86.4775H98.5321ZM98.666 86.9447C98.8397 86.7089 99.0698 86.5204 99.335 86.3963C99.6003 86.2721 99.8924 86.2164 100.185 86.2341V86.0864C99.8687 86.0681 99.5529 86.1292 99.2664 86.264C98.9799 86.3988 98.7317 86.6031 98.5442 86.8583L98.666 86.9447ZM100.185 86.2341C100.458 86.213 100.731 86.2567 100.984 86.3617C101.237 86.4668 101.461 86.6302 101.638 86.8385L101.755 86.7469C101.564 86.5206 101.322 86.3425 101.049 86.2273C100.776 86.112 100.48 86.0629 100.185 86.0838V86.2341ZM101.638 86.8385C101.985 87.297 102.172 87.8565 102.171 88.4315L102.318 88.4255C102.319 87.8188 102.12 87.2286 101.754 86.7452L101.638 86.8385ZM102.171 88.4358C102.177 88.5032 102.18 88.6085 102.18 88.757H102.328C102.328 88.6094 102.328 88.498 102.317 88.4229L102.171 88.4358ZM102.18 88.757C102.18 88.9047 102.18 89.0109 102.171 89.0783L102.317 89.0912C102.324 89.017 102.328 88.9047 102.328 88.757H102.18ZM102.171 89.0817C102.17 89.6566 101.983 90.2159 101.638 90.6756L101.754 90.7671C102.118 90.283 102.316 89.6938 102.318 89.0877L102.171 89.0817ZM101.638 90.6748C101.46 90.8821 101.236 91.0447 100.983 91.1497C100.731 91.2547 100.457 91.299 100.185 91.2792V91.4268C100.48 91.446 100.775 91.396 101.048 91.2809C101.32 91.1658 101.562 90.9887 101.754 90.7637L101.638 90.6748ZM100.185 91.2792C99.8974 91.2936 99.6107 91.2382 99.3493 91.118C99.0878 90.9977 98.8593 90.816 98.6832 90.5884L98.5658 90.6748C98.7554 90.9207 99.0013 91.1174 99.283 91.2481C99.5646 91.3789 99.8736 91.4399 100.184 91.426L100.185 91.2792ZM98.5511 90.6316V92.8653H98.6996V90.6316H98.5511ZM98.5511 92.8653C98.5524 92.8839 98.5498 92.9025 98.5436 92.9201C98.5374 92.9376 98.5276 92.9536 98.5148 92.9672L98.6193 93.0717C98.6458 93.0445 98.6665 93.0121 98.6802 92.9767C98.6938 92.9412 98.7002 92.9033 98.6987 92.8653H98.5511ZM98.5113 92.9715C98.4993 92.9856 98.4842 92.9967 98.4671 93.0039C98.45 93.0111 98.4315 93.0142 98.413 93.013V93.1615C98.4529 93.1627 98.4925 93.155 98.5289 93.1388C98.5654 93.1227 98.5977 93.0986 98.6236 93.0682L98.5113 92.9715ZM98.413 93.013H97.9415V93.1615H98.413V93.013ZM99.9818 90.648C100.181 90.6645 100.381 90.6318 100.565 90.5525C100.748 90.4733 100.909 90.3501 101.033 90.1938L100.914 90.1075C100.803 90.2447 100.66 90.3523 100.498 90.4208C100.335 90.4893 100.158 90.5167 99.9827 90.5003L99.9818 90.648ZM101.033 90.1947C101.268 89.8545 101.395 89.4506 101.394 89.0368L101.247 89.0308C101.248 89.4149 101.132 89.7903 100.914 90.1066L101.033 90.1947ZM101.394 89.0411C101.4 88.9729 101.404 88.8771 101.404 88.7545H101.255C101.255 88.8753 101.255 88.966 101.246 89.0264L101.394 89.0411ZM101.404 88.7545C101.438 88.2594 101.315 87.7662 101.052 87.3453C100.927 87.1828 100.764 87.0536 100.578 86.969C100.391 86.8844 100.186 86.8469 99.9818 86.86V87.0077C100.163 86.9949 100.344 87.027 100.51 87.1011C100.676 87.1752 100.82 87.2891 100.932 87.4325C101.175 87.8281 101.288 88.2902 101.255 88.7536L101.404 88.7545ZM99.9818 86.8609C99.7801 86.8484 99.5784 86.8847 99.3938 86.967C99.2091 87.0492 99.0471 87.1749 98.9216 87.3332L99.039 87.4196C99.1508 87.2795 99.2949 87.1687 99.459 87.0967C99.6231 87.0246 99.8022 86.9935 99.9809 87.006L99.9818 86.8609ZM98.9216 87.3332C98.6898 87.6469 98.5601 88.0244 98.5502 88.4143L98.6987 88.4212C98.7082 88.0606 98.8289 87.7116 99.0441 87.4221L98.9216 87.3332ZM98.5502 88.416L98.5407 88.7821H98.6884L98.6979 88.416H98.5502ZM98.5407 88.7856L98.5502 89.1611H98.6987L98.6893 88.7856H98.5407ZM98.5502 89.162C98.5576 89.5406 98.6924 89.9056 98.9327 90.1981L99.0476 90.104C98.8285 89.8355 98.7067 89.5008 98.7022 89.1542L98.5502 89.162ZM98.9327 90.1981C99.0608 90.3491 99.222 90.4684 99.4039 90.5466C99.5857 90.6248 99.7833 90.6598 99.9809 90.6488V90.5012C99.8051 90.5122 99.6292 90.4821 99.467 90.4133C99.3049 90.3445 99.1609 90.2389 99.0467 90.1049L98.9327 90.1981ZM103.965 91.1626L103.997 91.0961L103.965 91.1626ZM103.32 90.6445L103.259 90.6868L103.32 90.6445ZM103.609 88.8632L103.654 88.9219L103.609 88.8632ZM105.034 88.3245L105.044 88.3978L105.034 88.3245ZM106.468 88.1224L106.478 88.1958C106.496 88.1933 106.512 88.1845 106.524 88.171C106.536 88.1575 106.542 88.1403 106.542 88.1224H106.468ZM104.649 87.044L104.688 87.1061L104.649 87.044ZM104.245 87.4584L104.18 87.4221C104.178 87.4263 104.176 87.4306 104.175 87.4351L104.245 87.4584ZM104.168 87.5836L104.121 87.5257L104.115 87.531L104.168 87.5836ZM103.484 87.5646L103.428 87.613L103.436 87.6208L103.484 87.5646ZM103.426 87.4109H103.352H103.426ZM103.638 86.8929L103.577 86.8505L103.638 86.8929ZM104.283 86.3826L104.315 86.4491L104.283 86.3826ZM106.901 86.6709L106.847 86.7211L106.901 86.6709ZM107.306 91.2058L107.357 91.2584L107.306 91.2058ZM106.545 91.2058L106.489 91.2542C106.491 91.2571 106.494 91.2597 106.497 91.2619L106.545 91.2058ZM106.487 90.6281H106.561C106.561 90.6125 106.556 90.5975 106.546 90.585C106.537 90.5726 106.524 90.5634 106.509 90.5588C106.494 90.5542 106.478 90.5545 106.463 90.5595C106.448 90.5645 106.436 90.574 106.427 90.5867L106.487 90.6281ZM105.871 91.1462L105.836 91.0806L105.871 91.1462ZM106.063 90.2318L106.01 90.18L106.063 90.2318ZM106.467 88.7778H106.541C106.541 88.767 106.539 88.7563 106.535 88.7465C106.53 88.7367 106.524 88.728 106.515 88.721C106.507 88.7141 106.497 88.709 106.487 88.7061C106.477 88.7032 106.466 88.7026 106.455 88.7044L106.467 88.7778ZM105.351 88.941L105.361 89.0143L105.351 88.941ZM104.321 89.2682L104.36 89.3304L104.321 89.2682ZM104.292 90.433L104.252 90.4943L104.292 90.433ZM104.84 91.2835C104.549 91.2861 104.26 91.2226 103.996 91.0978L103.932 91.2317C104.216 91.3657 104.526 91.4338 104.84 91.4311L104.84 91.2835ZM103.996 91.0978C103.752 90.9863 103.54 90.8153 103.379 90.6005L103.259 90.6868C103.435 90.9213 103.666 91.1081 103.932 91.23L103.996 91.0978ZM103.38 90.6031C103.237 90.3982 103.161 90.1538 103.162 89.9037H103.013C103.012 90.1837 103.097 90.4573 103.258 90.6868L103.38 90.6031ZM103.162 89.9037C103.159 89.7127 103.202 89.5239 103.287 89.3531C103.373 89.1823 103.498 89.0347 103.653 88.9228L103.563 88.8063C103.39 88.932 103.25 89.0974 103.154 89.2885C103.059 89.4797 103.011 89.6909 103.014 89.9045L103.162 89.9037ZM103.653 88.9219C104.062 88.6281 104.541 88.4473 105.043 88.3978L105.022 88.2511C104.495 88.304 103.991 88.4952 103.562 88.8054L103.653 88.9219ZM105.043 88.3978L106.477 88.1958L106.456 88.049L105.021 88.2511L105.043 88.3978ZM106.541 88.1224V87.8435H106.393V88.1224H106.541ZM106.541 87.8435C106.551 87.6971 106.529 87.5502 106.476 87.4134C106.423 87.2765 106.34 87.1531 106.234 87.0518C105.978 86.8585 105.66 86.7646 105.34 86.7875V86.936C105.624 86.9134 105.907 86.994 106.136 87.1631C106.227 87.2503 106.298 87.3566 106.342 87.4743C106.387 87.5919 106.405 87.718 106.396 87.8435H106.541ZM105.34 86.7875C105.081 86.7771 104.825 86.8454 104.606 86.9835L104.692 87.1061C104.887 86.9839 105.114 86.9237 105.344 86.9334L105.34 86.7875ZM104.607 86.9827C104.429 87.0912 104.281 87.2426 104.176 87.423L104.305 87.4955C104.398 87.3369 104.528 87.2037 104.685 87.1079L104.607 86.9827ZM104.176 87.4351C104.166 87.4697 104.148 87.501 104.122 87.5257L104.214 87.6415C104.263 87.5989 104.298 87.5435 104.315 87.4817L104.176 87.4351ZM104.117 87.5318C104.099 87.5453 104.076 87.5512 104.054 87.5482V87.6959C104.084 87.6974 104.115 87.6929 104.144 87.6825C104.172 87.6722 104.199 87.6561 104.221 87.6354L104.117 87.5318ZM104.054 87.5482H103.639V87.6959H104.054V87.5482ZM103.639 87.5482C103.601 87.5486 103.563 87.5345 103.534 87.5085L103.437 87.6208C103.493 87.6696 103.565 87.6963 103.639 87.6959V87.5482ZM103.542 87.5163C103.515 87.4873 103.501 87.4493 103.501 87.4101H103.354C103.353 87.4843 103.38 87.5562 103.429 87.6121L103.542 87.5163ZM103.501 87.4135C103.521 87.2378 103.59 87.0713 103.7 86.9326L103.579 86.8462C103.452 87.0076 103.374 87.2016 103.354 87.4057L103.501 87.4135ZM103.7 86.9334C103.862 86.722 104.074 86.5546 104.317 86.4464L104.252 86.3135C103.987 86.4323 103.755 86.6158 103.579 86.8471L103.7 86.9334ZM104.318 86.4464C104.642 86.2942 104.997 86.2211 105.354 86.2332V86.0855C104.974 86.0736 104.596 86.1523 104.252 86.3152L104.318 86.4464ZM105.354 86.2332C105.624 86.2065 105.896 86.2359 106.153 86.3195C106.41 86.4032 106.648 86.5393 106.85 86.7193L106.958 86.6191C106.743 86.424 106.489 86.2758 106.212 86.184C105.936 86.0921 105.644 86.0586 105.354 86.0855V86.2332ZM106.851 86.7202C107.154 87.045 107.316 87.4769 107.302 87.9212H107.45C107.464 87.4393 107.287 86.9713 106.958 86.6191L106.851 86.7202ZM107.302 87.9212V91.0409H107.45V87.9212H107.302ZM107.302 91.0409C107.303 91.0616 107.299 91.0822 107.291 91.1014C107.283 91.1206 107.271 91.1379 107.256 91.1522L107.361 91.2567C107.389 91.2284 107.411 91.1947 107.426 91.1576C107.441 91.1205 107.448 91.0808 107.447 91.0409H107.302ZM107.256 91.1522C107.243 91.1649 107.227 91.1747 107.209 91.181C107.192 91.1872 107.173 91.1898 107.154 91.1885V91.3362C107.192 91.3375 107.23 91.3312 107.266 91.3176C107.301 91.3039 107.334 91.2832 107.361 91.2567L107.256 91.1522ZM107.154 91.1885H106.712V91.3362H107.154V91.1885ZM106.712 91.1885C106.669 91.1898 106.628 91.1757 106.596 91.1488L106.5 91.2611C106.559 91.3114 106.634 91.3384 106.712 91.337V91.1885ZM106.604 91.1566C106.577 91.1245 106.562 91.0832 106.564 91.0409H106.416C106.415 91.1182 106.441 91.1935 106.491 91.2524L106.604 91.1566ZM106.564 91.0409V90.6273H106.416V91.0409H106.564ZM106.429 90.585C106.276 90.7962 106.074 90.9667 105.839 91.0815L105.908 91.2127C106.163 91.0871 106.384 90.9006 106.551 90.6696L106.429 90.585ZM105.839 91.0815C105.529 91.2284 105.187 91.2983 104.844 91.2852V91.4329C105.211 91.4463 105.577 91.3707 105.908 91.2127L105.839 91.0815ZM105.046 90.711C105.245 90.7181 105.443 90.6838 105.628 90.6104C105.813 90.5369 105.98 90.426 106.12 90.2845L106.014 90.1809C105.888 90.3082 105.737 90.4079 105.57 90.4737C105.404 90.5394 105.225 90.5696 105.046 90.5625V90.711ZM106.12 90.2845C106.269 90.1167 106.383 89.9212 106.456 89.7091C106.529 89.4971 106.559 89.2727 106.545 89.0489H106.397C106.411 89.2537 106.385 89.4592 106.319 89.6536C106.253 89.8481 106.149 90.0276 106.014 90.1817L106.12 90.2845ZM106.545 89.0489V88.7795H106.397V89.0489H106.545ZM106.459 88.7035L105.342 88.8667L105.364 89.0135L106.48 88.8503L106.459 88.7035ZM105.342 88.8667C104.968 88.9016 104.607 89.0174 104.282 89.206L104.364 89.3295C104.67 89.1536 105.012 89.046 105.364 89.0143L105.342 88.8667ZM104.283 89.2052C104.169 89.267 104.074 89.358 104.007 89.4688C103.94 89.5795 103.904 89.7061 103.902 89.8355H104.05C104.052 89.7309 104.082 89.6287 104.137 89.5397C104.192 89.4507 104.27 89.3781 104.363 89.3295L104.283 89.2052ZM103.902 89.8355C103.898 89.9662 103.928 90.0956 103.99 90.211C104.051 90.3265 104.142 90.4238 104.252 90.4934L104.334 90.3708C104.244 90.3146 104.17 90.2355 104.12 90.1415C104.07 90.0475 104.046 89.9419 104.05 89.8355H103.902ZM104.254 90.4952C104.492 90.6411 104.766 90.7152 105.045 90.7084V90.5608C104.795 90.5672 104.548 90.5009 104.334 90.3699L104.254 90.4952ZM109.164 90.7792L109.111 90.831L109.164 90.7792ZM108.547 89.1387H108.474H108.547ZM108.538 88.7536H108.464H108.538ZM108.547 88.3685H108.474H108.547ZM109.164 86.7409L109.216 86.7936L109.164 86.7409ZM111.956 86.4042L111.922 86.4698L111.956 86.4042ZM112.668 87.0198L112.605 87.0595L112.668 87.0198ZM112.927 87.752H112.853H112.927ZM112.87 87.9057L112.918 87.9618L112.87 87.9057ZM112.099 87.9247L112.146 87.8668L112.099 87.9247ZM112.003 87.771L111.933 87.796L112.003 87.771ZM111.541 87.1165L111.499 87.1778L111.541 87.1165ZM109.836 87.2892L109.783 87.2383L109.836 87.2892ZM109.461 88.4116H109.387H109.461ZM109.451 88.757H109.377H109.451ZM109.461 89.0843H109.387H109.461ZM109.836 90.2206L109.783 90.2716L109.836 90.2206ZM111.541 90.3933L111.581 90.4554L111.541 90.3933ZM112.003 89.7293L111.934 89.7008L112.003 89.7293ZM112.099 89.5756L112.146 89.6335L112.152 89.6282L112.099 89.5756ZM112.87 89.5946L112.817 89.6464L112.87 89.5946ZM112.927 89.7483L112.854 89.7405L112.927 89.7483ZM112.668 90.4796L112.606 90.4399L112.668 90.4796ZM111.956 91.0961L111.922 91.0305L111.956 91.0961ZM110.782 91.2688C110.497 91.2856 110.211 91.2451 109.942 91.1495C109.673 91.054 109.426 90.9055 109.216 90.7128L109.112 90.8181C109.336 91.0244 109.599 91.1837 109.886 91.2867C110.172 91.3896 110.477 91.434 110.781 91.4173L110.782 91.2688ZM109.216 90.7136C108.822 90.2799 108.609 89.7116 108.622 89.1257L108.474 89.1309C108.463 89.7535 108.691 90.3566 109.111 90.8164L109.216 90.7136ZM108.622 89.1266L108.612 88.7415H108.464L108.474 89.1266H108.622ZM108.612 88.745L108.622 88.3598H108.474L108.464 88.745H108.612ZM108.622 88.3607C108.608 87.7777 108.822 87.2123 109.216 86.7832L109.111 86.6787C108.69 87.1343 108.462 87.7352 108.474 88.3555L108.622 88.3607ZM109.216 86.7832C109.425 86.5878 109.672 86.437 109.941 86.3398C110.21 86.2426 110.496 86.201 110.782 86.2177V86.07C110.477 86.0533 110.172 86.0986 109.885 86.2033C109.598 86.3079 109.335 86.4697 109.112 86.6787L109.216 86.7832ZM110.782 86.2177C111.176 86.2054 111.567 86.2883 111.922 86.4594L111.99 86.3282C111.614 86.1455 111.199 86.0567 110.781 86.0692L110.782 86.2177ZM111.922 86.4594C112.198 86.5915 112.434 86.7951 112.605 87.0491L112.731 86.9705C112.545 86.6941 112.29 86.4723 111.99 86.3282L111.922 86.4594ZM112.606 87.0509C112.749 87.2549 112.835 87.4934 112.854 87.7416L113.002 87.7339C112.982 87.458 112.888 87.1926 112.73 86.9654L112.606 87.0509ZM112.854 87.7494C112.857 87.7653 112.855 87.7816 112.849 87.7967C112.844 87.8118 112.834 87.8252 112.822 87.8357L112.919 87.948C112.95 87.9219 112.975 87.8883 112.99 87.8503C113.005 87.8122 113.01 87.771 113.005 87.7304L112.854 87.7494ZM112.822 87.8357C112.79 87.8626 112.749 87.8768 112.706 87.8755V88.0231C112.784 88.0246 112.86 87.9975 112.919 87.9471L112.822 87.8357ZM112.706 87.8755H112.244V88.0231H112.706V87.8755ZM112.244 87.8755C112.21 87.8789 112.176 87.871 112.146 87.853L112.054 87.9687C112.109 88.0084 112.176 88.0279 112.244 88.024V87.8755ZM112.146 87.853C112.113 87.8175 112.087 87.775 112.072 87.7287L111.935 87.7857C111.96 87.8553 112 87.918 112.054 87.9687L112.146 87.853ZM112.074 87.7321C111.991 87.4536 111.818 87.2105 111.581 87.0414L111.501 87.1657C111.71 87.3177 111.862 87.535 111.933 87.7831L112.074 87.7321ZM111.583 87.0414C111.347 86.891 111.07 86.816 110.79 86.8264V86.974C111.041 86.9639 111.288 87.0298 111.5 87.1631L111.583 87.0414ZM110.79 86.8264C110.604 86.8182 110.418 86.8496 110.244 86.9183C110.071 86.9871 109.914 87.0917 109.784 87.2253L109.891 87.3272C110.007 87.2082 110.148 87.1152 110.303 87.0545C110.458 86.9938 110.624 86.9666 110.79 86.9749V86.8264ZM109.784 87.2253C109.514 87.5558 109.373 87.9731 109.388 88.3996L109.536 88.4047C109.52 88.0142 109.646 87.6311 109.891 87.3263L109.784 87.2253ZM109.388 88.4004L109.379 88.7458H109.526L109.536 88.4004H109.388ZM109.379 88.751L109.388 89.0783L109.536 89.0739L109.526 88.7467L109.379 88.751ZM109.388 89.0791C109.372 89.5086 109.513 89.9293 109.784 90.2629L109.891 90.161C109.645 89.8531 109.519 89.4667 109.536 89.0731L109.388 89.0791ZM109.784 90.2629C109.915 90.3949 110.072 90.4978 110.246 90.5649C110.419 90.632 110.605 90.6618 110.79 90.6523V90.5038C110.625 90.513 110.459 90.487 110.304 90.4274C110.149 90.3679 110.008 90.2762 109.891 90.1584L109.784 90.2629ZM110.79 90.6523C111.068 90.6622 111.343 90.5911 111.581 90.4477L111.501 90.3234C111.287 90.4511 111.04 90.5138 110.79 90.5038V90.6523ZM111.583 90.4468C111.818 90.2719 111.99 90.0261 112.074 89.7457L111.934 89.6965C111.861 89.9465 111.709 90.1666 111.502 90.3242L111.583 90.4468ZM112.072 89.75C112.087 89.7037 112.113 89.6612 112.146 89.6257L112.054 89.51C112 89.5609 111.959 89.624 111.935 89.6939L112.072 89.75ZM112.152 89.6196C112.165 89.6093 112.18 89.6015 112.196 89.5969C112.211 89.5923 112.228 89.591 112.244 89.5929V89.4452C112.209 89.4431 112.173 89.4482 112.139 89.4602C112.105 89.4722 112.074 89.4909 112.048 89.5151L112.152 89.6196ZM112.244 89.5929H112.706V89.4452H112.244V89.5929ZM112.706 89.5929C112.727 89.5924 112.748 89.5961 112.767 89.604C112.786 89.6119 112.803 89.6237 112.818 89.6386L112.922 89.5342C112.894 89.506 112.86 89.4838 112.823 89.469C112.786 89.4541 112.746 89.4469 112.706 89.4478V89.5929ZM112.822 89.6421C112.834 89.6526 112.844 89.666 112.849 89.6811C112.855 89.6962 112.857 89.7125 112.854 89.7284L113.001 89.7431C113.006 89.7025 113.001 89.6612 112.986 89.6232C112.971 89.5851 112.946 89.5516 112.915 89.5255L112.822 89.6421ZM112.854 89.7362C112.833 89.9859 112.748 90.2258 112.605 90.4321L112.73 90.5115C112.886 90.2837 112.979 90.0191 113.002 89.744L112.854 89.7362ZM112.605 90.4321C112.434 90.6862 112.198 90.8898 111.922 91.0218L111.99 91.1531C112.29 91.0088 112.545 90.787 112.731 90.5107L112.605 90.4321ZM111.921 91.0227C111.566 91.195 111.175 91.278 110.781 91.2645V91.4121C111.199 91.426 111.614 91.3371 111.99 91.1531L111.921 91.0227ZM114.138 91.1842L114.082 91.2325L114.091 91.2403L114.138 91.1842ZM114.138 84.4735L114.191 84.5253L114.138 84.4735ZM114.938 84.4735L114.881 84.5218L114.889 84.5296L114.938 84.4735ZM115.005 86.8704H114.932C114.932 86.8857 114.937 86.9006 114.945 86.913C114.954 86.9254 114.967 86.9348 114.982 86.9398C114.996 86.9448 115.012 86.9452 115.026 86.941C115.041 86.9368 115.054 86.9281 115.064 86.9162L115.005 86.8704ZM115.659 86.3316L115.692 86.3981L115.659 86.3316ZM118.028 86.7357L117.972 86.7841L118.028 86.7357ZM118.48 91.1833L118.428 91.1315L118.48 91.1833ZM117.682 91.1833L117.626 91.2317L117.633 91.2394L117.682 91.1833ZM117.287 87.2978L117.231 87.3462L117.287 87.2978ZM115.361 87.3073L115.308 87.2564L115.361 87.3073ZM114.938 91.1868L114.886 91.135L114.938 91.1868ZM114.303 91.1704C114.261 91.1717 114.22 91.1576 114.187 91.1307L114.091 91.2429C114.149 91.2933 114.225 91.3202 114.302 91.3189L114.303 91.1704ZM114.196 91.1384C114.169 91.106 114.155 91.0649 114.156 91.0227H114.008C114.006 91.1001 114.033 91.1753 114.083 91.2343L114.196 91.1384ZM114.156 91.0227V84.6332H114.008V91.0227H114.156ZM114.156 84.6332C114.155 84.6147 114.157 84.596 114.164 84.5785C114.17 84.5609 114.18 84.5449 114.192 84.5314L114.088 84.4268C114.061 84.4541 114.041 84.4865 114.027 84.5219C114.013 84.5574 114.007 84.5952 114.008 84.6332H114.156ZM114.192 84.5314C114.207 84.5164 114.224 84.5046 114.243 84.4967C114.262 84.4888 114.283 84.485 114.304 84.4856V84.3379C114.264 84.337 114.224 84.3442 114.187 84.359C114.15 84.3739 114.116 84.3961 114.088 84.4243L114.192 84.5314ZM114.304 84.4856H114.785V84.3379H114.304V84.4856ZM114.785 84.4856C114.803 84.4844 114.821 84.4876 114.838 84.4948C114.855 84.502 114.87 84.513 114.882 84.527L114.995 84.4303C114.969 84.4 114.936 84.3758 114.9 84.3597C114.863 84.3436 114.824 84.3358 114.784 84.337L114.785 84.4856ZM114.89 84.5348C114.904 84.5467 114.915 84.5617 114.922 84.5787C114.93 84.5956 114.933 84.614 114.932 84.6324H115.08C115.081 84.5927 115.073 84.5532 115.057 84.5169C115.041 84.4806 115.017 84.4483 114.987 84.4225L114.89 84.5348ZM114.932 84.6324V86.8773H115.08V84.6324H114.932ZM115.064 86.9214C115.231 86.7027 115.446 86.5254 115.692 86.4033L115.627 86.2703C115.361 86.4025 115.128 86.5942 114.947 86.8307L115.064 86.9214ZM115.694 86.4033C115.975 86.2712 116.284 86.2079 116.594 86.2185V86.0708C116.261 86.0598 115.929 86.1285 115.627 86.2712L115.694 86.4033ZM116.594 86.2185C116.853 86.2029 117.112 86.2462 117.351 86.3451C117.59 86.444 117.804 86.5958 117.976 86.7893L118.088 86.6925C117.903 86.4832 117.672 86.3185 117.414 86.2107C117.156 86.1029 116.877 86.0548 116.597 86.07L116.594 86.2185ZM117.976 86.791C118.328 87.2172 118.507 87.7598 118.478 88.3115H118.625C118.654 87.7238 118.462 87.1465 118.087 86.6934L117.976 86.791ZM118.478 88.3115V91.0262H118.625V88.3115H118.478ZM118.478 91.0262C118.478 91.0469 118.474 91.0675 118.467 91.0867C118.459 91.1058 118.447 91.1232 118.432 91.1376L118.536 91.242C118.565 91.2137 118.587 91.18 118.602 91.1429C118.616 91.1058 118.624 91.0661 118.623 91.0262H118.478ZM118.432 91.1376C118.418 91.1503 118.402 91.1601 118.385 91.1664C118.367 91.1726 118.349 91.1752 118.33 91.1738V91.3215C118.368 91.3228 118.406 91.3164 118.441 91.3028C118.477 91.2891 118.509 91.2685 118.536 91.242L118.432 91.1376ZM118.33 91.1738H117.849V91.3215H118.33V91.1738ZM117.849 91.1738C117.807 91.1752 117.766 91.161 117.733 91.1341L117.637 91.2464C117.696 91.2967 117.771 91.3237 117.848 91.3223L117.849 91.1738ZM117.742 91.1419C117.715 91.1095 117.701 91.0683 117.702 91.0262H117.554C117.552 91.1035 117.579 91.1787 117.629 91.2377L117.742 91.1419ZM117.702 91.0262V88.3573H117.554V91.0236L117.702 91.0262ZM117.702 88.3598C117.727 87.9588 117.6 87.5632 117.347 87.2512L117.236 87.3496C117.465 87.6345 117.578 87.9946 117.554 88.359L117.702 88.3598ZM117.347 87.2521C117.219 87.1148 117.062 87.0077 116.888 86.9384C116.713 86.8691 116.525 86.8395 116.338 86.8514V86.9991C116.504 86.9873 116.671 87.0126 116.826 87.0732C116.981 87.1338 117.121 87.2283 117.235 87.3496L117.347 87.2521ZM116.338 86.8514C116.148 86.8435 115.958 86.8758 115.782 86.9461C115.605 87.0165 115.445 87.1234 115.312 87.2598L115.419 87.3617C115.538 87.2401 115.682 87.1451 115.84 87.0827C115.998 87.0204 116.168 86.9922 116.338 87V86.8514ZM115.312 87.2598C115.047 87.5632 114.912 87.9586 114.936 88.3607H115.084C115.061 87.9968 115.182 87.6383 115.42 87.3626L115.312 87.2598ZM114.936 88.3607V91.0271H115.084V88.3573L114.936 88.3607ZM114.936 91.0271C114.936 91.0478 114.933 91.0684 114.925 91.0876C114.917 91.1068 114.905 91.1241 114.89 91.1384L114.995 91.2429C115.023 91.2146 115.045 91.1808 115.06 91.1437C115.075 91.1067 115.082 91.067 115.081 91.0271H114.936ZM114.89 91.1384C114.876 91.1512 114.86 91.161 114.843 91.1672C114.825 91.1735 114.807 91.176 114.788 91.1747V91.3223C114.826 91.3237 114.864 91.3173 114.9 91.3036C114.935 91.29 114.967 91.2694 114.995 91.2429L114.89 91.1384ZM114.788 91.1747H114.307V91.3223H114.788V91.1747ZM120.357 90.7386L120.303 90.7896L120.357 90.7386ZM119.712 89.0635H119.637H119.712ZM119.701 88.7363H119.628V88.7407L119.701 88.7363ZM119.712 88.4185L119.637 88.4134L119.712 88.4185ZM120.366 86.7625L120.313 86.7107L120.366 86.7625ZM123.591 86.8298L123.535 86.8782L123.591 86.8298ZM124.109 88.9884L124.162 89.0411L124.109 88.9884ZM120.624 89.0463V88.9721C120.605 88.9721 120.586 88.9798 120.572 88.9938C120.558 89.0077 120.55 89.0266 120.55 89.0463H120.624ZM120.624 89.1326H120.55H120.624ZM121 90.2016L120.941 90.2474L121 90.2016ZM122.656 90.4606L122.695 90.5237L122.656 90.4606ZM123.08 90.085L123.02 90.041L123.08 90.085ZM123.205 89.9503L123.239 90.0168H123.244L123.205 89.9503ZM123.982 89.9693L123.935 90.0263L123.982 89.9693ZM123.771 90.6143L123.715 90.5651L123.771 90.6143ZM123.03 91.1324L123.06 91.1997L123.03 91.1324ZM123.26 88.3789V88.4531C123.28 88.4531 123.299 88.4453 123.313 88.4314C123.327 88.4174 123.335 88.3986 123.335 88.3789H123.26ZM122.894 87.2719L122.837 87.3194L122.894 87.2719ZM120.969 87.2719L120.913 87.2244L120.969 87.2719ZM120.623 88.3789H120.549C120.549 88.3986 120.557 88.4174 120.571 88.4314C120.585 88.4453 120.604 88.4531 120.623 88.4531V88.3789ZM121.943 91.2705C121.66 91.284 121.378 91.2391 121.114 91.1385C120.849 91.0379 120.609 90.8839 120.407 90.686L120.301 90.7896C120.517 91.0014 120.774 91.1665 121.056 91.2746C121.338 91.3827 121.64 91.4316 121.942 91.4182L121.943 91.2705ZM120.407 90.6868C120.008 90.2381 119.786 89.6592 119.782 89.0584L119.635 89.0661C119.64 89.7022 119.876 90.3147 120.3 90.7888L120.407 90.6868ZM119.783 89.0601L119.774 88.7329H119.626L119.636 89.0601H119.783ZM119.774 88.7372L119.783 88.4194L119.635 88.4151L119.625 88.7329L119.774 88.7372ZM119.783 88.422C119.795 87.8267 120.02 87.2554 120.418 86.8125L120.311 86.7107C119.889 87.1786 119.649 87.7826 119.636 88.4125L119.783 88.422ZM120.417 86.8125C120.614 86.6135 120.851 86.4579 121.112 86.3558C121.374 86.2536 121.653 86.2072 121.933 86.2194V86.0717C121.633 86.0596 121.334 86.1101 121.055 86.2201C120.775 86.3301 120.522 86.4972 120.311 86.7107L120.417 86.8125ZM121.933 86.2194C122.232 86.2017 122.531 86.2517 122.808 86.3656C123.085 86.4795 123.333 86.6544 123.533 86.8773L123.645 86.7806C123.431 86.5416 123.166 86.3538 122.87 86.2311C122.574 86.1084 122.254 86.0539 121.933 86.0717V86.2194ZM123.534 86.8773C123.937 87.3805 124.139 88.0145 124.103 88.6578H124.252C124.288 87.9787 124.073 87.3101 123.647 86.7798L123.534 86.8773ZM124.103 88.6578V88.8218H124.252V88.6578H124.103ZM124.103 88.8218C124.104 88.8425 124.1 88.8632 124.092 88.8824C124.084 88.9015 124.072 88.9188 124.057 88.9332L124.162 89.0377C124.19 89.0093 124.212 88.9756 124.227 88.9385C124.242 88.9014 124.249 88.8617 124.248 88.8218H124.103ZM124.057 88.9332C124.044 88.9459 124.028 88.9558 124.01 88.962C123.993 88.9682 123.974 88.9707 123.955 88.9694V89.1171C123.993 89.1184 124.031 89.1121 124.067 89.0984C124.102 89.0848 124.134 89.0641 124.162 89.0377L124.057 88.9332ZM123.955 88.9694H120.624V89.1171H123.955V88.9694ZM120.55 89.0437V89.1301H120.698V89.0437H120.55ZM120.55 89.1301C120.559 89.5326 120.696 89.9217 120.941 90.2413L121.058 90.1498C120.832 89.8545 120.706 89.4949 120.698 89.1232L120.55 89.1301ZM120.942 90.2421C121.06 90.3904 121.211 90.5092 121.383 90.589C121.555 90.6689 121.744 90.7077 121.933 90.7024V90.5547C121.766 90.56 121.599 90.526 121.447 90.4556C121.295 90.3851 121.161 90.2801 121.057 90.1489L120.942 90.2421ZM121.933 90.7024C122.199 90.7133 122.463 90.6493 122.695 90.5176L122.617 90.3915C122.409 90.5083 122.172 90.5645 121.934 90.5539L121.933 90.7024ZM122.695 90.5176C122.867 90.4161 123.018 90.2817 123.139 90.1221L123.019 90.0358C122.909 90.1794 122.772 90.3002 122.616 90.3915L122.695 90.5176ZM123.138 90.1239C123.159 90.0939 123.183 90.0651 123.208 90.0375C123.215 90.0298 123.222 90.0227 123.23 90.016L123.237 90.0108L123.171 89.8787C123.144 89.8941 123.119 89.914 123.099 89.9374C123.071 89.9686 123.044 90.0012 123.019 90.0349L123.138 90.1239ZM123.241 90.0082C123.281 89.9926 123.325 89.9864 123.367 89.99V89.8424C123.298 89.838 123.228 89.8516 123.165 89.8821L123.241 90.0082ZM123.367 89.99H123.84V89.8424H123.367V89.99ZM123.84 89.99C123.875 89.9882 123.909 89.9993 123.936 90.0211L124.031 89.9071C123.977 89.863 123.909 89.8397 123.84 89.8415V89.99ZM123.936 90.0211C123.947 90.0307 123.956 90.0428 123.961 90.0563C123.967 90.0698 123.969 90.0844 123.967 90.0989H124.115C124.116 90.0624 124.109 90.0262 124.094 89.993C124.079 89.9598 124.057 89.9304 124.029 89.9071L123.936 90.0211ZM123.967 90.0989C123.94 90.277 123.851 90.44 123.716 90.5599L123.827 90.6592C123.987 90.5127 124.089 90.314 124.115 90.0989H123.967ZM123.716 90.5608C123.515 90.7767 123.271 90.9476 123 91.0624L123.062 91.1971C123.352 91.0735 123.614 90.8899 123.828 90.6584L123.716 90.5608ZM123 91.0616C122.667 91.2042 122.306 91.2743 121.944 91.2671V91.4147C122.328 91.4221 122.709 91.3477 123.062 91.1963L123 91.0616ZM123.336 88.3754V88.3469H123.189V88.3754H123.336ZM123.336 88.3469C123.354 87.9362 123.217 87.5337 122.952 87.2192L122.841 87.3177C123.081 87.6053 123.204 87.9727 123.186 88.3469H123.336ZM122.953 87.2244C122.829 87.0766 122.672 86.9592 122.495 86.8812C122.319 86.8032 122.126 86.7667 121.933 86.7746V86.9231C122.105 86.9157 122.275 86.9477 122.432 87.0166C122.589 87.0854 122.728 87.1893 122.839 87.3203L122.953 87.2244ZM121.933 86.7746C121.74 86.7669 121.548 86.8035 121.372 86.8814C121.195 86.9594 121.039 87.0767 120.914 87.2244L121.027 87.3194C121.138 87.1884 121.277 87.0845 121.434 87.0157C121.591 86.9468 121.762 86.9149 121.933 86.9222V86.7746ZM120.914 87.2244C120.662 87.5429 120.532 87.9412 120.549 88.3469H120.698C120.68 87.9748 120.797 87.6088 121.027 87.3159L120.914 87.2244ZM120.549 88.3469V88.3754H120.698V88.3469H120.549ZM120.623 88.4496H123.261V88.302H120.623V88.4496Z" fill="white"/>
<path d="M88.9444 113.86C88.8155 113.857 88.6926 113.805 88.6015 113.713C88.5103 113.622 88.4578 113.5 88.4548 113.371C88.4505 113.28 88.4586 113.19 88.4789 113.101L94.5455 97.2761C94.5956 97.111 94.7003 96.9678 94.8424 96.8701C94.9845 96.7723 95.1557 96.7258 95.3278 96.7382H96.9908C97.163 96.7258 97.3342 96.7723 97.4765 96.87C97.6188 96.9678 97.7237 97.1109 97.7739 97.2761L103.818 113.101L103.867 113.371C103.864 113.499 103.811 113.622 103.72 113.713C103.629 113.804 103.506 113.857 103.378 113.86H102.13C101.981 113.87 101.834 113.826 101.714 113.738C101.627 113.656 101.56 113.556 101.519 113.444L100.173 109.97H92.1503L90.805 113.444C90.7594 113.56 90.6833 113.661 90.5848 113.738C90.4731 113.824 90.3345 113.867 90.1937 113.86H88.9444ZM99.4619 107.868L96.1601 99.1851L92.8592 107.867L99.4619 107.868ZM106.528 98.769C106.453 98.7771 106.376 98.7682 106.304 98.7428C106.232 98.7175 106.167 98.6764 106.113 98.6225C106.059 98.5686 106.017 98.5032 105.992 98.4313C105.966 98.3594 105.957 98.2827 105.965 98.2069V96.8858C105.961 96.7337 106.014 96.5855 106.112 96.4696C106.166 96.4139 106.231 96.3698 106.302 96.3401C106.374 96.3104 106.451 96.2957 106.528 96.2969H108.07C108.147 96.2966 108.223 96.3115 108.295 96.3409C108.366 96.3703 108.431 96.4135 108.486 96.4681C108.54 96.5227 108.583 96.5876 108.613 96.6589C108.642 96.7303 108.657 96.8068 108.657 96.884V98.2051C108.658 98.2825 108.643 98.3593 108.613 98.4307C108.584 98.5021 108.54 98.5667 108.484 98.6205C108.369 98.7189 108.221 98.7712 108.069 98.7672L106.528 98.769ZM106.724 113.861C106.648 113.869 106.572 113.86 106.5 113.835C106.428 113.809 106.363 113.768 106.309 113.714C106.255 113.66 106.213 113.595 106.188 113.523C106.163 113.451 106.153 113.374 106.161 113.298V101.704C106.158 101.632 106.169 101.56 106.194 101.493C106.22 101.426 106.258 101.364 106.308 101.313C106.362 101.257 106.427 101.213 106.498 101.183C106.57 101.153 106.647 101.139 106.724 101.14H107.898C108.045 101.146 108.185 101.207 108.289 101.311C108.394 101.415 108.455 101.555 108.461 101.702V113.296C108.462 113.373 108.447 113.45 108.418 113.522C108.388 113.593 108.344 113.658 108.288 113.712C108.236 113.761 108.175 113.8 108.108 113.825C108.04 113.851 107.969 113.862 107.897 113.859L106.724 113.861ZM112.649 113.861C112.573 113.869 112.496 113.86 112.424 113.835C112.352 113.809 112.287 113.768 112.233 113.714C112.179 113.66 112.138 113.595 112.112 113.523C112.087 113.451 112.078 113.374 112.086 113.298V101.728C112.083 101.576 112.135 101.428 112.233 101.313C112.287 101.257 112.352 101.213 112.423 101.183C112.495 101.153 112.572 101.139 112.649 101.14H113.772C113.849 101.14 113.926 101.155 113.997 101.184C114.068 101.213 114.133 101.257 114.188 101.311C114.242 101.366 114.286 101.431 114.315 101.502C114.344 101.573 114.359 101.65 114.359 101.727V102.803C114.723 102.239 115.235 101.786 115.839 101.493C116.443 101.2 117.115 101.078 117.783 101.14H118.733C118.88 101.146 119.02 101.207 119.124 101.311C119.228 101.415 119.289 101.555 119.295 101.702V102.705C119.298 102.779 119.284 102.852 119.254 102.92C119.224 102.988 119.179 103.048 119.123 103.096C119.071 103.145 119.009 103.184 118.942 103.209C118.875 103.235 118.803 103.246 118.731 103.242H117.264C116.882 103.222 116.5 103.281 116.142 103.416C115.784 103.551 115.458 103.758 115.184 104.026C114.924 104.303 114.722 104.63 114.591 104.987C114.461 105.345 114.405 105.725 114.425 106.105V113.296C114.427 113.373 114.412 113.45 114.382 113.522C114.353 113.593 114.308 113.658 114.253 113.712C114.137 113.81 113.989 113.862 113.837 113.859L112.649 113.861ZM123.212 113.861C123.136 113.869 123.059 113.86 122.988 113.834C122.916 113.809 122.851 113.768 122.797 113.714C122.743 113.66 122.702 113.594 122.676 113.522C122.651 113.451 122.642 113.374 122.65 113.298V103.097H120.571C120.495 103.105 120.418 103.096 120.346 103.071C120.275 103.046 120.209 103.004 120.155 102.951C120.102 102.897 120.06 102.831 120.035 102.76C120.01 102.688 120 102.611 120.008 102.535V101.704C120.005 101.632 120.016 101.56 120.042 101.493C120.067 101.426 120.105 101.364 120.155 101.313C120.209 101.257 120.274 101.213 120.345 101.183C120.416 101.153 120.493 101.139 120.571 101.14H122.65V99.9165C122.65 97.1442 124.052 95.7584 126.856 95.759H128.226C128.373 95.7647 128.513 95.8258 128.617 95.9299C128.722 96.0341 128.783 96.1738 128.789 96.3211V97.1526C128.79 97.2299 128.775 97.3067 128.745 97.3781C128.716 97.4495 128.672 97.5142 128.616 97.5679C128.564 97.6177 128.503 97.6563 128.436 97.6815C128.368 97.7067 128.297 97.718 128.225 97.7147H126.905C126.62 97.6837 126.331 97.7208 126.064 97.8229C125.796 97.925 125.556 98.0891 125.364 98.3018C125.031 98.8169 124.876 99.4268 124.923 100.038V101.139H130.157V96.3228C130.154 96.2511 130.165 96.1794 130.191 96.1121C130.216 96.0449 130.255 95.9835 130.304 95.9317C130.358 95.876 130.423 95.8318 130.494 95.8021C130.566 95.7724 130.643 95.7578 130.72 95.759H131.843C131.99 95.7647 132.13 95.8258 132.234 95.9299C132.339 96.0341 132.4 96.1738 132.406 96.3211V113.296C132.407 113.373 132.392 113.45 132.363 113.522C132.333 113.593 132.289 113.658 132.233 113.712C132.181 113.762 132.12 113.8 132.052 113.826C131.985 113.851 131.913 113.862 131.841 113.859H130.719C130.643 113.867 130.566 113.858 130.494 113.832C130.422 113.807 130.356 113.766 130.302 113.712C130.248 113.658 130.207 113.592 130.182 113.52C130.156 113.448 130.148 113.371 130.156 113.296V103.097H124.922V113.297C124.923 113.375 124.908 113.452 124.878 113.523C124.849 113.595 124.804 113.66 124.749 113.713C124.697 113.763 124.635 113.802 124.568 113.827C124.501 113.852 124.429 113.864 124.357 113.86L123.212 113.861ZM141.258 114.105C140.494 114.152 139.729 114.041 139.01 113.78C138.29 113.519 137.632 113.114 137.075 112.588C136.061 111.49 135.502 110.048 135.51 108.553L135.485 107.501L135.51 106.449C135.505 104.958 136.075 103.521 137.1 102.438C138.257 101.443 139.732 100.897 141.257 100.897C142.783 100.897 144.258 101.443 145.415 102.438C146.44 103.522 147.009 104.958 147.005 106.449C147.021 106.628 147.029 106.979 147.029 107.501C147.029 108.023 147.021 108.374 147.005 108.553C147.012 110.052 146.443 111.497 145.415 112.588C144.864 113.115 144.21 113.521 143.493 113.782C142.777 114.043 142.014 114.153 141.254 114.105L141.258 114.105ZM141.258 112.222C141.708 112.245 142.157 112.169 142.575 112C142.992 111.831 143.368 111.573 143.676 111.244C144.33 110.455 144.677 109.456 144.654 108.431C144.67 108.268 144.678 107.958 144.678 107.502C144.678 107.045 144.67 106.736 144.654 106.573C144.677 105.548 144.33 104.549 143.676 103.76C143.368 103.43 142.992 103.172 142.575 103.003C142.157 102.834 141.708 102.759 141.258 102.781C140.804 102.76 140.35 102.836 139.928 103.004C139.506 103.173 139.125 103.431 138.812 103.76C138.161 104.549 137.823 105.55 137.862 106.573L137.838 107.502L137.862 108.431C137.823 109.453 138.161 110.455 138.812 111.244C139.125 111.572 139.505 111.829 139.927 111.998C140.348 112.167 140.8 112.243 141.254 112.221L141.258 112.222ZM153.135 113.863C152.959 113.874 152.786 113.822 152.646 113.716C152.512 113.587 152.411 113.428 152.352 113.252L148.879 101.902L148.83 101.658C148.828 101.59 148.84 101.522 148.866 101.459C148.891 101.396 148.929 101.339 148.977 101.291C149.077 101.199 149.208 101.146 149.344 101.144H150.42C150.492 101.141 150.563 101.152 150.631 101.177C150.698 101.203 150.759 101.241 150.811 101.291C150.911 101.355 150.988 101.449 151.031 101.56L153.747 110.781L156.657 101.658C156.692 101.522 156.769 101.401 156.878 101.313C156.939 101.254 157.012 101.208 157.092 101.178C157.172 101.149 157.257 101.136 157.342 101.14H158.174C158.259 101.136 158.344 101.149 158.424 101.178C158.504 101.208 158.577 101.254 158.639 101.313C158.747 101.401 158.825 101.522 158.859 101.658L161.77 110.781L164.485 101.56C164.515 101.456 164.575 101.362 164.657 101.291C164.773 101.192 164.921 101.14 165.073 101.144H166.174C166.239 101.144 166.303 101.156 166.362 101.182C166.422 101.207 166.475 101.244 166.52 101.291C166.568 101.339 166.606 101.396 166.631 101.459C166.656 101.522 166.668 101.59 166.666 101.658L166.617 101.902L163.169 113.252C163.11 113.428 163.009 113.587 162.875 113.716C162.725 113.825 162.542 113.877 162.357 113.863H161.407C161.22 113.882 161.033 113.83 160.883 113.716C160.733 113.603 160.632 113.437 160.6 113.252L157.763 104.495L154.925 113.252C154.881 113.435 154.773 113.597 154.621 113.709C154.469 113.821 154.282 113.875 154.094 113.863H153.135Z" fill="white"/>
</svg>
