<svg width="200" height="200" viewBox="0 0 200 200" fill="none" xmlns="http://www.w3.org/2000/svg">
<path fill-rule="evenodd" clip-rule="evenodd" d="M95.3685 105.456C95.3685 104.729 95.2296 104.045 94.9519 103.403C94.6741 102.762 94.2954 102.199 93.8156 101.714C93.3359 101.229 92.7728 100.845 92.1264 100.563C91.48 100.28 90.7881 100.138 90.0508 100.138C89.3034 100.138 88.6065 100.28 87.9601 100.563C87.3137 100.845 86.7531 101.227 86.2784 101.706C85.8037 102.186 85.4275 102.749 85.1497 103.396C84.872 104.042 84.7331 104.729 84.7331 105.456C84.7331 106.183 84.872 106.87 85.1497 107.517C85.4275 108.163 85.8037 108.726 86.2784 109.206C86.7531 109.686 87.3137 110.067 87.9601 110.35C88.6065 110.632 89.3034 110.774 90.0508 110.774C90.7881 110.774 91.48 110.632 92.1264 110.35C92.7728 110.067 93.3359 109.683 93.8156 109.198C94.2954 108.713 94.6741 108.15 94.9519 107.509C95.2296 106.868 95.3685 106.183 95.3685 105.456ZM90.0508 96.972C92.0607 96.972 93.8333 97.5932 95.3685 98.8355V91.2756C95.3685 90.8211 95.5175 90.4448 95.8154 90.1469C96.1134 89.8489 96.4896 89.7 96.9441 89.7C97.3885 89.7 97.7647 89.8489 98.0728 90.1469C98.3809 90.4448 98.5349 90.8211 98.5349 91.2756V105.456C98.5349 107.82 97.7067 109.819 96.0503 111.456C94.3736 113.112 92.3738 113.94 90.0508 113.94C87.7076 113.94 85.7078 113.112 84.0513 111.456C82.3949 109.799 81.5667 107.799 81.5667 105.456C81.5667 103.113 82.3949 101.113 84.0513 99.4566C85.7078 97.8002 87.7076 96.972 90.0508 96.972ZM117.307 105.456C117.307 107.82 116.478 109.819 114.822 111.456C113.145 113.112 111.145 113.94 108.822 113.94C106.479 113.94 104.479 113.112 102.823 111.456C101.167 109.799 100.338 107.799 100.338 105.456C100.338 103.113 101.167 101.113 102.823 99.4566C104.479 97.8002 106.479 96.972 108.822 96.972C111.145 96.972 113.145 97.8002 114.822 99.4566C115.65 100.285 116.269 101.199 116.678 102.199C117.087 103.199 117.296 104.284 117.307 105.456ZM108.822 100.138C108.075 100.138 107.378 100.28 106.732 100.563C106.085 100.845 105.525 101.227 105.05 101.706C104.575 102.186 104.199 102.749 103.921 103.396C103.644 104.042 103.505 104.729 103.505 105.456C103.505 106.183 103.644 106.87 103.921 107.517C104.199 108.163 104.575 108.726 105.05 109.206C105.525 109.686 106.085 110.067 106.732 110.35C107.378 110.632 108.075 110.774 108.822 110.774C109.56 110.774 110.252 110.632 110.898 110.35C111.544 110.067 112.107 109.683 112.587 109.198C113.067 108.713 113.446 108.15 113.724 107.509C114.001 106.868 114.14 106.183 114.14 105.456C114.14 104.729 114.001 104.045 113.724 103.403C113.446 102.762 113.067 102.199 112.587 101.714C112.107 101.229 111.544 100.845 110.898 100.563C110.252 100.28 109.56 100.138 108.822 100.138ZM132.018 109.138C132.472 109.138 132.849 109.287 133.147 109.585C133.445 109.882 133.594 110.259 133.594 110.713C133.594 111.158 133.427 111.546 133.094 111.88C131.528 113.253 129.685 113.94 127.564 113.94C125.221 113.94 123.221 113.112 121.564 111.456C119.908 109.799 119.08 107.799 119.08 105.456C119.08 103.113 119.908 101.113 121.564 99.4566C123.221 97.8002 125.221 96.972 127.564 96.972C129.695 96.972 131.538 97.6588 133.094 99.0324C133.457 99.3556 133.639 99.7546 133.639 100.229C133.639 100.684 133.49 101.063 133.192 101.366C132.894 101.669 132.518 101.82 132.063 101.82C131.68 101.82 131.336 101.699 131.033 101.456C130.518 101.022 129.978 100.694 129.412 100.472C128.846 100.249 128.23 100.138 127.564 100.138C126.826 100.138 126.135 100.277 125.488 100.555C124.842 100.833 124.276 101.212 123.791 101.691C123.307 102.171 122.925 102.734 122.648 103.381C122.37 104.027 122.231 104.719 122.231 105.456C122.231 106.193 122.37 106.885 122.648 107.532C122.925 108.178 123.307 108.741 123.791 109.221C124.276 109.701 124.842 110.079 125.488 110.357C126.135 110.635 126.826 110.774 127.564 110.774C128.23 110.774 128.846 110.665 129.412 110.448C129.978 110.231 130.513 109.905 131.018 109.471C131.301 109.259 131.634 109.148 132.018 109.138ZM135.427 112.349V91.2907C135.427 90.8463 135.581 90.4701 135.889 90.162C136.197 89.854 136.574 89.7 137.018 89.7C137.452 89.7 137.824 89.854 138.132 90.162C138.44 90.4701 138.594 90.8463 138.594 91.2907V103.108L147.654 97.2144C147.906 97.0528 148.189 96.972 148.502 96.972C148.724 96.972 148.931 97.0124 149.123 97.0932C149.315 97.174 149.482 97.2876 149.623 97.4341C149.764 97.5805 149.878 97.7497 149.964 97.9416C150.05 98.1335 150.093 98.3355 150.093 98.5476C150.093 99.1132 149.891 99.5324 149.487 99.8051L143.139 103.926L149.653 111.259C149.946 111.582 150.093 111.95 150.093 112.365C150.093 112.577 150.05 112.779 149.964 112.971C149.878 113.162 149.764 113.332 149.623 113.478C149.482 113.625 149.315 113.738 149.123 113.819C148.931 113.9 148.724 113.94 148.502 113.94C148.078 113.94 147.724 113.804 147.441 113.531L140.442 105.668L138.594 106.88V112.349C138.594 112.784 138.44 113.157 138.132 113.471C137.824 113.784 137.452 113.94 137.018 113.94C136.574 113.94 136.197 113.784 135.889 113.471C135.581 113.157 135.427 112.784 135.427 112.349ZM165.395 103.88C165.223 103.325 164.968 102.817 164.63 102.358C164.292 101.898 163.898 101.504 163.448 101.176C162.999 100.848 162.504 100.593 161.963 100.411C161.423 100.229 160.865 100.138 160.289 100.138C159.714 100.138 159.153 100.229 158.608 100.411C158.062 100.593 157.562 100.848 157.108 101.176C156.653 101.504 156.259 101.898 155.926 102.358C155.593 102.817 155.345 103.325 155.184 103.88H165.395ZM164.713 109.168C165.168 109.168 165.544 109.317 165.842 109.615C166.14 109.913 166.289 110.289 166.289 110.743C166.289 111.188 166.137 111.567 165.834 111.88C164.269 113.253 162.42 113.94 160.289 113.94C157.946 113.94 155.946 113.112 154.29 111.456C152.633 109.799 151.805 107.799 151.805 105.456C151.805 103.113 152.633 101.113 154.29 99.4566C155.946 97.8002 157.946 96.972 160.289 96.972C162.612 96.972 164.612 97.8002 166.289 99.4566C167.117 100.275 167.738 101.186 168.152 102.191C168.566 103.196 168.773 104.284 168.773 105.456C168.773 105.911 168.619 106.287 168.311 106.585C168.003 106.883 167.627 107.032 167.183 107.032H155.184C155.355 107.587 155.608 108.095 155.941 108.554C156.275 109.014 156.666 109.408 157.115 109.736C157.565 110.064 158.06 110.319 158.6 110.501C159.14 110.683 159.704 110.774 160.289 110.774C160.956 110.774 161.567 110.673 162.123 110.471C162.678 110.269 163.193 109.966 163.668 109.562C163.971 109.309 164.319 109.178 164.713 109.168ZM173.683 98.5476V98.8506C174.44 98.2446 175.263 97.78 176.152 97.4568C177.041 97.1336 177.99 96.972 179 96.972C179.445 96.972 179.922 97.0023 180.432 97.0629C180.942 97.1235 181.412 97.2321 181.841 97.3886C182.27 97.5452 182.626 97.7598 182.909 98.0325C183.192 98.3052 183.333 98.6587 183.333 99.093C183.333 99.3152 183.29 99.5223 183.205 99.7142C183.119 99.9061 183.005 100.075 182.864 100.222C182.722 100.368 182.556 100.482 182.364 100.563C182.172 100.643 181.965 100.684 181.743 100.684C181.551 100.684 181.328 100.628 181.076 100.517C180.44 100.265 179.748 100.138 179 100.138C178.263 100.138 177.571 100.277 176.925 100.555C176.278 100.833 175.715 101.212 175.236 101.691C174.756 102.171 174.377 102.734 174.099 103.381C173.822 104.027 173.683 104.719 173.683 105.456V112.365C173.683 112.799 173.529 113.17 173.221 113.478C172.913 113.786 172.541 113.94 172.107 113.94C171.663 113.94 171.286 113.786 170.978 113.478C170.67 113.17 170.516 112.799 170.516 112.365V98.5476C170.516 98.1133 170.67 97.7421 170.978 97.4341C171.286 97.126 171.663 96.972 172.107 96.972C172.541 96.972 172.913 97.126 173.221 97.4341C173.529 97.7421 173.683 98.1133 173.683 98.5476Z" fill="#2496ED"/>
<path fill-rule="evenodd" clip-rule="evenodd" d="M74.1679 94.8352C72.8458 93.9178 69.816 93.5738 67.4472 94.0325C67.1718 91.7391 65.9047 89.7324 63.7012 87.955L62.4342 87.0376L61.5528 88.3563C60.451 90.0764 59.9001 92.4844 60.0654 94.7778C60.1205 95.5805 60.3959 97.0139 61.2222 98.2753C60.451 98.7339 58.8535 99.3073 56.7601 99.3073H16.9315L16.8213 99.766C16.4357 102.059 16.4357 109.226 20.9529 114.73C24.3684 118.916 29.4365 121.037 36.1021 121.037C50.5352 121.037 61.2222 114.1 66.2353 101.543C68.2184 101.601 72.4602 101.543 74.6086 97.2432C74.6637 97.1286 74.7739 96.8992 75.1595 96.0392L75.3799 95.5805L74.1679 94.8352ZM48.7724 78.6667H42.7127V84.4002H48.7724V78.6667ZM48.7724 85.5469H42.7127V91.2804H48.7724V85.5469ZM41.6109 85.5469H35.5512V91.2804H41.6109V85.5469ZM34.4495 85.5469H28.3898V91.2804H34.4495V85.5469ZM27.288 92.4271H21.2284V98.1606H27.288V92.4271ZM34.4495 92.4271H28.3898V98.1606H34.4495V92.4271ZM41.6109 92.4271H35.5512V98.1606H41.6109V92.4271ZM48.7724 92.4271H42.7127V98.1606H48.7724V92.4271ZM55.9338 92.4271H49.8741V98.1606H55.9338V92.4271Z" fill="#2496ED"/>
</svg>
