<svg width="200" height="200" viewBox="0 0 200 200" fill="none" xmlns="http://www.w3.org/2000/svg">
<path d="M117.985 72.7061C117.735 71.9084 117.137 71.2603 116.389 70.8615L101.183 63.5825C100.785 63.3831 100.336 63.3333 99.937 63.3333C99.5382 63.3333 99.0895 63.3333 98.6906 63.433L83.4847 70.7617C82.7368 71.1107 82.1884 71.7589 81.989 72.6064L78.2498 89.0089C78.1003 89.8564 78.2997 90.704 78.7982 91.402L89.3178 104.414C89.9161 105.013 90.7636 105.411 91.6111 105.461H108.363C109.26 105.561 110.108 105.162 110.656 104.414L121.176 91.402C121.674 90.704 121.874 89.8564 121.774 89.0089L117.985 72.7061Z" fill="white" stroke="white" stroke-width="5" stroke-miterlimit="10"/>
<path d="M117.985 72.7061C117.735 71.9084 117.137 71.2603 116.389 70.8615L101.183 63.5825C100.785 63.3831 100.336 63.3333 99.937 63.3333C99.5382 63.3333 99.0895 63.3333 98.6906 63.433L83.4847 70.7617C82.7368 71.1107 82.1884 71.7589 81.989 72.6064L78.2498 89.0089C78.1003 89.8564 78.2997 90.704 78.7982 91.402L89.3178 104.414C89.9161 105.013 90.7636 105.411 91.6111 105.461H108.363C109.26 105.561 110.108 105.162 110.656 104.414L121.176 91.402C121.674 90.704 121.874 89.8564 121.774 89.0089L117.985 72.7061Z" fill="#326DE6"/>
<path d="M115.642 88.361C115.592 88.361 115.542 88.361 115.542 88.3111C115.542 88.2613 115.442 88.2613 115.342 88.2613C115.143 88.2114 114.944 88.2114 114.744 88.2114C114.644 88.2114 114.545 88.2114 114.445 88.1615H114.395C113.847 88.1117 113.248 88.012 112.7 87.8624C112.551 87.8126 112.401 87.663 112.351 87.5134C112.401 87.5134 112.351 87.5134 112.351 87.5134L111.952 87.4137C112.152 85.9679 112.052 84.4722 111.753 83.0264C111.404 81.5806 110.806 80.1846 110.008 78.9383L110.307 78.6391V78.5893C110.307 78.4397 110.357 78.2403 110.457 78.1406C110.905 77.7417 111.354 77.4426 111.853 77.1435C111.952 77.0936 112.052 77.0437 112.152 76.9939C112.351 76.8942 112.501 76.7945 112.7 76.6948C112.75 76.6449 112.8 76.6449 112.85 76.595C112.9 76.5452 112.85 76.5452 112.85 76.4953C113.298 76.1463 113.398 75.5481 113.049 75.0994C112.9 74.9 112.6 74.7504 112.351 74.7504C112.102 74.7504 111.853 74.8501 111.653 74.9997L111.603 75.0495C111.553 75.0994 111.504 75.1492 111.454 75.1492C111.304 75.2988 111.155 75.4484 111.055 75.5979C111.005 75.6976 110.905 75.7475 110.855 75.7974C110.506 76.1962 110.058 76.595 109.609 76.8942C109.509 76.944 109.41 76.9939 109.31 76.9939C109.26 76.9939 109.16 76.9939 109.11 76.944H109.061L108.662 77.1933C108.263 76.7945 107.814 76.3956 107.415 75.9968C105.571 74.551 103.277 73.6536 100.934 73.4043L100.884 73.0054V73.0553C100.735 72.9556 100.685 72.806 100.635 72.6564C100.635 72.108 100.635 71.5596 100.735 70.9614V70.9115C100.735 70.8118 100.785 70.7121 100.785 70.6124C100.834 70.4129 100.834 70.2135 100.884 70.0141V69.715C100.934 69.2164 100.535 68.7179 100.037 68.668C99.7376 68.6181 99.4385 68.7677 99.1892 69.017C98.9898 69.2164 98.8901 69.4657 98.8901 69.715V69.9642C98.8901 70.1637 98.9399 70.3631 98.9898 70.5625C99.0396 70.6622 99.0396 70.7619 99.0396 70.8616V70.9115C99.1393 71.4599 99.1393 72.0083 99.1393 72.6066C99.0895 72.7562 99.0396 72.9057 98.8901 73.0054V73.1051L98.8402 73.504C98.2918 73.5538 97.7434 73.6536 97.1451 73.7533C94.8019 74.2518 92.6581 75.4982 91.0129 77.2432L90.7137 77.0437H90.6639C90.614 77.0437 90.5642 77.0936 90.4645 77.0936C90.3647 77.0936 90.265 77.0437 90.1653 76.9939C89.7166 76.6449 89.2679 76.2461 88.9189 75.8472C88.8691 75.7475 88.7694 75.6976 88.7195 75.6478C88.5699 75.4982 88.4702 75.3487 88.3207 75.1991C88.2708 75.1492 88.221 75.1492 88.1711 75.0994C88.1212 75.0495 88.1212 75.0495 88.1212 75.0495C87.9218 74.9 87.6725 74.8002 87.4233 74.8002C87.1241 74.8002 86.8748 74.9 86.7253 75.1492C86.4261 75.5979 86.5259 76.1962 86.9247 76.5452C86.9746 76.5452 86.9746 76.595 86.9746 76.595C86.9746 76.595 87.0743 76.6948 87.1241 76.6948C87.2737 76.7945 87.4731 76.8942 87.6725 76.9939C87.7723 77.0437 87.872 77.0936 87.9717 77.1435C88.4702 77.4426 88.9688 77.7417 89.3676 78.1406C89.4673 78.2403 89.5671 78.4397 89.5172 78.5893V78.5394L89.8163 78.8385C89.7665 78.9383 89.7166 78.9881 89.6668 79.0878C88.1212 81.5307 87.4731 84.4224 87.9218 87.2641L87.523 87.3639C87.523 87.4137 87.4731 87.4137 87.4731 87.4137C87.4233 87.5633 87.2737 87.663 87.1241 87.7627C86.5757 87.9123 86.0273 88.012 85.429 88.0618C85.3293 88.0618 85.2296 88.0618 85.1299 88.1117C84.9305 88.1117 84.7311 88.1615 84.5316 88.1615C84.4818 88.1615 84.4319 88.2114 84.3322 88.2114C84.2824 88.2114 84.2824 88.2114 84.2325 88.2613C83.6841 88.361 83.3351 88.8595 83.4348 89.4079C83.5345 89.8566 83.9832 90.1558 84.4319 90.1059C84.5316 90.1059 84.5815 90.1059 84.6812 90.0561C84.7311 90.0561 84.7311 90.0561 84.7311 90.0062C84.7311 89.9563 84.8806 90.0062 84.9305 90.0062C85.1299 89.9563 85.3293 89.8566 85.4789 89.8068C85.5786 89.7569 85.6783 89.7071 85.778 89.7071H85.8279C86.3763 89.5076 86.8748 89.3581 87.4731 89.2584H87.523C87.6725 89.2584 87.8221 89.3082 87.9218 89.4079C87.9717 89.4079 87.9717 89.4578 87.9717 89.4578L88.4204 89.4079C89.1682 91.7013 90.5642 93.7454 92.5085 95.241C92.9572 95.59 93.3561 95.8892 93.8546 96.1384L93.6054 96.4874C93.6054 96.5373 93.6552 96.5373 93.6552 96.5373C93.7549 96.6869 93.7549 96.8863 93.7051 97.0358C93.5057 97.5344 93.2065 98.033 92.9074 98.4817V98.5315C92.8575 98.6312 92.8077 98.6811 92.708 98.7808C92.6082 98.8805 92.5085 99.0799 92.359 99.2793C92.3091 99.3292 92.3091 99.3791 92.2593 99.4289C92.2593 99.4289 92.2593 99.4788 92.2094 99.4788C91.9601 99.9773 92.1595 100.576 92.6082 100.825C92.708 100.875 92.8575 100.925 92.9572 100.925C93.3561 100.925 93.7051 100.675 93.9045 100.326C93.9045 100.326 93.9045 100.276 93.9544 100.276C93.9544 100.227 94.0042 100.177 94.0541 100.127C94.1039 99.9275 94.2036 99.7779 94.2535 99.5785L94.3532 99.2793C94.5028 98.7309 94.752 98.2324 95.0013 97.7338C95.101 97.5843 95.2506 97.4845 95.4002 97.4347C95.45 97.4347 95.45 97.4347 95.45 97.3848L95.6494 96.986C97.0454 97.5344 98.4912 97.7837 99.9869 97.7837C100.884 97.7837 101.782 97.684 102.679 97.4347C103.228 97.335 103.776 97.1356 104.274 96.986L104.474 97.335C104.524 97.335 104.524 97.335 104.524 97.3848C104.673 97.4347 104.823 97.5344 104.923 97.684C105.172 98.1825 105.421 98.6811 105.571 99.2295V99.2793L105.67 99.5785C105.72 99.7779 105.77 99.9773 105.87 100.127C105.92 100.177 105.92 100.227 105.97 100.276C105.97 100.276 105.97 100.326 106.019 100.326C106.219 100.675 106.568 100.925 106.967 100.925C107.116 100.925 107.216 100.875 107.366 100.825C107.565 100.725 107.764 100.526 107.814 100.276C107.864 100.027 107.864 99.7779 107.764 99.5286C107.764 99.4788 107.715 99.4788 107.715 99.4788C107.715 99.4289 107.665 99.3791 107.615 99.3292C107.515 99.1298 107.415 98.9802 107.266 98.8306C107.216 98.7309 107.166 98.6811 107.066 98.5814V98.4817C106.717 98.033 106.468 97.5344 106.269 97.0358C106.219 96.8863 106.219 96.6869 106.319 96.5373C106.319 96.4874 106.368 96.4874 106.368 96.4874L106.219 96.0886C108.761 94.5431 110.706 92.15 111.603 89.3082L112.002 89.3581C112.052 89.3581 112.052 89.3082 112.052 89.3082C112.152 89.2085 112.301 89.1587 112.451 89.1587H112.501C113.049 89.2584 113.597 89.4079 114.096 89.6074H114.146C114.246 89.6572 114.345 89.7071 114.445 89.7071C114.644 89.8068 114.794 89.9065 114.993 89.9563C115.043 89.9563 115.093 90.0062 115.193 90.0062C115.243 90.0062 115.243 90.0062 115.293 90.0561C115.392 90.1059 115.442 90.1059 115.542 90.1059C115.991 90.1059 116.389 89.8068 116.539 89.4079C116.489 88.8595 116.09 88.4607 115.642 88.361ZM101.233 86.8154L99.8872 87.4636L98.5411 86.8154L98.1921 85.3696L99.1393 84.1731H100.635L101.582 85.3696L101.233 86.8154ZM109.36 83.5748C109.609 84.6218 109.659 85.6688 109.559 86.7157L104.823 85.3696C104.374 85.2699 104.125 84.8212 104.225 84.3725C104.274 84.2229 104.324 84.1232 104.424 84.0235L108.163 80.6333C108.712 81.5307 109.11 82.5279 109.36 83.5748ZM106.668 78.7887L102.579 81.6803C102.23 81.8797 101.732 81.8299 101.483 81.4809C101.383 81.3812 101.333 81.2815 101.333 81.1319L101.034 76.0965C103.228 76.3458 105.172 77.293 106.668 78.7887ZM97.6437 76.2461L98.6408 76.0466L98.3915 81.0322C98.3915 81.4809 97.9927 81.8299 97.544 81.8299C97.3944 81.8299 97.2947 81.78 97.1451 81.7302L93.0071 78.7887C94.3033 77.5423 95.8987 76.6449 97.6437 76.2461ZM91.5613 80.6333L95.2506 83.9238C95.5996 84.2229 95.6494 84.7215 95.3503 85.0705C95.2506 85.2201 95.1509 85.2699 94.9515 85.3198L90.1155 86.7157C89.9659 84.6218 90.4645 82.478 91.5613 80.6333ZM90.7137 89.0589L95.6494 88.2114C96.0483 88.2114 96.4471 88.4607 96.497 88.8595C96.5468 89.0091 96.5468 89.2085 96.4471 89.3581L94.5526 93.9448C92.8077 92.7981 91.4117 91.0532 90.7137 89.0589ZM102.031 95.241C101.333 95.3906 100.635 95.4903 99.8872 95.4903C98.8402 95.4903 97.7434 95.2909 96.7463 94.9918L99.1892 90.5546C99.4385 90.2555 99.8373 90.1558 100.186 90.3552C100.336 90.4549 100.436 90.5546 100.585 90.7042L102.978 95.0416C102.679 95.0915 102.38 95.1413 102.031 95.241ZM108.113 90.9036C107.366 92.1001 106.319 93.1471 105.122 93.8949L103.178 89.2085C103.078 88.8097 103.277 88.4108 103.626 88.2613C103.776 88.2114 103.925 88.1615 104.075 88.1615L109.061 89.0091C108.811 89.7071 108.512 90.3552 108.113 90.9036Z" fill="white"/>
<path d="M33.919 127.225C34.3181 126.789 34.681 126.354 35.1164 125.918C35.5156 125.447 35.9147 125.011 36.3139 124.576C36.713 124.104 37.0759 123.705 37.4025 123.306C37.729 122.906 38.0556 122.544 38.3096 122.253H42.9543C42.0109 123.306 41.1037 124.358 40.2328 125.338C39.3257 126.317 38.3822 127.333 37.3299 128.349C37.9105 128.894 38.4548 129.438 38.9628 130.055C39.5071 130.708 40.0514 131.361 40.5957 132.087C41.1037 132.776 41.6117 133.502 42.0472 134.192C42.4826 134.881 42.8455 135.534 43.1358 136.115H38.6362C38.3459 135.643 38.0193 135.171 37.6565 134.627C37.2936 134.083 36.8945 133.538 36.5316 132.958C36.1324 132.414 35.697 131.869 35.2253 131.361C34.8261 130.89 34.3907 130.454 33.919 130.091V136.151H30V116.266L33.919 115.649V127.225Z" fill="white"/>
<path d="M56.7795 135.571C55.945 135.788 55.0741 135.97 54.2032 136.079C53.1146 136.26 51.9897 136.333 50.9011 136.333C49.8851 136.369 48.9053 136.187 47.9619 135.861C47.2362 135.571 46.6193 135.135 46.1113 134.555C45.6395 133.938 45.313 133.248 45.1315 132.486C44.9138 131.652 44.8412 130.744 44.8412 129.874V122.217H48.7602V129.438C48.7602 130.708 48.9416 131.615 49.2682 132.16C49.5948 132.704 50.2117 132.994 51.1188 132.994C51.4091 132.994 51.6994 132.994 52.026 132.958C52.3526 132.922 52.6066 132.922 52.8606 132.849V122.217H56.7795V135.571Z" fill="white"/>
<path d="M69.3347 129.039C69.3347 126.499 68.3913 125.265 66.5407 125.265C66.1415 125.265 65.7424 125.301 65.3432 125.41C65.0166 125.483 64.69 125.628 64.3998 125.809V132.922C64.5812 132.958 64.8352 132.994 65.1255 133.03C65.4158 133.067 65.7424 133.067 66.1052 133.067C67.0487 133.139 67.9558 132.74 68.5364 131.978C69.0807 131.107 69.371 130.091 69.3347 129.039ZM73.3263 129.184C73.3263 130.2 73.1811 131.216 72.8183 132.196C72.528 133.067 72.0562 133.829 71.4394 134.482C70.7862 135.135 70.0242 135.643 69.1896 135.97C68.2098 136.333 67.1938 136.478 66.1415 136.478C65.6698 136.478 65.1618 136.441 64.6538 136.405C64.1457 136.369 63.6377 136.296 63.1297 136.26C62.658 136.187 62.1863 136.115 61.7145 136.006C61.2428 135.933 60.8437 135.825 60.5171 135.679V116.266L64.436 115.649V122.544C64.8715 122.362 65.3432 122.217 65.8149 122.108C66.3229 121.999 66.831 121.963 67.339 121.963C68.2461 121.963 69.117 122.108 69.9516 122.507C70.6773 122.834 71.3305 123.342 71.8385 123.959C72.3828 124.648 72.782 125.41 72.9997 126.245C73.2174 127.152 73.3263 128.168 73.3263 129.184Z" fill="white"/>
<path d="M75.6849 129.257C75.6486 128.168 75.8663 127.079 76.2292 126.063C76.5558 125.192 77.0638 124.43 77.7169 123.741C78.3338 123.124 79.0233 122.652 79.8216 122.362C80.6199 122.036 81.4545 121.89 82.2891 121.89C84.2485 121.89 85.8089 122.507 86.9338 123.705C88.0587 124.902 88.6392 126.68 88.6392 128.966C88.6392 129.184 88.6392 129.438 88.6029 129.728C88.5667 130.019 88.5667 130.236 88.5667 130.454H79.6764C79.749 131.216 80.1481 131.942 80.8013 132.377C81.5996 132.885 82.5431 133.139 83.4865 133.103C84.176 133.103 84.9017 133.03 85.5912 132.922C86.1717 132.813 86.7523 132.631 87.2966 132.414L87.8409 135.607C87.5869 135.752 87.2966 135.824 87.0063 135.933C86.6072 136.042 86.208 136.151 85.8089 136.187C85.3734 136.26 84.938 136.332 84.43 136.405C83.9582 136.441 83.4502 136.478 82.9422 136.478C81.8173 136.514 80.7287 136.332 79.6764 135.933C78.8055 135.607 78.0435 135.099 77.3904 134.446C76.7735 133.792 76.3381 132.994 76.0478 132.16C75.83 131.18 75.6849 130.236 75.6849 129.257ZM84.9017 127.769C84.9017 127.442 84.8291 127.116 84.7203 126.789C84.6477 126.462 84.4663 126.208 84.2848 125.954C84.0671 125.7 83.8131 125.483 83.5228 125.338C83.1599 125.156 82.7971 125.084 82.3979 125.084C81.9988 125.084 81.6359 125.156 81.273 125.338C80.9827 125.483 80.6925 125.664 80.4747 125.918C80.257 126.172 80.0756 126.462 79.9667 126.789C79.8579 127.116 79.7853 127.442 79.749 127.769H84.9017Z" fill="white"/>
<path d="M100.033 125.701C99.6704 125.628 99.2712 125.519 98.7995 125.447C98.2915 125.338 97.7835 125.301 97.2755 125.301C96.9852 125.301 96.6949 125.338 96.3683 125.374C96.1143 125.41 95.8603 125.447 95.6063 125.519V136.079H91.6873V122.943C92.4856 122.652 93.3202 122.435 94.1548 122.253C95.2071 121.999 96.2957 121.89 97.348 121.927C97.602 121.927 97.856 121.963 98.11 121.963C98.4003 121.963 98.6906 121.999 99.0172 122.072C99.3075 122.108 99.5978 122.144 99.9244 122.217C100.178 122.253 100.432 122.326 100.686 122.435L100.033 125.701Z" fill="white"/>
<path d="M102.791 122.689C103.626 122.471 104.496 122.29 105.367 122.145C106.456 121.963 107.581 121.891 108.669 121.891C109.649 121.854 110.629 122.036 111.572 122.362C112.298 122.616 112.951 123.052 113.423 123.632C113.895 124.213 114.221 124.902 114.403 125.628C114.62 126.463 114.693 127.334 114.693 128.204V136.006H110.81V128.712C110.81 127.442 110.629 126.572 110.302 126.027C109.976 125.519 109.359 125.229 108.452 125.229C108.161 125.229 107.871 125.229 107.545 125.265C107.218 125.265 106.964 125.302 106.71 125.338V136.006H102.791V122.689Z" fill="white"/>
<path d="M117.669 129.257C117.632 128.168 117.85 127.079 118.213 126.063C118.539 125.192 119.047 124.43 119.701 123.741C120.317 123.124 121.007 122.652 121.805 122.362C122.604 122.036 123.438 121.89 124.273 121.89C126.232 121.89 127.793 122.507 128.917 123.705C130.042 124.902 130.623 126.68 130.623 129.003C130.623 129.22 130.623 129.474 130.587 129.765C130.55 130.055 130.55 130.273 130.55 130.49H121.66C121.733 131.252 122.132 131.978 122.785 132.414C123.583 132.922 124.527 133.176 125.47 133.139C126.16 133.139 126.885 133.067 127.575 132.958C128.155 132.849 128.736 132.668 129.317 132.414L129.861 135.607C129.607 135.752 129.317 135.824 129.026 135.933C128.627 136.042 128.228 136.151 127.829 136.187C127.393 136.26 126.958 136.332 126.45 136.405C125.978 136.441 125.47 136.478 124.962 136.478C123.837 136.514 122.749 136.332 121.696 135.933C120.825 135.607 120.063 135.099 119.41 134.446C118.793 133.792 118.358 132.994 118.068 132.16C117.777 131.18 117.632 130.2 117.669 129.257ZM126.849 127.769C126.849 127.442 126.777 127.116 126.668 126.789C126.595 126.462 126.414 126.208 126.232 125.954C126.014 125.7 125.76 125.483 125.47 125.338C125.107 125.156 124.744 125.084 124.345 125.084C123.946 125.084 123.583 125.156 123.22 125.338C122.93 125.483 122.676 125.664 122.458 125.918C122.241 126.172 122.059 126.462 121.95 126.789C121.842 127.116 121.769 127.442 121.733 127.769H126.849Z" fill="white"/>
<path d="M133.526 118.77L137.445 118.153V122.217H142.162V125.483H137.445V130.345C137.409 131.035 137.554 131.724 137.88 132.305C138.171 132.776 138.751 133.03 139.658 133.03C140.094 133.03 140.529 132.994 140.928 132.921C141.364 132.849 141.763 132.74 142.162 132.595L142.706 135.643C142.198 135.861 141.654 136.006 141.11 136.151C140.42 136.296 139.695 136.369 138.969 136.369C138.062 136.405 137.155 136.26 136.32 135.933C135.667 135.679 135.086 135.244 134.651 134.736C134.215 134.192 133.925 133.538 133.744 132.849C133.562 132.051 133.49 131.216 133.526 130.418V118.77" fill="white"/>
<path d="M144.158 129.257C144.122 128.168 144.339 127.079 144.702 126.063C145.029 125.192 145.537 124.43 146.19 123.741C146.807 123.124 147.496 122.652 148.294 122.362C149.093 122.036 149.927 121.89 150.762 121.89C152.721 121.89 154.282 122.507 155.407 123.705C156.532 124.902 157.112 126.68 157.112 129.003C157.112 129.22 157.112 129.474 157.076 129.765C157.076 130.055 157.04 130.273 157.04 130.49H148.186C148.258 131.252 148.657 131.978 149.311 132.414C150.109 132.922 151.052 133.176 151.996 133.139C152.685 133.139 153.411 133.067 154.1 132.958C154.681 132.849 155.262 132.668 155.806 132.414L156.35 135.607C156.096 135.752 155.806 135.824 155.516 135.933C155.116 136.042 154.717 136.151 154.318 136.187C153.883 136.26 153.447 136.332 152.939 136.405C152.467 136.441 151.959 136.478 151.451 136.478C150.327 136.514 149.238 136.332 148.186 135.933C147.315 135.607 146.553 135.099 145.9 134.446C145.283 133.792 144.847 132.994 144.557 132.16C144.303 131.18 144.158 130.2 144.158 129.257ZM153.338 127.769C153.338 127.442 153.266 127.116 153.157 126.789C153.084 126.462 152.903 126.208 152.721 125.954C152.504 125.7 152.25 125.483 151.959 125.338C151.597 125.156 151.234 125.084 150.835 125.084C150.435 125.084 150.073 125.156 149.71 125.338C149.419 125.483 149.129 125.664 148.911 125.918C148.694 126.172 148.512 126.462 148.403 126.789C148.294 127.116 148.222 127.442 148.186 127.769H153.338Z" fill="white"/>
<path d="M164.152 133.248C164.66 133.284 165.204 133.212 165.676 133.03C165.966 132.885 166.148 132.559 166.111 132.232C166.075 131.869 165.857 131.543 165.531 131.434C164.986 131.107 164.369 130.817 163.753 130.635C163.136 130.418 162.591 130.164 162.083 129.91C161.612 129.692 161.213 129.402 160.813 129.039C160.451 128.676 160.197 128.277 160.015 127.805C159.797 127.261 159.725 126.68 159.725 126.1C159.689 124.902 160.233 123.741 161.176 123.015C162.156 122.253 163.462 121.89 165.132 121.89C165.93 121.89 166.764 121.963 167.563 122.144C168.18 122.253 168.796 122.398 169.413 122.616L168.724 125.7C168.216 125.519 167.744 125.41 167.236 125.265C166.656 125.12 166.039 125.084 165.458 125.084C164.224 125.084 163.607 125.41 163.607 126.1C163.607 126.245 163.644 126.39 163.68 126.535C163.753 126.68 163.861 126.789 164.007 126.898C164.152 127.007 164.369 127.116 164.623 127.261C164.877 127.406 165.24 127.551 165.676 127.696C166.402 127.95 167.127 128.277 167.78 128.64C168.288 128.894 168.724 129.22 169.087 129.656C169.413 129.982 169.631 130.381 169.776 130.853C169.921 131.361 169.994 131.869 169.994 132.377C170.066 133.611 169.486 134.808 168.434 135.498C167.418 136.187 165.966 136.55 164.079 136.55C163.027 136.586 162.011 136.478 160.995 136.224C160.414 136.078 159.87 135.897 159.326 135.716L159.979 132.522C160.632 132.776 161.321 132.994 162.011 133.139C162.737 133.176 163.426 133.248 164.152 133.248Z" fill="white"/>
</svg>
