<svg width="200" height="200" viewBox="0 0 200 200" fill="none" xmlns="http://www.w3.org/2000/svg">
<path d="M108.042 122.249L97.5875 63.9765C96.9019 59.8632 95.5308 55.7499 92.96 51.8079C89.5322 46.3234 84.0477 42.5529 77.8777 41.0104C53.5404 35.1831 35.5445 59.5204 46.1707 81.1155L71.5363 135.446C72.2219 137.16 73.2502 138.874 74.4499 140.416C76.5066 143.158 79.2488 145.215 82.5052 146.243C98.9586 151.385 112.156 136.817 108.042 122.249Z" fill="url(#paint0_linear)"/>
<path d="M155.517 85.5717C153.118 81.8011 149.69 78.8875 145.748 77.1736L83.705 43.0671C81.9911 42.2101 80.1058 41.3532 78.0491 40.839C51.4837 34.669 32.4595 63.8052 49.4271 86.4286C51.9979 89.8564 55.5971 92.5986 59.7104 94.1411L122.268 122.249C123.639 123.106 125.01 123.62 126.552 124.134C150.547 131.675 168.714 106.31 155.517 85.5717Z" fill="url(#paint1_linear)"/>
<path d="M155.517 85.5715C152.432 80.7726 147.633 77.3448 141.977 75.9737C135.979 74.6026 130.323 75.1168 125.524 77.1735L59.539 102.025C59.539 102.025 59.1962 102.196 58.5107 102.71C41.5431 109.395 33.1451 131.504 46.8562 149.843C49.9412 153.956 54.226 157.041 59.0249 158.412C68.1085 161.154 76.3352 160.126 83.0194 156.527H83.1908L147.633 122.077C147.633 122.077 147.633 122.077 147.805 121.906C159.116 115.393 164.429 99.4541 155.517 85.5715Z" fill="url(#paint2_linear)"/>
<path d="M126.21 62.0914C128.266 57.4639 128.095 51.808 124.667 46.6663C122.782 43.5813 119.697 41.5246 116.269 40.6677C108.556 38.7824 102.044 42.3816 98.9586 47.866L45.9993 112.137C45.9993 112.137 45.9993 112.137 45.9993 112.308C38.4581 122.249 37.2584 136.989 46.8562 149.843C49.9412 153.956 54.226 157.041 59.0249 158.412C77.0208 164.068 92.103 154.128 96.9019 139.902L126.21 62.0914Z" fill="url(#paint3_linear)"/>
<path d="M137.007 63.1196H62.9668V137.16H137.007V63.1196Z" fill="black"/>
<path d="M97.7589 123.277H69.9938V127.905H97.7589V123.277Z" fill="white"/>
<path d="M79.2488 79.0587H69.9938V72.8887H95.3594V79.0587H85.933V103.567H79.2488V79.0587Z" fill="white"/>
<path d="M95.7022 88.3137C95.7022 79.5729 102.215 72.3745 111.641 72.3745C117.469 72.3745 120.896 74.2598 123.81 77.1734L119.525 82.1437C117.126 79.9156 114.726 78.7159 111.641 78.7159C106.5 78.7159 102.729 83.0007 102.729 88.3137V88.1423C102.729 93.4554 106.328 97.7402 111.641 97.7402C115.069 97.7402 117.297 96.369 119.697 94.141L123.981 98.4257C120.896 101.854 117.297 103.91 111.47 103.91C102.386 104.082 95.7022 97.0546 95.7022 88.3137Z" fill="white"/>
<defs>
<linearGradient id="paint0_linear" x1="43.0407" y1="93.7519" x2="108.841" y2="93.7519" gradientUnits="userSpaceOnUse">
<stop stop-color="#905CFB"/>
<stop offset="0.0677254" stop-color="#776CF9"/>
<stop offset="0.1729" stop-color="#5681F7"/>
<stop offset="0.2865" stop-color="#3B92F5"/>
<stop offset="0.4097" stop-color="#269FF4"/>
<stop offset="0.5474" stop-color="#17A9F3"/>
<stop offset="0.7111" stop-color="#0FAEF2"/>
<stop offset="0.9677" stop-color="#0CB0F2"/>
</linearGradient>
<linearGradient id="paint1_linear" x1="49.1037" y1="56.7253" x2="158.65" y2="115.336" gradientUnits="userSpaceOnUse">
<stop stop-color="#905CFB"/>
<stop offset="0.0677254" stop-color="#776CF9"/>
<stop offset="0.1729" stop-color="#5681F7"/>
<stop offset="0.2865" stop-color="#3B92F5"/>
<stop offset="0.4097" stop-color="#269FF4"/>
<stop offset="0.5474" stop-color="#17A9F3"/>
<stop offset="0.7111" stop-color="#0FAEF2"/>
<stop offset="0.9677" stop-color="#0CB0F2"/>
</linearGradient>
<linearGradient id="paint2_linear" x1="6.95058" y1="161.531" x2="135.95" y2="97.0311" gradientUnits="userSpaceOnUse">
<stop stop-color="#3BEA62"/>
<stop offset="0.117" stop-color="#31DE80"/>
<stop offset="0.3025" stop-color="#24CEA8"/>
<stop offset="0.4844" stop-color="#1AC1C9"/>
<stop offset="0.6592" stop-color="#12B7DF"/>
<stop offset="0.8238" stop-color="#0EB2ED"/>
<stop offset="0.9677" stop-color="#0CB0F2"/>
</linearGradient>
<linearGradient id="paint3_linear" x1="106.746" y1="50.1803" x2="49.2954" y2="172.996" gradientUnits="userSpaceOnUse">
<stop stop-color="#3BEA62"/>
<stop offset="0.0939775" stop-color="#2FDB87"/>
<stop offset="0.196" stop-color="#24CEA8"/>
<stop offset="0.3063" stop-color="#1BC3C3"/>
<stop offset="0.4259" stop-color="#14BAD8"/>
<stop offset="0.5596" stop-color="#10B5E7"/>
<stop offset="0.7185" stop-color="#0DB1EF"/>
<stop offset="0.9677" stop-color="#0CB0F2"/>
</linearGradient>
</defs>
</svg>
