<svg width="200" height="200" viewBox="0 0 200 200" fill="none" xmlns="http://www.w3.org/2000/svg">
<path d="M55.7338 81.1921C55.1598 82.605 54.3651 83.9737 53.4379 85.2099C45.2256 76.6886 31.6709 76.4678 23.1937 84.6801C14.7165 92.8924 14.4516 106.447 22.6639 114.924C22.9288 115.233 23.2378 115.498 23.5469 115.763L24.3416 116.47C33.3487 124.064 46.8592 122.916 54.4534 113.909C57.3674 110.465 59.1335 106.138 59.4425 101.635C60.0607 96.2921 58.427 89.4044 55.7338 81.1921ZM26.6375 115.984C26.0194 116.779 24.8715 116.867 24.0767 116.249C23.282 115.631 23.1937 114.483 23.8118 113.688C24.4299 112.893 25.5779 112.805 26.3726 113.423C27.1232 114.041 27.2557 115.189 26.6375 115.984ZM55.6013 109.582C50.3472 116.602 39.0443 114.218 31.8475 114.571C31.8475 114.571 30.5671 114.659 29.2867 114.836C29.2867 114.836 29.7723 114.615 30.3905 114.394C35.468 112.628 37.8522 112.275 40.9428 110.686C46.7267 107.727 52.5107 101.237 53.6586 94.526C51.451 100.972 44.7399 106.535 38.6469 108.787C34.4525 110.332 26.9025 111.834 26.9025 111.834L26.5934 111.657C21.4717 109.14 21.2951 98.014 30.6554 94.4377C34.7615 92.8482 38.6469 93.7313 43.1063 92.6716C47.8305 91.5678 53.3054 88.0357 55.513 83.3997C57.9855 90.8614 60.9879 102.429 55.6013 109.582Z" fill="#6DB33F"/>
<path d="M71.5844 108.522C71.0104 108.169 70.6572 107.551 70.7013 106.889C70.7013 105.829 71.5402 104.946 72.5999 104.946C72.5999 104.946 72.5999 104.946 72.644 104.946C72.9973 104.946 73.3505 105.034 73.6595 105.211C75.4256 106.447 77.5008 107.109 79.6201 107.198C81.6511 107.198 82.8432 106.315 82.8432 104.946V104.858C82.8432 103.224 80.6356 102.694 78.2072 101.944C75.1607 101.06 71.7168 99.8242 71.7168 95.8505V95.7622C71.7168 91.8327 74.9841 89.4485 79.0902 89.4485C81.3861 89.4926 83.5938 90.0666 85.6247 91.1263C86.3312 91.4795 86.7727 92.1418 86.7727 92.9365C86.7727 93.9962 85.8897 94.8792 84.83 94.8792H84.7859C84.4768 94.8792 84.1677 94.7909 83.8587 94.6584C82.3575 93.8195 80.7239 93.3339 79.0019 93.2456C77.1475 93.2456 76.0879 94.1286 76.0879 95.2766V95.3649C76.0879 96.9102 78.3397 97.5283 80.768 98.3231C83.8145 99.2503 87.2142 100.663 87.2142 104.372V104.46C87.2142 108.831 83.8145 110.995 79.5318 110.995C76.706 110.951 73.9244 110.112 71.5844 108.522Z" fill="#6DB33F"/>
<path d="M88.9803 91.8768C88.9361 90.5964 89.9958 89.5368 91.2762 89.4926H91.3203C92.6449 89.4926 93.7045 90.5523 93.7045 91.8768V93.2897C95.2499 91.1262 97.4133 89.4043 100.769 89.4043C105.626 89.4043 110.394 93.2455 110.394 100.177V100.266C110.394 107.153 105.67 111.039 100.769 111.039C97.325 111.039 95.1616 109.317 93.7045 107.374V114.703C93.7045 116.028 92.6449 117.088 91.3203 117.088C90.0399 117.088 88.9803 116.028 88.9803 114.748V114.703V91.8768V91.8768ZM105.626 100.266V100.177C105.626 96.1596 102.932 93.5546 99.7092 93.5546C96.4861 93.5546 93.6604 96.2479 93.6604 100.177V100.266C93.6604 104.239 96.4861 106.889 99.7092 106.889C102.932 106.889 105.626 104.372 105.626 100.266Z" fill="#6DB33F"/>
<path d="M112.249 91.8769C112.204 90.5965 113.264 89.5368 114.544 89.4927H114.589C115.913 89.4927 116.973 90.5523 116.973 91.8769V93.0248C117.194 91.2587 120.108 89.4927 122.183 89.4927C123.375 89.4044 124.434 90.2874 124.523 91.4795C124.523 91.612 124.523 91.7003 124.523 91.8327C124.523 92.9807 123.728 93.952 122.624 94.1286C119.225 94.7026 116.929 97.6608 116.929 101.767V108.611C116.929 109.935 115.869 110.951 114.544 110.951C113.264 110.951 112.204 109.935 112.204 108.655C112.204 108.655 112.204 108.655 112.204 108.611L112.249 91.8769Z" fill="#6DB33F"/>
<path d="M126.421 91.9211C126.377 90.6407 127.437 89.581 128.717 89.5369H128.761C130.086 89.5369 131.146 90.5965 131.146 91.9211V108.655C131.146 109.979 130.086 110.995 128.761 110.995C127.437 110.995 126.421 109.935 126.421 108.655V91.9211Z" fill="#6DB33F"/>
<path d="M133.574 91.9209C133.53 90.6405 134.589 89.5809 135.87 89.5367H135.914C137.238 89.5367 138.298 90.5964 138.298 91.9209V92.8923C139.711 90.6847 142.184 89.4043 144.788 89.4926C149.469 89.4926 152.162 92.6274 152.162 97.4399V108.61C152.206 109.891 151.191 110.906 149.91 110.95C149.866 110.95 149.866 110.95 149.822 110.95C148.541 110.995 147.482 109.935 147.438 108.655V108.61V98.897C147.438 95.6739 145.848 93.8195 142.978 93.8195C140.241 93.8195 138.298 95.7622 138.298 98.9853V108.655C138.298 109.979 137.238 111.039 135.914 111.039C134.589 111.039 133.53 109.979 133.53 108.655L133.574 91.9209Z" fill="#6DB33F"/>
<path d="M173.09 89.4484C171.765 89.4484 170.706 90.5081 170.706 91.8326V93.2455C169.16 91.082 166.997 89.3601 163.641 89.3601C158.785 89.3601 154.016 93.2013 154.016 100.133V100.222C154.016 107.109 158.741 110.995 163.641 110.995C167.085 110.995 169.249 109.273 170.706 107.374C170.485 111.127 168.189 113.07 164.171 113.07C161.964 113.07 159.756 112.54 157.813 111.436C157.548 111.304 157.284 111.26 156.974 111.26C155.871 111.26 154.988 112.098 154.943 113.202C154.943 114.041 155.473 114.836 156.268 115.101C158.785 116.337 161.522 116.955 164.304 116.955C168.057 116.955 170.971 116.072 172.825 114.174C174.547 112.452 175.474 109.847 175.474 106.359V91.8768C175.518 90.5522 174.459 89.4926 173.134 89.4484C173.134 89.4484 173.09 89.4484 173.09 89.4484ZM164.745 106.888C161.478 106.888 158.829 104.328 158.829 100.222V100.133C158.829 96.1154 161.522 93.5104 164.745 93.5104C167.968 93.5104 170.794 96.2037 170.794 100.133V100.222C170.838 104.195 168.013 106.888 164.745 106.888Z" fill="#6DB33F"/>
<path d="M131.19 83.7969C131.19 85.1215 130.13 86.1811 128.805 86.1811C127.481 86.1811 126.421 85.1215 126.421 83.7969C126.421 82.4724 127.481 81.4127 128.805 81.4127C130.086 81.3686 131.146 82.4282 131.19 83.7086C131.19 83.7528 131.19 83.7528 131.19 83.7969Z" fill="#6DB33F"/>
<path d="M180.905 94.4375C179.58 94.4375 178.477 93.3337 178.477 92.0092C178.477 90.6846 179.58 89.5808 180.905 89.5808C182.23 89.5808 183.333 90.6846 183.333 92.0092C183.333 93.3337 182.23 94.4375 180.905 94.4375ZM180.905 89.934C179.757 89.934 178.83 90.8612 178.83 92.0092C178.83 93.1571 179.757 94.0843 180.905 94.0843C182.053 94.0843 182.98 93.1571 182.98 92.0092C182.98 90.8612 182.097 89.934 180.949 89.934H180.905ZM181.567 93.3779L180.861 92.2741H180.375V93.3779H179.978V90.5963H181.126C181.611 90.5522 182.009 90.9495 182.053 91.4352C182.053 91.8326 181.744 92.1858 181.346 92.2741L182.097 93.3779H181.567ZM181.082 90.9495H180.375V91.9209H181.126C181.391 91.9209 181.611 91.7001 181.611 91.4352C181.611 91.1703 181.391 90.9495 181.082 90.9495Z" fill="#6DB33F"/>
<path d="M54.4534 113.909C57.3674 110.465 59.1335 106.138 59.4426 101.635Z" fill="#6DB33F"/>
<path d="M55.6013 109.582C50.3472 116.602 39.0443 114.218 31.8475 114.571C31.8475 114.571 30.5671 114.659 29.2867 114.836C29.2867 114.836 29.7723 114.615 30.3905 114.394C35.468 112.628 37.8522 112.275 40.9428 110.686C46.7267 107.727 52.5107 101.237 53.6586 94.526C51.451 100.972 44.7399 106.535 38.6469 108.787C34.4525 110.332 26.9024 111.834 26.9024 111.834L26.5934 111.657C21.4717 109.14 21.2951 98.014 30.6554 94.4377C34.7615 92.8482 38.6469 93.7312 43.1063 92.6716C47.8305 91.5678 53.3054 88.0356 55.513 83.3997C57.9855 90.8614 60.9879 102.429 55.6013 109.582Z" fill="white"/>
<path d="M26.6375 115.984C26.0194 116.779 24.8715 116.867 24.0767 116.249C23.282 115.631 23.1937 114.483 23.8118 113.688C24.4299 112.893 25.5779 112.805 26.3726 113.423C27.1232 114.041 27.2557 115.189 26.6375 115.984Z" fill="white"/>
</svg>
