<svg width="200" height="200" viewBox="0 0 200 200" fill="none" xmlns="http://www.w3.org/2000/svg">
<path d="M132.548 87.0645H129.119L129.135 112.733H143.02V109.558H132.563L132.548 87.0645Z" fill="white"/>
<path d="M156.234 108.229C155.369 109.13 153.938 110.03 151.988 110.03C149.378 110.03 148.324 108.735 148.324 107.044C148.324 104.501 150.086 103.285 153.828 103.285C154.536 103.285 155.668 103.364 156.25 103.475V108.229H156.234ZM152.68 92.6699C149.913 92.6699 147.365 93.6492 145.384 95.3079L146.595 97.4246C147.994 96.6032 149.708 95.7819 152.177 95.7819C154.992 95.7819 156.234 97.2351 156.234 99.6676V100.916C155.684 100.805 154.551 100.726 153.86 100.726C147.853 100.726 144.802 102.843 144.802 107.266C144.802 111.23 147.224 113.221 150.888 113.221C153.356 113.221 155.731 112.084 156.549 110.235L157.178 112.747H159.599V99.6044C159.584 95.45 157.791 92.6699 152.68 92.6699Z" fill="white"/>
<path d="M170.66 110.147C169.371 110.147 168.238 109.989 167.389 109.595V98.9636V97.7315C168.553 96.7522 170 96.0413 171.839 96.0413C175.157 96.0413 176.431 98.3949 176.431 102.202C176.431 107.604 174.371 110.147 170.66 110.147ZM172.107 92.6767C169.04 92.6767 167.389 94.7776 167.389 94.7776V91.4604L167.374 87.0691H165.832H164.024L164.04 112.106C165.722 112.817 168.018 113.196 170.518 113.196C176.918 113.196 180 109.089 180 101.997C179.985 96.3888 177.139 92.6767 172.107 92.6767Z" fill="white"/>
<path d="M95.2229 89.8496C98.2578 89.8496 100.223 90.8606 101.497 91.8873L102.975 89.3127C100.978 87.5434 98.2735 86.5957 95.3802 86.5957C88.0838 86.5957 82.973 91.0659 82.973 100.086C82.973 109.532 88.4925 113.212 94.7984 113.212C97.9591 113.212 100.648 112.47 102.409 111.728L102.331 101.634V100.449V98.4586H92.9743V101.634H98.9497L99.0284 109.295C98.2421 109.69 96.8898 110.006 95.0499 110.006C89.9865 110.006 86.5898 106.799 86.5898 100.054C86.5742 93.1826 90.0807 89.8496 95.2229 89.8496Z" fill="white"/>
<path d="M119.365 87.0613H116.016L116.031 91.3738V93.1428V94.1697V95.9704V106.238V106.27C116.031 110.424 117.824 113.204 122.935 113.204C123.642 113.204 124.334 113.141 124.995 113.015V109.997C124.507 110.076 123.988 110.108 123.438 110.108C120.623 110.108 119.381 108.655 119.381 106.222V95.9546H124.995V93.1428H119.381L119.365 87.0613Z" fill="white"/>
<path d="M107.498 112.734H110.847V93.1462H107.498V112.734Z" fill="white"/>
<path d="M107.498 90.4449H110.847V87.0803H107.498V90.4449Z" fill="white"/>
<path d="M46.5437 124.455L56.3244 94.2329H36.7769L46.5437 124.455Z" fill="#E24329"/>
<path d="M23.0777 94.2329L20.0992 103.415C19.8297 104.248 20.1208 105.169 20.8321 105.688L46.544 124.454L23.0777 94.2329Z" fill="#FCA326"/>
<path d="M23.0779 94.2328H36.7774L30.8815 76.0317C30.5797 75.1004 29.2647 75.1004 28.9521 76.0317L23.0779 94.2328Z" fill="#E24329"/>
<path d="M70.0248 94.2329L72.9926 103.415C73.2621 104.248 72.9711 105.169 72.2597 105.688L46.5444 124.455L70.0248 94.2329Z" fill="#FCA326"/>
<path d="M70.0247 94.2328H56.3251L62.2102 76.0317C62.512 75.1004 63.827 75.1004 64.1396 76.0317L70.0247 94.2328Z" fill="#E24329"/>
<path d="M46.5444 124.455L56.3253 94.2329H70.0249L46.5444 124.455Z" fill="#FC6D26"/>
<path d="M46.544 124.455L23.0779 94.2329H36.7774L46.544 124.455Z" fill="#FC6D26"/>
</svg>
