<svg width="200" height="200" viewBox="0 0 200 200" fill="none" xmlns="http://www.w3.org/2000/svg">
<path d="M125.351 86.0177L102.24 62.9069L100 60.6667L82.6031 78.0636L74.649 86.0177C74.2508 86.4164 74.0271 86.957 74.0271 87.5206C74.0271 88.0842 74.2508 88.6247 74.649 89.0235L90.543 104.917L100 114.374L117.397 96.9776L117.666 96.7082L125.351 89.0235C125.749 88.6247 125.973 88.0842 125.973 87.5206C125.973 86.957 125.749 86.4164 125.351 86.0177V86.0177ZM100 95.4605L92.0601 87.5206L100 79.5807L107.94 87.5206L100 95.4605Z" fill="#2684FF"/>
<path d="M100 79.5814C97.5028 77.0839 96.0952 73.6998 96.0846 70.168C96.0739 66.6362 97.4611 63.2437 99.9433 60.7312L82.5677 78.0997L92.0246 87.5567L100 79.5814Z" fill="url(#paint0_linear)"/>
<path d="M107.961 87.499L100 95.4602C101.242 96.7018 102.228 98.1761 102.9 99.7988C103.573 101.421 103.919 103.161 103.919 104.917C103.919 106.674 103.573 108.413 102.9 110.036C102.228 111.658 101.242 113.132 100 114.374V114.374L117.418 96.956L107.961 87.499Z" fill="url(#paint1_linear)"/>
<path d="M31.7868 121.455H34.1499V133.45C34.1499 136.628 32.7595 138.821 29.5012 138.821C28.5377 138.835 27.5788 138.684 26.6667 138.373V136.076C27.4448 136.377 28.2729 136.529 29.1074 136.523C31.1035 136.523 31.7928 135.33 31.7928 133.608L31.7868 121.455Z" fill="white"/>
<path d="M38.4555 120.533C38.6663 120.518 38.8778 120.548 39.0758 120.622C39.2738 120.696 39.4536 120.812 39.603 120.961C39.7524 121.11 39.8679 121.29 39.9418 121.488C40.0156 121.686 40.046 121.898 40.0309 122.108C40.0309 122.526 39.865 122.927 39.5695 123.222C39.2741 123.518 38.8733 123.684 38.4555 123.684C38.0377 123.684 37.637 123.518 37.3415 123.222C37.0461 122.927 36.8801 122.526 36.8801 122.108C36.865 121.898 36.8954 121.686 36.9693 121.488C37.0431 121.29 37.1586 121.11 37.3081 120.961C37.4575 120.812 37.6373 120.696 37.8352 120.622C38.0332 120.548 38.2448 120.518 38.4555 120.533ZM37.3008 125.576H39.5595V138.704H37.3008V125.576Z" fill="white"/>
<path d="M42.9699 125.572H45.1749V127.882C45.9358 126.333 47.2636 125.229 49.8237 125.387V127.592C46.9354 127.294 45.1749 128.171 45.1749 130.952V138.71H42.9699V125.572Z" fill="white"/>
<path d="M60.404 136.338C59.5626 138.071 57.9872 138.963 55.9672 138.963C52.4762 138.963 50.7157 135.997 50.7157 132.136C50.7157 128.434 52.5537 125.31 56.2297 125.31C58.1453 125.31 59.6163 126.175 60.407 127.882V125.572H62.6657V138.701H60.407L60.404 136.338ZM56.5699 136.863C58.5929 136.863 60.404 135.577 60.404 132.662V131.599C60.404 128.684 58.751 127.398 56.8235 127.398C54.2754 127.398 52.9625 129.078 52.9625 132.124C52.9744 135.287 54.2336 136.863 56.5729 136.863H56.5699Z" fill="white"/>
<path d="M76.0269 138.964C72.6911 138.964 71.1425 138.308 69.8028 137.624V135.211C71.4051 136.052 73.8727 136.655 76.1552 136.655C78.7541 136.655 79.7357 135.631 79.7357 134.107C79.7357 132.582 78.7899 131.77 75.5078 130.983C71.6289 130.037 69.8893 128.697 69.8893 125.863C69.8893 123.177 71.9362 121.19 75.9553 121.19C78.4497 121.19 80.052 121.787 81.2336 122.449V124.812C79.591 123.907 77.7377 123.454 75.8628 123.499C73.6041 123.499 72.2644 124.287 72.2644 125.863C72.2644 127.28 73.3684 127.99 76.4118 128.751C80.061 129.67 82.1108 130.839 82.1108 133.948C82.0929 136.941 80.3086 138.964 76.0269 138.964Z" fill="white"/>
<path d="M84.089 132.11C84.089 128.171 86.3985 125.31 90.337 125.31C94.2756 125.31 96.5343 128.171 96.5343 132.11C96.5343 136.048 94.2487 138.972 90.337 138.972C86.4253 138.972 84.089 136.048 84.089 132.11ZM86.294 132.11C86.294 134.604 87.5293 136.863 90.337 136.863C93.1447 136.863 94.3293 134.604 94.3293 132.11C94.3293 129.615 93.1209 127.422 90.337 127.422C87.5532 127.422 86.306 129.615 86.306 132.11H86.294Z" fill="white"/>
<path d="M102.284 125.573H105.671V127.662H102.284V138.702H100.079V127.662H97.9426V125.573H100.07V124.141C100.07 121.7 101.437 120.044 104.247 120.044C104.762 120.041 105.274 120.112 105.769 120.253V122.342C105.302 122.253 104.827 122.209 104.352 122.21C102.961 122.21 102.263 123.025 102.263 124.207L102.284 125.573Z" fill="white"/>
<path d="M113.312 136.496C113.79 136.482 114.264 136.42 114.729 136.311V138.489C114.235 138.631 113.722 138.701 113.208 138.698C110.397 138.698 109.03 137.045 109.03 134.602V127.673H106.894V125.585H109.021V122.789H111.226V125.573H114.717V127.661H111.226V134.554C111.238 135.709 111.922 136.496 113.312 136.496Z" fill="white"/>
<path d="M115.362 125.573H117.856L121.637 136.705L125.468 125.573H127.622L131.456 136.705L135.24 125.573H137.734L132.903 138.701H130.015L127.756 132.349L126.563 128.306L125.369 132.349L123.081 138.701H120.193L115.362 125.573Z" fill="white"/>
<path d="M148.049 136.338C147.208 138.071 145.632 138.963 143.612 138.963C140.121 138.963 138.361 135.997 138.361 132.136C138.361 128.434 140.199 125.31 143.875 125.31C145.79 125.31 147.261 126.175 148.052 127.882V125.572H150.311V138.701H148.052L148.049 136.338ZM144.215 136.863C146.238 136.863 148.049 135.577 148.049 132.662V131.599C148.049 128.684 146.396 127.398 144.468 127.398C141.932 127.422 140.61 129.09 140.61 132.136C140.61 135.287 141.879 136.863 144.218 136.863H144.215Z" fill="white"/>
<path d="M153.721 125.572H155.926V127.882C156.687 126.333 158.015 125.229 160.575 125.387V127.592C157.687 127.294 155.926 128.171 155.926 130.952V138.71H153.721V125.572Z" fill="white"/>
<path d="M168.529 138.963C163.618 138.963 161.467 136.129 161.467 132.101C161.467 128.135 163.672 125.301 167.664 125.301C171.707 125.301 173.333 128.111 173.333 132.101V133.124H163.752C164.069 135.356 165.513 136.8 168.61 136.8C169.972 136.799 171.323 136.559 172.602 136.09V138.179C171.525 138.761 169.869 138.963 168.529 138.963ZM163.726 131.206H171.045C170.913 128.765 169.809 127.372 167.554 127.372C165.17 127.36 163.961 128.914 163.726 131.191V131.206Z" fill="white"/>
<defs>
<linearGradient id="paint0_linear" x1="98.5821" y1="71.5493" x2="87.4947" y2="82.6368" gradientUnits="userSpaceOnUse">
<stop offset="0.18" stop-color="#0052CC"/>
<stop offset="1" stop-color="#2684FF"/>
</linearGradient>
<linearGradient id="paint1_linear" x1="775.475" y1="1707.53" x2="1158.41" y2="1459.34" gradientUnits="userSpaceOnUse">
<stop offset="0.18" stop-color="#0052CC"/>
<stop offset="1" stop-color="#2684FF"/>
</linearGradient>
</defs>
</svg>
