<svg width="200" height="200" viewBox="0 0 200 200" fill="none" xmlns="http://www.w3.org/2000/svg">
<path d="M20.7309 96.8836C20.6256 96.8822 20.5213 96.904 20.4252 96.9472C20.3292 96.9905 20.2438 97.0542 20.1751 97.134C20.1063 97.2138 20.0558 97.3076 20.0272 97.409C19.9985 97.5103 19.9924 97.6167 20.0093 97.7207L23.0725 116.316C23.1107 116.544 23.2278 116.751 23.4033 116.901C23.5788 117.05 23.8015 117.134 24.0323 117.135H38.7277C38.9007 117.138 39.0687 117.078 39.2012 116.966C39.3336 116.855 39.4217 116.7 39.4494 116.529L42.5198 97.7279C42.5366 97.6239 42.5305 97.5175 42.5019 97.4162C42.4733 97.3148 42.4228 97.221 42.354 97.1412C42.2853 97.0614 42.1999 96.9977 42.1038 96.9544C42.0078 96.9112 41.9035 96.8895 41.7982 96.8908L20.7309 96.8836ZM33.6296 110.324H28.9392L27.6691 103.692H34.7661L33.6296 110.324Z" fill="#2684FF"/>
<path d="M41.5384 103.692H34.7661L33.6296 110.323H28.9392L23.4009 116.901C23.5764 117.053 23.8002 117.137 24.0323 117.139H38.7314C38.9043 117.141 39.0723 117.081 39.2048 116.97C39.3372 116.859 39.4253 116.704 39.453 116.533L41.5384 103.692Z" fill="url(#paint0_linear)"/>
<path d="M77.9145 83.8838C77.9145 84.8219 78.3511 85.5651 80.0505 85.8934C81.0643 86.1063 81.2772 86.2542 81.2772 86.615C81.2772 86.9758 81.0643 87.1562 80.3499 87.1562C79.486 87.1405 78.6394 86.9112 77.8857 86.4888V88.015C78.6437 88.3942 79.4849 88.5766 80.3319 88.5453C82.1106 88.5453 82.8142 87.7516 82.8142 86.5754L77.9145 83.8838ZM82.8142 86.5754C82.8142 85.4641 82.2261 84.9409 80.5628 84.5837C79.6464 84.3817 79.4227 84.1796 79.4227 83.8874C79.4227 83.5266 79.751 83.3642 80.3608 83.3642C81.1058 83.3874 81.8374 83.5682 82.5075 83.8946V82.4514C81.849 82.1454 81.1301 81.9913 80.404 82.0004C78.7624 82.0004 77.9109 82.722 77.9109 83.8838" fill="white"/>
<path d="M100.753 82.0979V88.4444H102.106V83.6061L102.676 84.8905L104.592 88.4444H106.292V82.0979H104.939V86.193L104.426 85.006L102.889 82.0979H100.753Z" fill="white"/>
<path d="M92.1518 82.0979H90.6725V88.448H92.1518V82.0979Z" fill="white"/>
<path d="M88.9659 86.5718C88.9659 85.4605 88.3778 84.9374 86.7145 84.5802C85.798 84.3781 85.5743 84.1761 85.5743 83.8838C85.5743 83.523 85.9027 83.3607 86.5124 83.3607C87.2574 83.3839 87.9891 83.5647 88.6592 83.891V82.4478C88.0015 82.1437 87.2839 81.9908 86.5593 82.0004C84.9177 82.0004 84.0662 82.722 84.0662 83.8838C84.0662 84.8219 84.5028 85.5652 86.2021 85.8935C87.216 86.1064 87.4289 86.2543 87.4289 86.6151C87.4289 86.9759 87.216 87.1563 86.5016 87.1563C85.6377 87.1406 84.7911 86.9113 84.0373 86.4888V88.015C84.7953 88.3942 85.6366 88.5766 86.4836 88.5454C88.2623 88.5454 88.9659 87.7516 88.9659 86.5754" fill="white"/>
<path d="M66.4265 82.0979V88.4444H69.4681L69.9444 87.0734H67.9167V82.0979H66.4265Z" fill="white"/>
<path d="M60.4228 82.0979V83.469H62.068V88.4444H63.5546V83.469H65.3117V82.0979H60.4228Z" fill="white"/>
<path d="M58.2544 82.0979H56.306L54.0907 88.448H55.7829L56.0968 87.3656C56.8694 87.5923 57.691 87.5923 58.4636 87.3656L58.7775 88.448H60.4697L58.2544 82.0979ZM57.2802 86.2327C57.0055 86.233 56.7321 86.1942 56.4684 86.1172L57.2802 83.3463L58.092 86.1172C57.8318 86.1931 57.5621 86.232 57.291 86.2327H57.2802Z" fill="white"/>
<path d="M74.707 82.0979H72.7586L70.5433 88.448H72.2355L72.5494 87.3656C73.322 87.5923 74.1436 87.5923 74.9162 87.3656L75.2301 88.448H76.9223L74.707 82.0979ZM73.7328 86.2327C73.4581 86.233 73.1847 86.1942 72.921 86.1172L73.7328 83.3463L74.5446 86.1172C74.2797 86.1945 74.0051 86.2334 73.7292 86.2327H73.7328Z" fill="white"/>
<path d="M97.4772 82.0979H95.5289L93.3135 88.448H95.0057L95.3196 87.3656C96.0923 87.5923 96.9138 87.5923 97.6865 87.3656L98.0004 88.448H99.6925L97.4772 82.0979ZM96.4994 86.2327C96.2247 86.233 95.9514 86.1942 95.6876 86.1172L96.4994 83.3427L97.3112 86.1136C97.0477 86.1918 96.7743 86.2319 96.4994 86.2327Z" fill="white"/>
<path d="M62.1763 96.2776C66.4302 96.2776 68.494 98.3738 68.494 101.74C68.494 104.266 67.3502 105.803 65.0014 106.376C68.0826 106.885 69.6052 108.567 69.6052 111.521C69.6052 114.855 67.3502 117.143 62.685 117.143H54.0799V96.2776H62.1763ZM56.9375 99.0089V105.229H61.7939C64.4927 105.229 65.6039 103.992 65.6039 101.982C65.6039 99.9722 64.3989 98.998 61.7939 98.998L56.9375 99.0089ZM56.9375 107.773V114.267H62.7788C65.5101 114.267 66.7477 113.282 66.7477 111.186C66.7477 108.963 65.5715 107.758 62.7175 107.758L56.9375 107.773Z" fill="white"/>
<path d="M74.274 95.1664C74.5289 95.1482 74.7847 95.1849 75.0241 95.2742C75.2635 95.3635 75.4809 95.5032 75.6616 95.6839C75.8422 95.8646 75.982 96.082 76.0712 96.3214C76.1605 96.5608 76.1973 96.8166 76.1791 97.0714C76.1791 97.5767 75.9784 98.0613 75.6211 98.4185C75.2638 98.7758 74.7793 98.9765 74.274 98.9765C73.7688 98.9765 73.2842 98.7758 72.927 98.4185C72.5697 98.0613 72.369 97.5767 72.369 97.0714C72.3507 96.8166 72.3875 96.5608 72.4768 96.3214C72.5661 96.082 72.7058 95.8646 72.8865 95.6839C73.0672 95.5032 73.2846 95.3635 73.524 95.2742C73.7634 95.1849 74.0192 95.1482 74.274 95.1664ZM72.8777 101.26H75.609V117.136H72.8777V101.26Z" fill="white"/>
<path d="M86.0362 114.473C86.6135 114.455 87.1876 114.381 87.75 114.249V116.883C87.1517 117.054 86.5321 117.139 85.9099 117.135C82.5111 117.135 80.8587 115.137 80.8587 112.182V103.8H78.2861V101.275H80.8587V97.8975H83.5106V101.264H87.732V103.789H83.5106V112.12C83.5106 113.517 84.3368 114.473 86.0362 114.473Z" fill="white"/>
<path d="M99.007 117.453C96.6907 117.453 94.9119 116.407 93.9558 114.343V117.136H91.2245V94.6287H93.9738V104.118C94.9913 102.022 96.8963 100.943 99.339 100.943C103.56 100.943 105.689 104.529 105.689 109.198C105.675 113.675 103.452 117.453 99.007 117.453ZM98.5921 103.483C96.1386 103.483 93.9738 105.041 93.9738 108.563V109.833C93.9738 113.358 95.9727 114.913 98.3035 114.913C101.385 114.913 102.972 112.882 102.972 109.198C102.943 105.388 101.421 103.483 98.5921 103.483Z" fill="white"/>
<path d="M108.532 101.26H111.263V110.865C111.263 113.722 112.407 114.992 115.009 114.992C117.534 114.992 119.295 113.311 119.295 110.104V101.26H122.026V117.136H119.295V114.534C118.809 115.435 118.083 116.185 117.198 116.701C116.314 117.216 115.304 117.478 114.28 117.457C110.628 117.457 108.532 114.931 108.532 110.565V101.26Z" fill="white"/>
<path d="M137.36 116.724C136.408 117.233 134.947 117.446 133.485 117.446C127.835 117.446 125.187 114.018 125.187 109.147C125.187 104.352 127.821 100.925 133.485 100.925C134.791 100.888 136.087 101.156 137.27 101.708V104.233C136.142 103.706 134.907 103.449 133.662 103.483C129.535 103.483 127.853 106.088 127.853 109.165C127.853 112.243 129.581 114.834 133.742 114.834C134.969 114.866 136.192 114.673 137.35 114.264L137.36 116.724Z" fill="white"/>
<path d="M140.474 117.136V94.6287H143.205V108.7L150.032 101.271H153.589L146.124 109.061L153.903 117.136H150.187L143.202 109.707V117.136H140.474Z" fill="white"/>
<path d="M162.952 117.453C157.013 117.453 154.412 114.025 154.412 109.155C154.412 104.36 157.078 100.932 161.906 100.932C166.795 100.932 168.761 104.331 168.761 109.155V110.392H157.172C157.554 113.091 159.301 114.837 163.046 114.837C164.693 114.836 166.327 114.545 167.873 113.979V116.504C166.571 117.2 164.572 117.453 162.952 117.453ZM157.143 108.072H166.001C165.842 105.121 164.507 103.436 161.779 103.436C158.886 103.421 157.428 105.294 157.143 108.058V108.072Z" fill="white"/>
<path d="M178.286 114.473C178.863 114.455 179.438 114.381 180 114.249V116.883C179.402 117.054 178.782 117.139 178.16 117.135C174.761 117.135 173.109 115.137 173.109 112.182V103.8H170.536V101.275H173.109V97.8975H175.775V101.264H179.996V103.789H175.775V112.12C175.779 113.517 176.598 114.473 178.286 114.473Z" fill="white"/>
<defs>
<linearGradient id="paint0_linear" x1="43.1043" y1="105.546" x2="31.9122" y2="114.285" gradientUnits="userSpaceOnUse">
<stop offset="0.18" stop-color="#0052CC"/>
<stop offset="1" stop-color="#2684FF"/>
</linearGradient>
</defs>
</svg>
