<svg width="200" height="200" viewBox="0 0 200 200" fill="none" xmlns="http://www.w3.org/2000/svg">
<path d="M23.4613 89.62C25.373 89.62 26.9227 88.0455 26.9227 86.1033C26.9227 84.1611 25.373 82.5867 23.4613 82.5867C21.5497 82.5867 20 84.1611 20 86.1033C20 88.0455 21.5497 89.62 23.4613 89.62Z" fill="#509EE3"/>
<path d="M23.4613 99.4667C25.373 99.4667 26.9227 97.8922 26.9227 95.95C26.9227 94.0078 25.373 92.4333 23.4613 92.4333C21.5497 92.4333 20 94.0078 20 95.95C20 97.8922 21.5497 99.4667 23.4613 99.4667Z" fill="#509EE3"/>
<path d="M33.1531 89.62C35.0647 89.62 36.6144 88.0455 36.6144 86.1033C36.6144 84.1611 35.0647 82.5867 33.1531 82.5867C31.2414 82.5867 29.6917 84.1611 29.6917 86.1033C29.6917 88.0455 31.2414 89.62 33.1531 89.62Z" fill="#C7D7E4"/>
<path d="M33.1531 99.5624C35.0647 99.5624 36.6144 97.9879 36.6144 96.0457C36.6144 94.1035 35.0647 92.5291 33.1531 92.5291C31.2414 92.5291 29.6917 94.1035 29.6917 96.0457C29.6917 97.9879 31.2414 99.5624 33.1531 99.5624Z" fill="#509EE3"/>
<path d="M42.8448 89.62C44.7564 89.62 46.3061 88.0455 46.3061 86.1033C46.3061 84.1611 44.7564 82.5867 42.8448 82.5867C40.9331 82.5867 39.3834 84.1611 39.3834 86.1033C39.3834 88.0455 40.9331 89.62 42.8448 89.62Z" fill="#C7D7E4"/>
<path d="M42.8448 78.3666C44.7564 78.3666 46.3061 76.7921 46.3061 74.8499C46.3061 72.9077 44.7564 71.3333 42.8448 71.3333C40.9331 71.3333 39.3834 72.9077 39.3834 74.8499C39.3834 76.7921 40.9331 78.3666 42.8448 78.3666Z" fill="#C7D7E4"/>
<path d="M42.8448 99.5624C44.7564 99.5624 46.3061 97.9879 46.3061 96.0457C46.3061 94.1035 44.7564 92.5291 42.8448 92.5291C40.9331 92.5291 39.3834 94.1035 39.3834 96.0457C39.3834 97.9879 40.9331 99.5624 42.8448 99.5624Z" fill="#C7D7E4"/>
<path d="M52.5365 89.62C54.4481 89.62 55.9978 88.0455 55.9978 86.1033C55.9978 84.1611 54.4481 82.5867 52.5365 82.5867C50.6249 82.5867 49.0752 84.1611 49.0752 86.1033C49.0752 88.0455 50.6249 89.62 52.5365 89.62Z" fill="#C7D7E4"/>
<path d="M62.2282 89.62C64.1398 89.62 65.6895 88.0455 65.6895 86.1033C65.6895 84.1611 64.1398 82.5867 62.2282 82.5867C60.3165 82.5867 58.7668 84.1611 58.7668 86.1033C58.7668 88.0455 60.3165 89.62 62.2282 89.62Z" fill="#509EE3"/>
<path d="M52.5365 99.5624C54.4481 99.5624 55.9978 97.9879 55.9978 96.0457C55.9978 94.1035 54.4481 92.5291 52.5365 92.5291C50.6249 92.5291 49.0752 94.1035 49.0752 96.0457C49.0752 97.9879 50.6249 99.5624 52.5365 99.5624Z" fill="#509EE3"/>
<path d="M62.2282 99.5624C64.1398 99.5624 65.6895 97.9879 65.6895 96.0457C65.6895 94.1035 64.1398 92.5291 62.2282 92.5291C60.3165 92.5291 58.7668 94.1035 58.7668 96.0457C58.7668 97.9879 60.3165 99.5624 62.2282 99.5624Z" fill="#509EE3"/>
<path d="M23.4613 109.313C25.373 109.313 26.9227 107.739 26.9227 105.797C26.9227 103.854 25.373 102.28 23.4613 102.28C21.5497 102.28 20 103.854 20 105.797C20 107.739 21.5497 109.313 23.4613 109.313Z" fill="#509EE3"/>
<path d="M33.1531 109.409C35.0647 109.409 36.6144 107.834 36.6144 105.892C36.6144 103.95 35.0647 102.375 33.1531 102.375C31.2414 102.375 29.6917 103.95 29.6917 105.892C29.6917 107.834 31.2414 109.409 33.1531 109.409Z" fill="#C7D7E4"/>
<path d="M42.8448 109.409C44.7564 109.409 46.3061 107.834 46.3061 105.892C46.3061 103.95 44.7564 102.375 42.8448 102.375C40.9331 102.375 39.3834 103.95 39.3834 105.892C39.3834 107.834 40.9331 109.409 42.8448 109.409Z" fill="#509EE3"/>
<path d="M52.5365 109.409C54.4481 109.409 55.9978 107.834 55.9978 105.892C55.9978 103.95 54.4481 102.375 52.5365 102.375C50.6249 102.375 49.0752 103.95 49.0752 105.892C49.0752 107.834 50.6249 109.409 52.5365 109.409Z" fill="#C7D7E4"/>
<path d="M62.2282 109.409C64.1398 109.409 65.6895 107.834 65.6895 105.892C65.6895 103.95 64.1398 102.375 62.2282 102.375C60.3165 102.375 58.7668 103.95 58.7668 105.892C58.7668 107.834 60.3165 109.409 62.2282 109.409Z" fill="#509EE3"/>
<path d="M23.4613 119.16C25.373 119.16 26.9227 117.585 26.9227 115.643C26.9227 113.701 25.373 112.126 23.4613 112.126C21.5497 112.126 20 113.701 20 115.643C20 117.585 21.5497 119.16 23.4613 119.16Z" fill="#509EE3"/>
<path d="M33.1531 119.256C35.0647 119.256 36.6144 117.681 36.6144 115.739C36.6144 113.797 35.0647 112.222 33.1531 112.222C31.2414 112.222 29.6917 113.797 29.6917 115.739C29.6917 117.681 31.2414 119.256 33.1531 119.256Z" fill="#C7D7E4"/>
<path d="M42.8448 119.256C44.7564 119.256 46.3061 117.681 46.3061 115.739C46.3061 113.797 44.7564 112.222 42.8448 112.222C40.9331 112.222 39.3834 113.797 39.3834 115.739C39.3834 117.681 40.9331 119.256 42.8448 119.256Z" fill="#C7D7E4"/>
<path d="M42.8448 129.102C44.7564 129.102 46.3061 127.528 46.3061 125.586C46.3061 123.644 44.7564 122.069 42.8448 122.069C40.9331 122.069 39.3834 123.644 39.3834 125.586C39.3834 127.528 40.9331 129.102 42.8448 129.102Z" fill="#C7D7E4"/>
<path d="M52.5365 119.256C54.4481 119.256 55.9978 117.681 55.9978 115.739C55.9978 113.797 54.4481 112.222 52.5365 112.222C50.6249 112.222 49.0752 113.797 49.0752 115.739C49.0752 117.681 50.6249 119.256 52.5365 119.256Z" fill="#C7D7E4"/>
<path d="M62.2282 119.256C64.1398 119.256 65.6895 117.681 65.6895 115.739C65.6895 113.797 64.1398 112.222 62.2282 112.222C60.3165 112.222 58.7668 113.797 58.7668 115.739C58.7668 117.681 60.3165 119.256 62.2282 119.256Z" fill="#509EE3"/>
<path d="M84.4635 102.652L84.8095 103.491L85.1616 102.634L85.547 101.825L90.7188 92.1459C90.7724 92.0408 90.8397 91.9433 90.9192 91.8561C90.9875 91.7847 91.0649 91.7347 91.1468 91.6982C91.2287 91.6618 91.3259 91.6451 91.4306 91.6375C91.5548 91.6282 91.6793 91.6241 91.8039 91.6254H94.2563V109.095H91.3926V97.8125L91.4109 97.125L91.467 96.3632L86.1859 106.273C86.0645 106.497 85.9082 106.673 85.7307 106.798C85.5531 106.922 85.3103 106.986 85.0553 106.986H84.6077C84.3687 106.993 84.1333 106.927 83.9324 106.798C83.7336 106.665 83.5718 106.485 83.4619 106.273L78.108 96.3283L78.1763 97.1083L78.1945 97.8155V109.099H75.3309V91.6254H77.7832L78.1566 91.6375C78.2537 91.6442 78.3493 91.6651 78.4403 91.6998C78.5298 91.7336 78.6103 91.7876 78.6756 91.8576C78.757 91.944 78.8264 92.041 78.8819 92.1459L84.1023 101.846L84.4787 102.65L84.4635 102.652ZM102.738 96.5059C103.473 96.4964 104.204 96.623 104.893 96.8792C105.548 97.1311 106.114 97.4938 106.589 97.9718C107.08 98.4751 107.459 99.0766 107.7 99.7367C107.966 100.435 108.098 101.23 108.098 102.122C108.101 102.31 108.091 102.498 108.068 102.684C108.054 102.807 108.018 102.926 107.961 103.036C107.911 103.122 107.84 103.182 107.749 103.218C107.658 103.254 107.549 103.274 107.409 103.274H99.7483C99.8393 104.549 100.181 105.481 100.776 106.076C101.371 106.67 102.161 106.986 103.143 106.986C103.629 106.986 104.044 106.93 104.392 106.816C104.74 106.702 105.049 106.578 105.312 106.443L105.999 106.069C106.196 105.956 106.388 105.9 106.573 105.9C106.694 105.9 106.797 105.924 106.887 105.971C106.976 106.018 107.039 106.088 107.114 106.177L107.984 107.264C107.664 107.641 107.289 107.968 106.873 108.235C106.47 108.494 106.038 108.705 105.586 108.865C105.144 109.021 104.687 109.133 104.222 109.199C103.775 109.262 103.324 109.294 102.873 109.294C102.012 109.294 101.21 109.152 100.469 108.865C99.7405 108.586 99.0806 108.153 98.5342 107.596C97.9849 107.038 97.5554 106.344 97.2413 105.52C96.9272 104.696 96.786 103.737 96.786 102.637C96.786 101.791 96.9378 100.995 97.1958 100.251C97.4548 99.5308 97.8558 98.8698 98.3749 98.3072C98.9017 97.7453 99.5394 97.2989 100.248 96.996C100.988 96.6728 101.821 96.5104 102.747 96.5104L102.738 96.5059ZM102.799 98.6304C101.929 98.6304 101.246 98.8778 100.756 99.368C100.266 99.8581 99.9516 100.556 99.8151 101.456H105.421C105.421 101.071 105.368 100.706 105.263 100.363C105.165 100.033 105 99.7262 104.779 99.4621C104.563 99.2041 104.289 99.0022 103.959 98.8505C103.63 98.6987 103.24 98.6289 102.8 98.6289L102.799 98.6304ZM114.602 109.29C113.531 109.29 112.705 108.986 112.124 108.376C111.543 107.766 111.254 106.928 111.254 105.857V98.9339H109.998C109.837 98.9339 109.699 98.8808 109.582 98.7761C109.465 98.6714 109.406 98.5136 109.406 98.3208V97.1372L111.399 96.8094L112.028 93.4283C112.059 93.2674 112.135 93.1247 112.25 93.0549C112.365 92.9851 112.512 92.9229 112.705 92.9229H114.253V96.8261H117.516V98.9506H114.253V105.667C114.253 106.053 114.349 106.355 114.557 106.575C114.652 106.681 114.769 106.765 114.9 106.822C115.031 106.879 115.173 106.906 115.315 106.903C115.5 106.903 115.655 106.881 115.781 106.834C115.894 106.797 116.003 106.75 116.109 106.696L116.356 106.544C116.428 106.502 116.502 106.476 116.575 106.476C116.666 106.476 116.736 106.497 116.79 106.544C116.859 106.603 116.92 106.671 116.973 106.745L117.883 108.196C117.44 108.562 116.931 108.84 116.384 109.017C115.818 109.202 115.226 109.296 114.631 109.294L114.602 109.29ZM129.596 109.099H128.254C127.973 109.099 127.753 109.056 127.591 108.973C127.428 108.889 127.31 108.715 127.23 108.46L126.964 107.579C126.67 107.845 126.361 108.093 126.038 108.323C125.735 108.535 125.424 108.715 125.104 108.86C124.775 109.008 124.43 109.118 124.076 109.188C123.678 109.265 123.272 109.3 122.867 109.294C122.375 109.299 121.886 109.228 121.416 109.082C120.995 108.952 120.606 108.735 120.275 108.444C119.956 108.145 119.698 107.787 119.516 107.39C119.322 106.972 119.25 106.479 119.25 105.924C119.25 105.469 119.372 104.992 119.618 104.535C119.863 104.078 120.27 103.67 120.842 103.298C121.414 102.927 122.175 102.626 123.126 102.382C124.078 102.137 125.255 102.018 126.665 102.018V101.286C126.665 100.451 126.489 99.8293 126.14 99.4287C125.791 99.028 125.28 98.8277 124.613 98.8277C124.128 98.8277 123.727 98.8839 123.404 98.9977C123.113 99.0984 122.832 99.2254 122.565 99.3771L121.908 99.7565C121.705 99.8704 121.477 99.9291 121.244 99.9264C121.059 99.9308 120.877 99.8755 120.725 99.7686C120.583 99.6658 120.463 99.5345 120.373 99.3831L119.83 98.4301C121.257 97.125 122.974 96.4573 124.99 96.4573C125.715 96.4573 126.36 96.5787 126.928 96.8154C127.475 97.0386 127.967 97.3765 128.372 97.8064C128.775 98.243 129.082 98.7588 129.274 99.3209C129.486 99.9437 129.59 100.598 129.582 101.256L129.596 109.099ZM123.795 107.238C124.079 107.24 124.363 107.212 124.641 107.155C124.894 107.1 125.139 107.016 125.372 106.904C125.606 106.79 125.829 106.653 126.035 106.494C126.264 106.318 126.479 106.125 126.68 105.918V103.86C125.811 103.86 125.082 103.916 124.5 104.024C123.917 104.132 123.448 104.274 123.093 104.444C122.738 104.614 122.486 104.814 122.337 105.039C122.191 105.26 122.114 105.518 122.115 105.783C122.115 106.311 122.27 106.687 122.581 106.915C122.892 107.142 123.298 107.255 123.795 107.255V107.238ZM132.567 109.099V91.1428H135.55V98.2237C136.041 97.6987 136.613 97.2828 137.217 96.9748C137.821 96.6667 138.561 96.5089 139.391 96.5089C140.033 96.5008 140.669 96.6432 141.246 96.9247C141.804 97.2024 142.288 97.6076 142.697 98.1387C143.105 98.6699 143.419 99.327 143.637 100.107C143.856 100.887 143.971 101.785 143.971 102.801C143.971 103.711 143.85 104.584 143.598 105.374C143.372 106.12 143.009 106.817 142.527 107.429C142.064 108.009 141.502 108.461 140.848 108.79C140.194 109.12 139.457 109.281 138.642 109.281C138.262 109.281 137.916 109.244 137.602 109.167C137.288 109.089 137.004 108.985 136.745 108.863C136.486 108.726 136.244 108.558 136.025 108.363C135.798 108.159 135.586 107.939 135.39 107.705L135.257 108.54C135.207 108.749 135.128 108.898 135.01 108.988C134.892 109.077 134.737 109.12 134.532 109.12H132.567V109.099ZM138.367 98.8277C137.76 98.8277 137.217 98.9567 136.778 99.2192C136.306 99.5099 135.891 99.8843 135.553 100.324V105.881C135.893 106.302 136.261 106.592 136.658 106.757C137.056 106.922 137.493 107.004 137.957 107.004C138.378 107.011 138.795 106.924 139.179 106.751C139.543 106.58 139.856 106.319 140.089 105.992C140.363 105.595 140.562 105.15 140.675 104.681C140.827 104.153 140.882 103.531 140.882 102.814C140.882 102.089 140.821 101.476 140.705 100.972C140.59 100.468 140.422 100.058 140.205 99.7473C140.008 99.4513 139.736 99.2138 139.416 99.0599C139.101 98.9172 138.748 98.8444 138.353 98.8444L138.367 98.8277ZM156.021 109.099H154.679C154.398 109.099 154.178 109.056 154.016 108.973C153.854 108.889 153.735 108.715 153.655 108.46L153.389 107.579C153.095 107.845 152.786 108.093 152.463 108.323C152.169 108.532 151.855 108.712 151.526 108.86C151.196 109.007 150.852 109.117 150.498 109.188C150.137 109.264 149.733 109.294 149.289 109.294C148.797 109.299 148.308 109.228 147.838 109.082C147.417 108.952 147.028 108.735 146.697 108.444C146.378 108.145 146.12 107.787 145.938 107.39C145.744 106.972 145.672 106.479 145.672 105.924C145.672 105.469 145.794 104.992 146.04 104.535C146.286 104.078 146.692 103.67 147.264 103.298C147.836 102.927 148.597 102.626 149.548 102.382C150.5 102.137 151.68 102.018 153.087 102.018V101.286C153.087 100.451 152.911 99.8293 152.562 99.4287C152.213 99.028 151.702 98.8277 151.035 98.8277C150.55 98.8277 150.149 98.8839 149.826 98.9977C149.535 99.0984 149.254 99.2254 148.987 99.3771L148.33 99.7565C148.127 99.8691 147.899 99.9277 147.667 99.9264C147.481 99.9308 147.299 99.8755 147.148 99.7686C147.005 99.6658 146.885 99.5345 146.795 99.3831L146.252 98.4301C147.679 97.125 149.397 96.4573 151.412 96.4573C152.137 96.4573 152.785 96.5787 153.354 96.8154C153.901 97.0386 154.394 97.3765 154.799 97.8064C155.202 98.243 155.509 98.7588 155.7 99.3209C155.912 99.9437 156.016 100.598 156.008 101.256L156.021 109.099ZM150.221 107.238C150.504 107.24 150.788 107.212 151.066 107.155C151.319 107.1 151.564 107.016 151.797 106.904C152.032 106.79 152.254 106.653 152.46 106.494C152.689 106.318 152.905 106.125 153.105 105.918V103.86C152.236 103.86 151.507 103.916 150.925 104.024C150.342 104.132 149.873 104.274 149.518 104.444C149.163 104.614 148.911 104.814 148.762 105.039C148.616 105.26 148.539 105.518 148.541 105.783C148.541 106.311 148.695 106.687 149.007 106.915C149.318 107.142 149.723 107.255 150.221 107.255V107.238ZM166.314 99.116C166.252 99.2251 166.165 99.3182 166.061 99.3877C165.97 99.4408 165.86 99.4636 165.721 99.4636C165.558 99.4592 165.399 99.4182 165.255 99.3437L164.681 99.0705C164.466 98.9688 164.215 98.8793 163.923 98.7974C163.63 98.7154 163.316 98.676 162.936 98.676C162.347 98.676 161.884 98.8019 161.548 99.0493C161.211 99.2966 161.042 99.6259 161.042 100.028C161.039 100.151 161.06 100.273 161.104 100.388C161.148 100.503 161.215 100.607 161.3 100.696C161.472 100.873 161.701 101.036 161.988 101.174C162.302 101.321 162.626 101.444 162.959 101.541L164.07 101.896L165.181 102.351C165.542 102.503 165.863 102.725 166.152 102.981C166.44 103.237 166.673 103.547 166.839 103.895C167.011 104.25 167.097 104.675 167.097 105.176C167.097 105.771 166.991 106.32 166.769 106.827C166.548 107.334 166.232 107.765 165.816 108.132C165.361 108.518 164.833 108.809 164.264 108.989C163.649 109.196 162.941 109.297 162.144 109.297C161.725 109.299 161.307 109.261 160.895 109.183C160.488 109.108 160.098 109.001 159.722 108.88C159.346 108.759 159 108.581 158.682 108.394C158.365 108.208 158.085 108.009 157.843 107.787L158.531 106.652C158.611 106.526 158.718 106.418 158.845 106.338C158.985 106.26 159.144 106.223 159.305 106.232C159.491 106.232 159.674 106.287 159.83 106.39L160.403 106.73C160.648 106.868 160.905 106.982 161.171 107.07C161.532 107.184 161.91 107.237 162.288 107.227C162.643 107.227 162.945 107.185 163.202 107.101C163.458 107.018 163.665 106.907 163.831 106.768C163.998 106.628 164.135 106.472 164.193 106.29C164.259 106.109 164.298 105.92 164.306 105.728C164.317 105.465 164.224 105.209 164.047 105.015C163.874 104.83 163.643 104.669 163.36 104.529C163.043 104.381 162.716 104.259 162.381 104.162L161.258 103.804C160.875 103.674 160.5 103.522 160.135 103.349C159.776 103.182 159.446 102.96 159.156 102.691C158.863 102.415 158.629 102.082 158.468 101.713C158.295 101.327 158.21 100.858 158.21 100.312C158.209 99.8126 158.312 99.3185 158.512 98.8611C158.715 98.3984 159.019 97.9871 159.402 97.6577C159.796 97.3147 160.277 97.04 160.865 96.8382C161.452 96.6364 162.124 96.5301 162.889 96.5301C163.743 96.5301 164.522 96.6728 165.222 96.9551C165.921 97.2373 166.505 97.6076 166.974 98.0659L166.314 99.116ZM174.639 96.5059C175.375 96.4964 176.105 96.623 176.794 96.8792C177.45 97.1311 178.016 97.4938 178.491 97.9718C178.982 98.4751 179.36 99.0766 179.602 99.7367C179.867 100.435 179.999 101.23 179.999 102.122C180.002 102.31 179.992 102.498 179.969 102.684C179.956 102.807 179.92 102.926 179.863 103.036C179.813 103.122 179.742 103.182 179.65 103.218C179.559 103.254 179.45 103.274 179.311 103.274H171.65C171.741 104.549 172.082 105.481 172.677 106.076C173.272 106.67 174.063 106.986 175.045 106.986C175.53 106.986 175.946 106.93 176.294 106.816C176.641 106.702 176.951 106.578 177.213 106.443L177.901 106.069C178.098 105.956 178.289 105.9 178.474 105.9C178.596 105.9 178.699 105.924 178.788 105.971C178.878 106.018 178.94 106.088 179.016 106.177L179.886 107.264C179.565 107.641 179.191 107.968 178.775 108.235C178.372 108.494 177.94 108.705 177.488 108.865C177.045 109.021 176.588 109.133 176.124 109.199C175.677 109.262 175.226 109.294 174.775 109.294C173.914 109.294 173.111 109.152 172.371 108.865C171.642 108.586 170.982 108.153 170.436 107.596C169.887 107.038 169.457 106.344 169.143 105.52C168.829 104.696 168.688 103.737 168.688 102.637C168.688 101.791 168.839 100.995 169.097 100.251C169.356 99.5308 169.757 98.8698 170.277 98.3072C170.803 97.7453 171.441 97.2989 172.149 96.996C172.908 96.6728 173.727 96.5104 174.653 96.5104L174.639 96.5059ZM174.7 98.6304C173.831 98.6304 173.148 98.8778 172.658 99.368C172.167 99.8581 171.853 100.556 171.717 101.456H177.323C177.323 101.071 177.269 100.706 177.165 100.363C177.067 100.033 176.902 99.7262 176.681 99.4621C176.462 99.2041 176.19 99.0022 175.861 98.8505C175.532 98.6987 175.145 98.6289 174.702 98.6289L174.7 98.6304Z" fill="white"/>
</svg>
