<svg width="200" height="200" viewBox="0 0 200 200" fill="none" xmlns="http://www.w3.org/2000/svg">
<path d="M100.755 153.49C130.714 153.49 155 129.204 155 99.2451C155 69.2863 130.714 45 100.755 45C70.7962 45 46.5099 69.2863 46.5099 99.2451C46.5099 129.204 70.7962 153.49 100.755 153.49Z" fill="#5C2D91"/>
<path opacity="0.1" d="M63.1564 60.2563C57.642 65.1703 53.1892 71.1586 50.071 77.8543C46.9528 84.55 45.2348 91.812 45.0224 99.1951C44.81 106.578 46.1077 113.927 48.8359 120.791C51.564 127.655 55.6652 133.889 60.888 139.112C66.1108 144.335 72.3452 148.436 79.2091 151.164C86.073 153.892 93.4217 155.19 100.805 154.978C108.188 154.765 115.45 153.047 122.146 149.929C128.841 146.811 134.83 142.358 139.744 136.844L63.1564 60.2563Z" fill="white"/>
<path d="M59.054 108.145C58.7376 108.15 58.4236 108.089 58.1318 107.967C57.84 107.844 57.5768 107.662 57.3589 107.433C57.1349 107.212 56.9579 106.947 56.8385 106.656C56.7191 106.365 56.6597 106.053 56.6638 105.738C56.6616 105.423 56.7219 105.111 56.8412 104.82C56.9605 104.529 57.1365 104.265 57.3589 104.043C57.5747 103.809 57.8371 103.624 58.1291 103.498C58.4211 103.373 58.7362 103.31 59.054 103.314C59.3714 103.313 59.6856 103.377 59.9771 103.503C60.2687 103.628 60.5314 103.812 60.7492 104.043C60.9754 104.263 61.155 104.527 61.2773 104.818C61.3996 105.109 61.4622 105.422 61.4612 105.738C61.4641 106.054 61.4025 106.367 61.2801 106.659C61.1576 106.95 60.977 107.214 60.7492 107.433C60.5294 107.66 60.2658 107.84 59.9745 107.962C59.6831 108.085 59.37 108.147 59.054 108.145Z" fill="white"/>
<path d="M92.7368 107.721H88.2955L72.4119 83.0735C72.0162 82.4662 71.6866 81.8184 71.4287 81.141H71.2931C71.444 82.5483 71.5007 83.9641 71.4626 85.3789V107.721H67.8519V76.8184H72.5475L88.0073 101.025C88.6515 102.031 89.0696 102.72 89.2618 103.093H89.3465C89.1677 101.586 89.094 100.068 89.1261 98.5503V76.8184H92.7368V107.721Z" fill="white"/>
<path d="M117.181 107.721H100.755V76.8184H116.418V80.09H104.45V90.3627H115.605V93.6174H104.45V104.331H117.198L117.181 107.721Z" fill="white"/>
<path d="M141.439 80.09H132.454V107.721H128.844V80.09H119.961V76.8184H141.439V80.09Z" fill="white"/>
<path d="M90.7874 128.741C89.5636 129.333 88.2136 129.618 86.8547 129.571C85.9516 129.612 85.0503 129.459 84.2112 129.123C83.3721 128.787 82.6146 128.275 81.9896 127.622C80.744 126.228 80.0877 124.405 80.1588 122.536C80.1132 121.525 80.2713 120.514 80.6236 119.565C80.9759 118.616 81.5154 117.747 82.2099 117.01C82.8868 116.317 83.7005 115.772 84.5994 115.41C85.4982 115.048 86.4625 114.877 87.431 114.908C88.59 114.869 89.7446 115.071 90.8213 115.501V117.197C89.7847 116.623 88.6158 116.331 87.431 116.349C86.6841 116.328 85.9414 116.469 85.2539 116.761C84.5663 117.054 83.9501 117.491 83.4474 118.044C82.3902 119.249 81.8431 120.817 81.9218 122.418C81.8426 123.934 82.3528 125.422 83.3457 126.571C83.8219 127.083 84.4033 127.486 85.05 127.752C85.6966 128.019 86.3932 128.142 87.092 128.113C88.3935 128.148 89.6789 127.819 90.8044 127.164L90.7874 128.741Z" fill="#F2F2F2"/>
<path d="M97.7206 129.571C97.0458 129.593 96.3742 129.47 95.7513 129.209C95.1283 128.949 94.5686 128.558 94.1099 128.063C93.183 127.028 92.7017 125.67 92.7707 124.282C92.7284 123.556 92.831 122.828 93.0725 122.141C93.3141 121.454 93.6898 120.822 94.1777 120.282C94.6757 119.796 95.2681 119.417 95.9184 119.169C96.5686 118.921 97.2628 118.81 97.9579 118.841C98.615 118.806 99.2719 118.914 99.8834 119.156C100.495 119.399 101.047 119.772 101.501 120.248C102.402 121.334 102.856 122.721 102.772 124.13C102.843 125.559 102.35 126.959 101.399 128.029C100.932 128.534 100.362 128.933 99.7271 129.199C99.0926 129.465 98.4084 129.592 97.7206 129.571V129.571ZM97.8393 120.299C97.373 120.279 96.9082 120.365 96.4797 120.55C96.0512 120.735 95.6699 121.014 95.3643 121.367C94.7121 122.207 94.3868 123.255 94.4489 124.316C94.3897 125.346 94.7161 126.362 95.3643 127.164C95.6731 127.512 96.0554 127.787 96.4834 127.968C96.9115 128.15 97.3746 128.234 97.8393 128.215C98.2941 128.242 98.7492 128.164 99.1693 127.988C99.5895 127.812 99.9638 127.541 100.263 127.198C100.88 126.356 101.18 125.324 101.111 124.282C101.178 123.236 100.878 122.199 100.263 121.35C99.9679 120.999 99.5953 120.722 99.1748 120.539C98.7542 120.357 98.297 120.275 97.8393 120.299V120.299Z" fill="#F2F2F2"/>
<path d="M110.689 120.807C110.322 120.567 109.888 120.454 109.451 120.485C109.11 120.498 108.776 120.594 108.481 120.765C108.185 120.937 107.936 121.178 107.756 121.468C107.251 122.267 107.008 123.203 107.061 124.147V129.334H105.366V119.163H107.061V121.282C107.247 120.626 107.618 120.038 108.129 119.587C108.571 119.203 109.137 118.992 109.722 118.993C110.05 118.979 110.378 119.025 110.689 119.129V120.807Z" fill="#F2F2F2"/>
<path d="M120.622 124.672H113.452C113.404 125.62 113.712 126.551 114.316 127.283C114.63 127.596 115.007 127.84 115.422 127.998C115.837 128.155 116.28 128.224 116.723 128.198C117.872 128.187 118.984 127.786 119.876 127.063V128.588C118.828 129.279 117.587 129.617 116.333 129.554C115.701 129.586 115.069 129.478 114.483 129.238C113.897 128.998 113.371 128.631 112.943 128.164C112.061 127.064 111.619 125.674 111.706 124.266C111.645 122.854 112.124 121.472 113.045 120.401C113.464 119.916 113.986 119.531 114.572 119.273C115.158 119.015 115.795 118.891 116.435 118.909C117.013 118.876 117.591 118.976 118.126 119.199C118.66 119.422 119.137 119.763 119.52 120.197C120.301 121.226 120.686 122.502 120.605 123.791L120.622 124.672ZM118.927 123.299C118.961 122.514 118.722 121.741 118.249 121.113C118.017 120.85 117.729 120.644 117.406 120.509C117.083 120.374 116.734 120.314 116.384 120.333C116.019 120.328 115.658 120.4 115.322 120.543C114.986 120.686 114.684 120.897 114.435 121.163C113.877 121.754 113.526 122.509 113.435 123.316L118.927 123.299Z" fill="#F2F2F2"/>
</svg>
