
		<svg xmlns="http://www.w3.org/2000/svg" xmlns:xlink="http://www.w3.org/1999/xlink" version="1.1" width="3246.9135802469136" height="1074.0740740740741">
			
			<g transform="scale(12.345679012345679) translate(10, 10)">
				<defs id="SvgjsDefs109120"><linearGradient id="SvgjsLinearGradient109126"><stop id="SvgjsStop109127" stop-color="#8f5e25" offset="0"/><stop id="SvgjsStop109128" stop-color="#fbf4a1" offset="0.5"/><stop id="SvgjsStop109129" stop-color="#8f5e25" offset="1"/></linearGradient><linearGradient id="SvgjsLinearGradient109130"><stop id="SvgjsStop109131" stop-color="#8f5e25" offset="0"/><stop id="SvgjsStop109132" stop-color="#fbf4a1" offset="0.5"/><stop id="SvgjsStop109133" stop-color="#8f5e25" offset="1"/></linearGradient><linearGradient id="SvgjsLinearGradient109134"><stop id="SvgjsStop109135" stop-color="#8f5e25" offset="0"/><stop id="SvgjsStop109136" stop-color="#fbf4a1" offset="0.5"/><stop id="SvgjsStop109137" stop-color="#8f5e25" offset="1"/></linearGradient></defs><g id="SvgjsG109121" featureKey="root" fill="#fff"/><g id="SvgjsG109122" featureKey="symbol1" fill="#fff" transform="matrix(0.6392951719199095,0,0,0.6392951719199095,4.999830539532778,3.9996888990738255)"><g id="SvgjsG109123"><path xmlns="http://www.w3.org/2000/svg" fill-rule="evenodd" clip-rule="evenodd" d="M43.58,45.366c0.84-2.52,3-3.89,4.7-3.04c1.6,0.8,2.14,3.28,1.3,5.52  c-0.81,2.18-2.7,3.49-4.31,2.95C43.57,50.226,42.76,47.815,43.58,45.366z"/><path xmlns="http://www.w3.org/2000/svg" fill-rule="evenodd" clip-rule="evenodd" d="M51.66,47.846c-0.84-2.24-0.3-4.72,1.3-5.52c1.7-0.85,3.86,0.52,4.7,3.04  c0.82,2.45,0.01,4.86-1.69,5.43C54.36,51.335,52.47,50.025,51.66,47.846z"/><g xmlns="http://www.w3.org/2000/svg"><ellipse fill-rule="evenodd" clip-rule="evenodd" fill="url(#SvgjsLinearGradient109134)" cx="37.12" cy="35.746" rx="4" ry="5"/></g><path xmlns="http://www.w3.org/2000/svg" fill-rule="evenodd" clip-rule="evenodd" d="M57.729,34.746c0-3.87,2.55-7,5.69-7c3.15,0,5.7,3.13,5.7,7s-2.55,7-5.7,7  C60.28,41.746,57.729,38.616,57.729,34.746z"/><path xmlns="http://www.w3.org/2000/svg" fill-rule="evenodd" clip-rule="evenodd" d="M31.12,34.746c0-3.87,2.55-7,5.7-7c3.14,0,5.69,3.13,5.69,7s-2.55,7-5.69,7  C33.669,41.746,31.12,38.616,31.12,34.746z"/><path xmlns="http://www.w3.org/2000/svg" fill-rule="evenodd" clip-rule="evenodd" d="M26.12,24.746c0,2.25,15,9.25,24,9s23.5-5.25,23-8s-7.5,3.5-22,3  S26.12,22.496,26.12,24.746z"/><g xmlns="http://www.w3.org/2000/svg"><path fill-rule="evenodd" clip-rule="evenodd" d="M2.12,71.926c0-3.54,22.65-14.56,36.25-14.17c13.59,0.39,35.49,8.27,34.73,12.6   c-0.75,4.33-11.33-5.51-33.22-4.73C17.979,66.416,2.12,75.466,2.12,71.926z"/></g><path xmlns="http://www.w3.org/2000/svg" fill-rule="evenodd" clip-rule="evenodd" d="M10.669,30.516c-4.88-1.38-5.58,4.97-5.58,4.97l2.79-3.31c0,0-1.31,4.69,0.47,6.21  S15.55,31.896,10.669,30.516z"/><path xmlns="http://www.w3.org/2000/svg" fill-rule="evenodd" clip-rule="evenodd" d="M87.8,30.516c-4.88,1.38,0.54,9.39,2.32,7.87s0.46-6.21,0.46-6.21l2.79,3.31  C93.37,35.486,92.669,29.136,87.8,30.516z"/><path xmlns="http://www.w3.org/2000/svg" fill-rule="evenodd" clip-rule="evenodd" d="M27.12,37.166c-10.77,4.67-19,13.15-19,26.08c0,21.27,22.25,30.5,41.5,30.5  s41.5-9.23,41.5-30.5c0-3.17-0.49-6.07-1.4-8.71c-0.81-2.37-3.51-6.58-4.7-8.76c-0.18-0.33-0.32-0.66-0.39-0.99  c20.09,5.43,17.14-31.51-0.61-21.23c-2.88-8.1-8.96-11.87-16.23-14.67c13.21-1.89-5.38-2.81-6.57-2.99c0.18-0.68,3.7-2.79-6.72-2.27  c10.62-6.38-32.13-6.88-40.23,19.96c-17.7-10.32-19.4,25.91-2.48,20.99c2.13-0.96,2.48-1.86,2.65-2.68  c0.25-1.21-0.81-1.85-1.92-1.36c-13.14,5.82-13.1-20.7,1.71-10.65c0.84,0.56,1.74,0.24,2.06-0.74c3.52-10.81,11.96-15.93,21.9-18.94  c-1.1,0.88-0.36,2.83,1.28,2.43c3.57-0.87,6.6-1.37,9.48-1.57c-2.85,1.26-2.38,3.96-0.12,3.19c13.72-4.73,28.95,0.38,33.11,14.84  c0.29,1.02,1.22,1.39,2.07,0.78c14.03-10.17,15.25,16.53,0.38,11.38c-1.02-0.36-8.65-2.24-10.17-3.11c-0.38-0.2-0.77-0.38-1.17-0.56  c2.74,2.87,10.4,11.83,10.85,25.66c0.48,14.56-15.64,26.25-34.28,26.25s-34.28-11.69-34.28-26.25  C15.34,54.636,19.169,44.625,27.12,37.166z"/></g></g><g id="SvgjsG109124" featureKey="text1" fill="#fff" transform="matrix(1.7358818073577922,0,0,1.7358818073577922,81.33355443338407,-4.7202802427022394)"><path d="M3.44 18.740000000000002 q0 1.6 0.76 2.51 t2.1 0.91 q0.58 0 0.99 -0.05 t0.67 -0.11 l0 -6 q-0.32 -0.22 -0.85 -0.41 t-1.13 -0.19 q-1.32 0 -1.93 0.9 t-0.61 2.44 z M10.38 23.68 q-0.72 0.22 -1.81 0.4 t-2.29 0.18 q-1.24 0 -2.22 -0.38 t-1.67 -1.09 t-1.06 -1.72 t-0.37 -2.27 q0 -1.24 0.31 -2.25 t0.91 -1.73 t1.46 -1.11 t1.98 -0.39 q0.76 0 1.34 0.18 t1 0.4 l0 -5.02 l2.42 -0.4 l0 15.2 z M12.879999999999999 18.82 q0 -1.38 0.41 -2.42 t1.09 -1.73 t1.56 -1.04 t1.8 -0.35 q2.16 0 3.37 1.34 t1.21 4 q0 0.2 -0.01 0.45 t-0.03 0.45 l-6.9 0 q0.1 1.26 0.89 1.95 t2.29 0.69 q0.88 0 1.61 -0.16 t1.15 -0.34 l0.32 1.98 q-0.2 0.1 -0.55 0.21 t-0.8 0.2 t-0.97 0.15 t-1.06 0.06 q-1.38 0 -2.4 -0.41 t-1.68 -1.14 t-0.98 -1.72 t-0.32 -2.17 z M19.9 17.740000000000002 q0 -0.5 -0.14 -0.95 t-0.41 -0.78 t-0.66 -0.52 t-0.93 -0.19 q-0.56 0 -0.98 0.21 t-0.71 0.55 t-0.45 0.78 t-0.22 0.9 l4.5 0 z M27.56 24 q-1 -2.06 -2.05 -4.73 t-1.91 -5.73 l2.58 0 q0.22 0.88 0.51 1.89 t0.62 2.02 t0.68 1.96 t0.65 1.71 q0.3 -0.76 0.64 -1.71 t0.67 -1.96 t0.63 -2.02 t0.52 -1.89 l2.5 0 q-0.86 3.06 -1.91 5.73 t-2.05 4.73 l-2.08 0 z M41.36 18.5 q0 -1.64 -0.41 -2.37 t-1.53 -0.73 q-0.4 0 -0.88 0.06 t-0.72 0.1 l0 8.44 l-2.42 0 l0 -10.12 q0.7 -0.2 1.83 -0.38 t2.39 -0.18 q1.08 0 1.77 0.28 t1.15 0.74 q0.22 -0.16 0.56 -0.34 t0.76 -0.33 t0.89 -0.25 t0.95 -0.1 q1.22 0 2.01 0.35 t1.24 0.98 t0.62 1.52 t0.17 1.95 l0 5.88 l-2.42 0 l0 -5.5 q0 -1.64 -0.4 -2.37 t-1.54 -0.73 q-0.58 0 -1.1 0.19 t-0.78 0.37 q0.16 0.5 0.22 1.06 t0.06 1.2 l0 5.78 l-2.42 0 l0 -5.5 z M52.12 18.82 q0 -1.38 0.41 -2.42 t1.09 -1.73 t1.56 -1.04 t1.8 -0.35 q2.16 0 3.37 1.34 t1.21 4 q0 0.2 -0.01 0.45 t-0.03 0.45 l-6.9 0 q0.1 1.26 0.89 1.95 t2.29 0.69 q0.88 0 1.61 -0.16 t1.15 -0.34 l0.32 1.98 q-0.2 0.1 -0.55 0.21 t-0.8 0.2 t-0.97 0.15 t-1.06 0.06 q-1.38 0 -2.4 -0.41 t-1.68 -1.14 t-0.98 -1.72 t-0.32 -2.17 z M59.14 17.740000000000002 q0 -0.5 -0.14 -0.95 t-0.41 -0.78 t-0.66 -0.52 t-0.93 -0.19 q-0.56 0 -0.98 0.21 t-0.71 0.55 t-0.45 0.78 t-0.22 0.9 l4.5 0 z M64.12 13.88 q0.7 -0.2 1.82 -0.38 t2.48 -0.18 q1.28 0 2.14 0.35 t1.37 0.98 t0.72 1.52 t0.21 1.95 l0 5.88 l-2.42 0 l0 -5.5 q0 -0.84 -0.11 -1.43 t-0.36 -0.96 t-0.68 -0.54 t-1.05 -0.17 q-0.46 0 -0.96 0.06 t-0.74 0.1 l0 8.44 l-2.42 0 l0 -10.12 z M75.7 10.78 l2.42 -0.4 l0 3.16 l3.72 0 l0 2.02 l-3.72 0 l0 4.26 q0 1.26 0.4 1.8 t1.36 0.54 q0.66 0 1.17 -0.14 t0.81 -0.26 l0.4 1.92 q-0.42 0.18 -1.1 0.37 t-1.6 0.19 q-1.12 0 -1.87 -0.3 t-1.19 -0.87 t-0.62 -1.38 t-0.18 -1.85 l0 -9.06 z M83.6 18.82 q0 -1.38 0.41 -2.42 t1.09 -1.73 t1.56 -1.04 t1.8 -0.35 q2.16 0 3.37 1.34 t1.21 4 q0 0.2 -0.01 0.45 t-0.03 0.45 l-6.9 0 q0.1 1.26 0.89 1.95 t2.29 0.69 q0.88 0 1.61 -0.16 t1.15 -0.34 l0.32 1.98 q-0.2 0.1 -0.55 0.21 t-0.8 0.2 t-0.97 0.15 t-1.06 0.06 q-1.38 0 -2.4 -0.41 t-1.68 -1.14 t-0.98 -1.72 t-0.32 -2.17 z M90.62 17.740000000000002 q0 -0.5 -0.14 -0.95 t-0.41 -0.78 t-0.66 -0.52 t-0.93 -0.19 q-0.56 0 -0.98 0.21 t-0.71 0.55 t-0.45 0.78 t-0.22 0.9 l4.5 0 z"/></g><g id="SvgjsG109125" featureKey="text3" fill="#fff" transform="matrix(0.6889027038211183,0,0,0.6889027038211183,106.62219492085217,45.11097296178882)"><path d="M2 24 l0 -14 l6.4 0 c2.1 0 3.5 1.4 3.5 3.3 l0 7.4 c0 1.9 -1.4 3.3 -3.5 3.3 l-6.4 0 z M3.5 11.3 l0 11.4 l4.9 0 c1.1 0 2 -0.9 2 -2 l0 -7.4 c0 -1.1 -0.9 -2 -2 -2 l-4.9 0 z M17 24 l-1.5 0 l0 -14 l1.5 0 l0 14 z M30.3 24 l-6.2 0 c-2.1 0 -3.5 -1.4 -3.5 -3.3 l0 -7.4 c0 -1.9 1.4 -3.3 3.5 -3.3 l5.8 0 l0 0.9 l-0.4 0.4 l-5.4 0 c-1.1 0 -2 0.9 -2 2 l0 7.4 c0 1.1 0.9 2 2 2 l4.7 0 l0 -6.3 l1.5 0 l0 7.6 z M35.4 24 l-1.5 0 l0 -14 l1.5 0 l0 14 z M43.5 11.3 l0 12.7 l-1.5 0 l0 -12.7 l-4.4 0 l0 -1.3 l10.3 0 l0 0.9 l-0.4 0.4 l-4 0 z M51.1 20.4 l-1.2 3.6 l-1.5 0 l0 -0.6 l4.9 -13.4 l1.7 0 l4.9 13.4 l0 0.6 l-1.5 0 l-1.2 -3.6 l-6.1 0 z M56.7 19.1 l-2.5 -7.3 l-0.1 0 l-2.5 7.3 l5.1 0 z M62.2 10 l1.5 0 l0 12.7 l7.5 0 l0 1.3 l-9 0 l0 -14 z  M79.7 24 l-1.5 0 l0 -14 l6.2 0 c2.1 0 3.5 1.4 3.5 3.3 l0 2.7 c0 1.9 -1.4 3.3 -3.5 3.3 l-4.7 0 l0 4.7 z M84.4 11.3 l-4.7 0 l0 6.7 l4.7 0 c1.1 0 2 -0.9 2 -2 l0 -2.7 c0 -1.1 -0.9 -2 -2 -2 z M91.9 20.4 l-1.2 3.6 l-1.5 0 l0 -0.6 l4.9 -13.4 l1.7 0 l4.9 13.4 l0 0.6 l-1.5 0 l-1.2 -3.6 l-6.1 0 z M97.5 19.1 l-2.5 -7.3 l-0.1 0 l-2.5 7.3 l5.1 0 z M104.5 24 l-1.5 0 l0 -14 l6.2 0 c2.1 0 3.5 1.4 3.5 3.3 l0 1.9 c0 2.8 -2.7 3.2 -2.7 3.2 l3.1 5 l0 0.6 l-1.5 0 l-3.1 -5.5 l-4 0 l0 5.5 z M109.2 11.3 l-4.7 0 l0 5.9 l4.7 0 c1.1 0 2 -0.9 2 -2 l0 -1.9 c0 -1.1 -0.9 -2 -2 -2 z M120.19999999999999 11.3 l0 12.7 l-1.5 0 l0 -12.7 l-4.4 0 l0 -1.3 l10.3 0 l0 0.9 l-0.4 0.4 l-4 0 z M135 24 l-6.8 -11.5 l-0.1 0 l0.2 2.6 l0 8.9 l-1.5 0 l0 -14 l1.6 0 l6.8 11.5 l0.1 0 l-0.2 -2.6 l0 -8.9 l1.5 0 l0 14 l-1.6 0 z M140.6 24 l0 -14 l9.1 0 l0 0.9 l-0.4 0.4 l-7.2 0 l0 4.9 l5.7 0 l0 1.3 l-5.7 0 l0 5.2 l7.6 0 l0 1.3 l-9.1 0 z M153.79999999999998 24 l-1.5 0 l0 -14 l6.2 0 c2.1 0 3.5 1.4 3.5 3.3 l0 1.9 c0 2.8 -2.7 3.2 -2.7 3.2 l3.1 5 l0 0.6 l-1.5 0 l-3.1 -5.5 l-4 0 l0 5.5 z M158.49999999999997 11.3 l-4.7 0 l0 5.9 l4.7 0 c1.1 0 2 -0.9 2 -2 l0 -1.9 c0 -1.1 -0.9 -2 -2 -2 z"/></g>
			</g>
		</svg>
	